<svg width="68" height="95" viewBox="0 0 68 95" fill="none" xmlns="http://www.w3.org/2000/svg">
<path d="M49.4533 9.58927C51.5214 7.17964 55.3621 6.52685 58.11 8.1172C60.3373 9.40626 61.6792 11.872 62.2104 14.3894C62.7416 16.9067 62.5679 19.5126 62.4139 22.0814C62.26 24.6503 62.1318 27.2641 62.7489 29.7623C63.4215 32.4838 64.9372 34.9053 66.1688 37.4233C67.4003 39.9419 68.3756 42.7579 67.8523 45.5118C67.2953 48.444 64.924 50.9521 62.0274 51.6723C59.1308 52.3925 55.8609 51.2871 53.9957 48.9567C51.1837 49.8216 47.7678 48.8953 45.4692 47.0592C43.1706 45.2224 41.861 42.2148 42.0837 39.2812C42.2945 36.5009 43.7546 33.9942 45.1428 31.5759C47.0826 28.197 48.971 24.7283 49.9138 20.9477C50.8567 17.1664 51.3251 13.0065 49.4533 9.58927Z" fill="#671C16"/>
<path d="M67.8549 45.5118C67.2946 48.4428 64.924 50.9508 62.0301 51.673C59.1302 52.3952 55.8629 51.2871 53.9957 48.9594C51.1831 49.8184 47.7665 48.8973 45.4699 47.0612C43.1673 45.2191 41.8603 42.2135 42.0843 39.2826C42.1154 38.8346 42.1841 38.3985 42.2773 37.9631C42.6816 40.0728 43.8392 42.0457 45.5194 43.3896C47.8161 45.2257 51.2326 46.1527 54.0453 45.2878C55.9125 47.6215 59.179 48.7229 62.0796 48.0014C64.8678 47.3103 67.1764 44.9581 67.8358 42.158C68.0353 43.2713 68.0663 44.3978 67.8549 45.5118Z" fill="#511310"/>
<path d="M51.1817 9.41881C53.0793 8.55195 55.442 8.80699 57.111 10.0597C58.7615 11.2979 59.6475 13.3441 59.9362 15.3871C60.225 17.43 59.9851 19.506 59.781 21.5588C59.5761 23.6117 59.4083 25.7042 59.8351 27.7226C60.3961 30.3781 61.9362 32.7011 63.1229 35.1418C63.6931 36.3146 64.1893 37.5409 64.3749 38.8319C64.5599 40.123 64.4132 41.4933 63.7624 42.6238C62.8031 44.2908 60.7311 45.2356 58.8441 44.8662C56.9564 44.4976 55.3925 42.8425 55.1315 40.937C53.485 42.6846 50.8692 43.0684 48.7714 41.901C46.673 40.7335 45.5399 38.0635 46.157 35.7431C46.4424 34.6694 47.0463 33.7134 47.6046 32.752C50.5171 27.7372 52.3697 22.1099 53.0053 16.3451C53.1421 15.1023 53.2227 13.835 52.9729 12.6101C52.7219 11.3851 52.2026 10.1416 51.1817 9.41881Z" fill="#77211D"/>
<path d="M12.8093 29.7133C12.8093 29.7133 7.219 24.0107 3.00891 26.5161C0.799478 27.8316 0.266288 30.7804 1.62604 32.9627C3.06112 35.2667 6.10174 37.6122 12.4195 35.4893L12.8093 29.7133Z" fill="#FCBC90"/>
<path d="M12.4519 35.042L12.4208 35.4899C6.10437 37.6121 3.06113 35.2659 1.62341 32.9633C0.266956 30.779 0.80212 27.8289 3.0109 26.5161C3.43441 26.261 3.87577 26.0926 4.31779 25.9994C2.65014 27.4556 2.35151 30.0258 3.5712 31.9795C4.8477 34.0403 7.41787 36.1315 12.4519 35.042Z" fill="#FDB37B"/>
<path d="M45.1963 34.2207C45.1375 34.7493 45.0576 35.2726 44.9188 35.786C43.5458 40.8015 40.128 43.819 36.6883 45.63C34.4022 46.8318 31.9291 47.5692 29.392 47.8678C27.3358 48.103 25.2314 48.0495 23.1641 47.7073C22.7637 47.6432 22.3679 47.5685 21.9675 47.4826C8.67323 44.5986 7.49319 36.4639 7.9841 32.9971C8.13871 31.9076 8.144 30.8075 8.00525 29.712C7.37493 24.8088 8.31513 16.6899 8.31513 16.6899H45.1051C46.4887 20.5148 45.5115 31.1867 45.1963 34.2207Z" fill="#FDCFA1"/>
<path d="M8.69108 19.7114C8.69108 19.7114 5.70134 22.5783 2.82194 21.3242C1.54147 20.7666 0.728116 19.4828 0.607866 18.0913C0.377937 15.4286 0.974574 10.3841 8.69174 10.0279C8.69174 10.0279 3.15889 6.70983 7.78654 2.6636C7.78654 2.6636 11.6861 -0.330766 15.4086 4.36296C15.4086 4.36296 25.686 -5.75261 39.2809 4.8215C39.2809 4.8215 55.1447 3.80664 51.4209 25.6777C51.4209 25.6777 49.6555 35.5541 44.3605 37.4516C44.3605 37.4516 46.198 30.16 45.8147 22.2922C45.8147 22.2922 42.9571 22.2472 41.3615 20.7368C41.3615 20.7368 41.3946 20.7989 41.4428 20.9113C42.4497 23.2852 40.2231 25.749 37.7302 25.0903C35.5016 24.5009 32.3996 23.1134 31.2426 19.8733C31.2426 19.8733 31.5202 20.8174 31.2869 21.8673C30.7683 24.1983 27.8195 24.8538 26.1915 23.1068C25.2242 22.0695 24.2681 20.2486 24.0679 17.0679C24.0679 17.0679 22.6514 20.7421 18.8562 21.3943C17.6973 21.5931 16.6151 20.6675 16.6745 19.4934L16.6772 19.4418C16.6772 19.4418 15.7706 23.7827 10.146 22.7758C9.32338 22.6285 8.6924 21.9354 8.61972 21.1029C8.58404 20.7117 8.59395 20.2453 8.69108 19.7114Z" fill="#671C16"/>
<path d="M51.8821 22.0668C51.7889 23.1933 51.6396 24.3945 51.4216 25.6763C51.4216 25.6763 49.6542 35.5527 44.3585 37.4503C44.3585 37.4503 46.2006 30.1566 45.8147 22.2908C45.8147 22.2908 42.9585 22.2472 41.3589 20.7348C41.3589 20.7348 41.3959 20.7969 41.4395 20.9092C42.4477 23.2865 40.2198 25.7509 37.7302 25.0909C35.5089 24.4996 32.4095 23.118 31.2459 19.8884C31.2829 20.0377 31.501 20.9092 31.2829 21.8673C30.7663 24.2009 27.8168 24.8544 26.1928 23.1054C25.2222 22.0661 24.2701 20.2492 24.0646 17.0691C24.0646 17.0691 22.652 20.7407 18.8562 21.3942C17.6986 21.5931 16.6157 20.6661 16.6719 19.49C16.5477 19.969 15.4145 23.7219 10.144 22.7757C9.32272 22.6264 8.69371 21.9353 8.61905 21.1015C8.58139 20.7097 8.59394 20.2426 8.69371 19.7074C8.69371 19.7074 5.70067 22.5762 2.81929 21.3255C1.54344 20.7652 0.728104 19.4834 0.609836 18.0893C0.442014 16.154 0.709623 12.9615 3.83349 11.2251C3.05583 11.9532 2.51403 12.9489 2.40237 14.0067C2.27815 15.1517 2.69506 16.3714 3.56588 17.1306C4.10106 17.597 4.77301 17.8772 5.45752 18.0331C7.19388 18.4315 9.17272 18.0021 10.3673 16.6952C10.255 16.8385 10.2305 17.0308 10.1618 17.2178C9.82551 18.0952 9.62665 19.1841 10.249 19.8878C10.4796 20.1494 10.7968 20.3172 11.1265 20.4289C12.5021 20.9079 14.0951 20.4665 15.209 19.5263C16.323 18.5868 17.0016 17.2112 17.3498 15.7986C17.4119 16.3278 17.468 16.9436 17.6425 17.4543C17.692 17.5852 17.7422 17.716 17.8294 17.8151C17.9536 17.9585 18.1466 18.0331 18.3336 18.0701C19.2797 18.2756 20.2318 17.8085 21.0782 17.3361C21.5638 17.0625 22.0488 16.7824 22.4782 16.4276C22.8456 16.1289 23.1627 15.7801 23.4865 15.4378C23.9411 14.9463 24.4075 14.4421 24.6751 13.8323C24.7623 14.9152 25.0233 15.9109 25.3226 16.9562C25.4845 17.5164 25.6774 18.0761 25.9946 18.5617C26.3117 19.0533 26.7603 19.4702 27.3074 19.6631C27.8115 19.8375 28.4465 19.7754 28.7821 19.3645C28.9063 19.2085 28.981 19.0222 29.0438 18.8352C29.3299 17.9578 29.3484 16.9932 29.0999 16.1098C30.0705 16.7573 30.8237 17.7649 31.7263 18.5055C32.0249 18.748 32.3546 18.9661 32.6784 19.1841C34.0163 20.0675 35.4415 20.9826 37.0411 21.0513C37.4269 21.0638 37.8439 21.0202 38.13 20.7652C38.2733 20.6344 38.3724 20.4606 38.4471 20.2862C38.8079 19.4523 38.7272 18.4441 38.2416 17.6783C39.4983 18.2512 40.6876 18.7051 42.0064 19.122C42.3116 19.2218 42.6222 19.3149 42.94 19.3645C43.2948 19.414 43.6555 19.4021 44.0103 19.383C44.8508 19.3334 45.6846 19.227 46.5243 19.1213C46.9287 19.0718 47.3456 19.0216 47.7315 18.8663C48.0552 19.638 48.1233 20.4659 48.0797 21.2997C48.042 22.1335 47.8616 22.9548 47.6502 23.7642C47.8742 23.4232 49.8933 21.9776 51.8821 22.0668Z" fill="#511310"/>
<path d="M25.6041 9.52053C25.0154 10.3986 24.467 11.3005 23.9444 12.2189C23.5056 12.99 23.1264 13.7934 22.3461 14.2869C21.3054 14.9457 19.4455 14.7752 18.9989 13.4452C18.802 12.8598 18.9837 12.2215 19.1647 11.6309C18.4194 12.6147 17.5777 13.5192 16.7201 14.4045C16.0653 15.0805 15.2731 16.2671 14.2959 16.4495C13.4158 16.614 12.5642 16.1006 12.3217 15.2377C12.1843 14.7494 12.2695 14.203 12.5483 13.7802C10.7036 14.4832 8.70097 14.9714 6.78357 14.501C6.25301 14.3708 5.67289 14.1006 5.52886 13.5734C5.43504 13.2311 5.56057 12.8558 5.78522 12.581C6.00986 12.3061 6.32173 12.1171 6.64085 11.9612C8.43404 11.0858 10.5206 11.13 12.5153 11.1935C11.6907 10.8215 10.8338 10.3002 10.1096 9.75839C8.87738 8.83669 8.17437 7.28202 8.32039 5.74718C8.4598 4.28303 9.70327 2.7429 11.3247 3.21928C11.8149 3.36331 12.255 3.64148 12.6613 3.95201C13.6127 4.67946 14.4095 5.59786 15.0577 6.60545C15.0577 6.60545 18.8562 1.18163 27.7243 1.44063C27.7243 1.44063 34.9849 1.9071 39.0298 6.36759C39.0298 6.36759 48.9313 4.22885 50.3175 15.9942C50.4437 17.0666 49.5934 18.0107 48.5138 18.0048C45.4599 17.9863 39.5723 17.5806 36.4365 14.9173C36.6175 15.1994 36.792 15.4868 36.8567 15.8158C37.3106 18.1264 33.6212 17.0045 32.7121 16.2863C31.4574 15.2945 30.1789 14.2784 29.3074 12.9378C29.316 13.8284 28.2701 15.3097 27.2367 15.0626C26.5674 14.9027 26.2833 13.8231 26.0838 13.2608C25.8333 12.5559 25.6741 11.8278 25.5882 11.0858C25.5373 10.6543 25.3444 9.90705 25.6041 9.52053Z" fill="#77211D"/>
<path d="M41.3608 30.0033C41.3608 30.0033 47.9066 23.3268 52.8348 26.2604C55.4215 27.7999 56.0453 31.2528 54.4543 33.8078C52.7741 36.5048 49.2141 39.2514 41.8167 36.7658L41.3608 30.0033Z" fill="#FDCFA1"/>
<path d="M52.0374 19.8078C52.081 17.8786 51.9132 13.2674 49.5167 9.86341C49.4421 9.75769 49.3674 9.65198 49.2868 9.54626C49.2868 9.54626 49.38 9.48416 49.5603 9.4095C51.7011 8.46335 54.1094 9.94468 54.377 12.2658C54.6386 14.4937 54.4265 17.7418 51.9872 20.717C51.9872 20.717 52.0248 20.3807 52.0374 19.8078Z" fill="#F7BA16"/>
<path d="M52.0374 19.8079C52.081 17.8786 51.9132 13.2675 49.5168 9.86345C51.3403 9.67646 53.0886 11.0395 53.3126 12.9939C53.5247 14.8168 53.4256 17.3249 52.0374 19.8079Z" fill="#F7A616"/>
<path d="M14.8496 31.9306C13.6537 31.9306 12.6844 30.9614 12.6844 29.7655V28.7843C12.6844 27.5884 13.6537 26.6191 14.8496 26.6191C16.0455 26.6191 17.0147 27.5884 17.0147 28.7843V29.7661C17.0147 30.9614 16.0455 31.9306 14.8496 31.9306Z" fill="#671C16"/>
<path d="M13.106 28.9396C13.9974 28.9396 14.7201 28.2169 14.7201 27.3254C14.7201 26.434 13.9974 25.7113 13.106 25.7113C12.2145 25.7113 11.4918 26.434 11.4918 27.3254C11.4918 28.2169 12.2145 28.9396 13.106 28.9396Z" fill="white"/>
<path d="M34.9968 31.9306C36.1927 31.9306 37.162 30.9614 37.162 29.7655V28.7843C37.162 27.5884 36.1927 26.6191 34.9968 26.6191C33.8009 26.6191 32.8317 27.5884 32.8317 28.7843V29.7661C32.8317 30.9614 33.8009 31.9306 34.9968 31.9306Z" fill="#671C16"/>
<path d="M35.127 27.3254C35.127 28.2167 35.8498 28.9396 36.7411 28.9396C37.6324 28.9396 38.3553 28.2167 38.3553 27.3254C38.3553 26.4341 37.6324 25.7113 36.7411 25.7113C35.8492 25.7113 35.127 26.4341 35.127 27.3254Z" fill="white"/>
<path d="M23.8717 34.7255C23.7223 34.7665 23.5684 34.787 23.4092 34.787C22.4432 34.787 21.6563 34.0007 21.6563 33.0341C21.6563 32.0675 22.4425 31.2865 23.4092 31.2865C23.5169 31.2865 23.6252 31.2971 23.7329 31.3176C22.9876 31.5178 22.4425 32.1963 22.4425 33.0037C22.4425 33.862 23.0596 34.5762 23.8717 34.7255Z" fill="#671C16"/>
<path d="M28.8905 37.5191C28.8806 38.2314 28.722 39.0877 28.1683 39.8495C28.0395 40.0325 27.8862 40.2109 27.7032 40.3787C26.7729 41.2449 25.4415 41.5218 24.2047 41.2297C23.8783 41.1557 23.5321 41.0467 23.1905 40.8934C22.2853 40.4924 21.4237 39.7946 21.1323 38.573C21.0881 38.38 21.0927 38.1818 21.1423 38.0087C21.2711 37.5238 21.7164 37.1524 22.2556 37.1577C23.4482 37.1623 25.388 37.0441 27.4019 36.4157C27.8617 36.2724 28.3322 36.4356 28.6143 36.7672C28.7867 36.9648 28.8951 37.2271 28.8905 37.5191Z" fill="#671C16"/>
<path d="M28.1677 39.8493C28.0388 40.0323 27.8855 40.2107 27.7025 40.3785C26.7722 41.2447 25.4409 41.5216 24.204 41.2295C23.8776 41.1555 23.5314 41.0465 23.1898 40.8932C23.4026 39.6015 24.5258 38.6124 25.8816 38.6124C26.8423 38.6124 27.6833 39.102 28.1677 39.8493Z" fill="#F3406B"/>
<path d="M28.6136 36.7664C28.2126 38.0825 26.5006 39.0723 24.4425 39.0723C23.1118 39.0723 21.9239 38.6567 21.1422 38.0085C21.2711 37.5236 21.7164 37.1522 22.2555 37.1575C23.4481 37.1621 25.388 37.0439 27.4019 36.4155C27.8611 36.2715 28.3315 36.4354 28.6136 36.7664Z" fill="white"/>
<path d="M38.0374 24.1058C38.9598 23.9855 40.6539 24.0522 41.341 25.9518C41.341 25.9518 41.8425 22.0503 37.795 22.7163C37.6152 22.746 37.4474 22.8425 37.3384 22.9885C37.3305 22.9997 37.3219 23.011 37.3139 23.0228C36.9717 23.523 37.4368 24.1837 38.0374 24.1058Z" fill="#4F110E"/>
<path d="M13.1126 23.8653C12.1902 23.745 10.4961 23.8118 9.80899 25.7113C9.80899 25.7113 9.30751 21.8098 13.3551 22.4758C13.5348 22.5055 13.7026 22.602 13.8116 22.748C13.8196 22.7592 13.8281 22.7705 13.8361 22.7824C14.179 23.2825 13.7138 23.9439 13.1126 23.8653Z" fill="#4F110E"/>
<path d="M38.1015 33.9023C38.1015 34.7593 36.7695 35.4537 35.1263 35.4537C33.4831 35.4537 32.1511 34.7593 32.1511 33.9023C32.1511 33.0454 33.4831 32.351 35.1263 32.351C36.7695 32.351 38.1015 33.0454 38.1015 33.9023Z" fill="#F2635A"/>
<path d="M14.4664 35.4537C16.1096 35.4537 17.4416 34.7591 17.4416 33.9023C17.4416 33.0455 16.1096 32.351 14.4664 32.351C12.8233 32.351 11.4912 33.0455 11.4912 33.9023C11.4912 34.7591 12.8233 35.4537 14.4664 35.4537Z" fill="#F2635A"/>
<path d="M52.2812 32.9496C51.59 34.0695 50.377 35.2085 48.2607 35.3704C47.2399 35.4451 46.0077 35.2958 44.527 34.8042L44.2217 30.6536C44.2217 30.6536 45.8398 28.9859 47.8002 28.2327C48.9201 27.7973 50.1523 27.6665 51.2603 28.3133C52.8599 29.2528 53.2518 31.3751 52.2812 32.9496Z" fill="#FDB895"/>
<path d="M50.6756 33.3103C50.184 34.1072 49.4249 34.9159 48.2607 35.3704C47.2399 35.4451 46.0077 35.2958 44.527 34.8042L44.2217 30.6536C44.2217 30.6536 45.8398 28.9859 47.8002 28.2327C48.4351 28.2076 49.0635 28.3325 49.6548 28.6807C51.2485 29.6136 51.6403 31.7358 50.6756 33.3103Z" fill="#FDA67C"/>
<path d="M45.8874 35.0593H43.3073V32.9589H45.8874C46.4675 32.9589 46.9373 33.4293 46.9373 34.0087C46.9379 34.5895 46.4675 35.0593 45.8874 35.0593Z" fill="#FDCFA1"/>
<path d="M19.1568 65.6477C19.1568 65.6477 20.317 57.663 19.1568 55.2626C19.1568 55.2626 14.2563 60.3686 9.37357 67.1092C9.45484 63.69 9.62134 59.9147 9.62134 59.9147C6.30322 58.9434 2.69902 59.7528 2.69902 59.7528C2.00527 66.4525 2.49816 75.7058 2.71818 78.5931C2.69505 78.9572 2.72214 79.3193 2.80671 79.6701C2.8087 79.6906 2.80936 79.7018 2.80936 79.7018C2.81795 79.7276 2.82851 79.7487 2.8371 79.7738C3.02805 80.4729 3.42118 81.1151 4.0231 81.5829C4.04622 81.6007 4.06934 81.6186 4.09312 81.6364C4.56884 81.9932 5.10337 82.202 5.64978 82.2839C5.66564 82.2865 5.6782 82.2885 5.69273 82.2905C5.75814 82.2991 5.82356 82.3083 5.88963 82.3136C5.91143 82.3156 5.92925 82.3163 5.9385 82.3169C5.9537 82.3183 5.96692 82.3163 5.98212 82.3176C6.08717 82.3229 6.19157 82.3249 6.29596 82.3209C6.37591 82.3189 6.45453 82.3143 6.53117 82.307C6.55958 82.3044 6.58799 82.2997 6.6164 82.2958C6.84567 82.2674 7.06636 82.2231 7.26986 82.1531C8.06073 81.8987 8.77034 81.3695 9.24275 80.611C9.60813 80.1154 9.78718 79.7058 9.78916 79.7018C12.2332 75.6159 16.5569 68.6005 19.1568 65.6477Z" fill="#FDCFA1"/>
<path d="M19.509 62.4551C19.3596 64.2535 19.1542 65.6477 19.1542 65.6477C16.5589 68.6037 12.2338 75.6172 9.78853 79.7057C9.78853 79.7057 9.60815 80.1167 9.24079 80.6142C8.77432 81.3674 8.06472 81.9026 7.26789 82.151C7.06902 82.2257 6.84503 82.2693 6.61444 82.2944C6.58933 82.3004 6.55827 82.307 6.53382 82.307C6.45321 82.3136 6.37855 82.3195 6.29728 82.3195C6.19157 82.3255 6.08587 82.3255 5.98015 82.3195H5.93654C5.93059 82.3136 5.91143 82.3136 5.89293 82.3136C5.82421 82.307 5.76211 82.301 5.69405 82.2885C5.6815 82.2885 5.66896 82.2885 5.65046 82.2825C5.10273 82.2019 4.56754 81.9964 4.09447 81.635C4.06936 81.6165 4.04491 81.604 4.02575 81.5855C3.42185 81.119 3.03004 80.4715 2.83711 79.7744C2.83117 79.7493 2.81862 79.7249 2.81201 79.6998C2.81201 79.6998 2.80606 79.6932 2.80606 79.6687C2.72545 79.3205 2.69441 78.9591 2.71885 78.5924C2.64419 77.6403 2.54441 76.1279 2.46381 74.2859C2.50081 74.8336 2.53252 75.3067 2.56357 75.6925C2.53847 76.0533 2.56953 76.4147 2.6508 76.7695C2.6508 76.788 2.65675 76.8006 2.65675 76.8006C2.6627 76.8257 2.67525 76.8442 2.68185 76.8693C2.87478 77.5723 3.2666 78.2138 3.87049 78.6803C3.88899 78.6988 3.91408 78.7173 3.93919 78.7365C4.41226 79.0913 4.94745 79.2967 5.49518 79.3833C5.51368 79.3833 5.52624 79.3833 5.5388 79.3892C5.60751 79.3952 5.66961 79.4077 5.73767 79.4077C5.75617 79.4137 5.77467 79.4137 5.78128 79.4137H5.82487C5.93059 79.4196 6.03631 79.4196 6.14203 79.4196C6.22263 79.4137 6.2973 79.4137 6.37856 79.4011C6.40367 79.4011 6.43473 79.3952 6.45918 79.3952C6.68911 79.3641 6.91374 79.3205 7.11261 79.2518C7.90944 78.9968 8.61838 78.4675 9.08551 77.7084C9.45287 77.2109 9.63325 76.7999 9.63325 76.7999C12.029 72.792 16.8641 65.5294 19.509 62.4551Z" fill="#FDB895"/>
<path d="M5.39474 62.2722C8.37417 62.2722 10.7895 60.1225 10.7895 57.4707C10.7895 54.819 8.37417 52.6693 5.39474 52.6693C2.4153 52.6693 0 54.819 0 57.4707C0 60.1225 2.4153 62.2722 5.39474 62.2722Z" fill="#FDCFA1"/>
<path d="M10.7875 57.4688C10.7875 60.1196 8.3726 62.2729 5.39211 62.2729C2.41756 62.2729 0.00265503 60.1196 0.00265503 57.4688C0.00265503 57.145 0.0396576 56.8279 0.108372 56.5226C0.66866 58.6449 2.80936 60.2253 5.36039 60.2253C7.96824 60.2253 10.146 58.5761 10.6435 56.3859C10.7373 56.7347 10.7875 57.0955 10.7875 57.4688Z" fill="#FDB895"/>
<path d="M30.7497 53.8711C30.7497 53.8711 47.6753 54.1367 55.4335 34.2247C55.4335 34.2247 56.6426 20.9622 64.5011 25.093C64.5011 25.093 70.4456 27.8435 62.889 40.8101C62.889 40.8101 53.8213 56.9296 33.4706 60.6573C33.4706 60.6573 30.0441 58.8727 30.7497 53.8711Z" fill="#FDCFA1"/>
<path d="M62.891 40.8114C62.891 40.8114 53.824 56.9296 33.4679 60.6567C33.4679 60.6567 32.7273 60.2709 32.0117 59.3558C51.4031 55.1801 60.0657 39.7781 60.0657 39.7781C66.3947 28.9311 63.2583 25.2344 62.0697 24.3134C62.7978 24.3755 63.6065 24.6246 64.5031 25.091C64.5031 25.091 70.4456 27.8422 62.891 40.8114Z" fill="#FDB895"/>
<path d="M23.1627 50.3739C23.1627 50.3739 17.9167 50.0832 19.1575 55.2626C19.1575 55.2626 11.2811 74.5462 8.69107 90.7728C8.69107 90.7728 28.2747 100.118 43.8121 90.7728C43.8121 90.7728 42.3017 71.5552 32.7524 54.8846C32.7524 54.8846 34.235 50.0561 29.3933 50.3931L23.1627 50.3739Z" fill="#F3225E"/>
<path d="M43.8108 90.7701C28.278 100.117 8.69373 90.7701 8.69373 90.7701C8.84965 89.7803 9.03003 88.7787 9.22296 87.7645C17.8605 90.229 24.8489 90.0294 29.9146 89.0588C35.6153 87.97 39.3179 82.4438 38.1353 76.7623C35.7765 65.4362 31.2585 56.5807 31.2585 56.5807C29.5843 57.2526 26.8092 56.5807 26.8092 56.5807C31.8499 55.3795 31.4825 52.0752 30.9909 50.5133C33.8657 51.2474 32.7517 54.8879 32.7517 54.8879C42.2984 71.5532 43.8108 90.7701 43.8108 90.7701Z" fill="#E5175C"/>
<path d="M29.3913 47.8678V51.1225C29.3913 52.8404 27.9972 54.2404 26.28 54.2404C24.5562 54.2404 23.1621 52.8404 23.1621 51.1225V47.7059C25.2281 48.0488 27.3378 48.1043 29.3913 47.8678Z" fill="#FDCFA1"/>
<path d="M29.3913 47.8678V49.1251C29.273 49.1436 29.1607 49.1628 29.0431 49.1747C27.1013 49.3987 25.1165 49.3676 23.1621 49.069V47.7059C25.2281 48.0488 27.3378 48.1043 29.3913 47.8678Z" fill="#FDB895"/>
</svg>
