<svg width="60" height="109" viewBox="0 0 60 109" fill="none" xmlns="http://www.w3.org/2000/svg">
<path d="M39.0125 88.1673C39.0125 88.1673 39.9738 99.4179 39.7524 103.444C39.7524 103.444 43.0807 105.646 45.891 103.008C45.891 103.008 45.891 93.418 45.0778 87.4872L39.0125 88.1673Z" fill="#FDCFA1"/>
<path d="M41.5349 104.165C40.4781 103.921 39.7518 103.445 39.7518 103.445C39.9725 99.4204 39.0143 88.1654 39.0143 88.1654L40.7389 87.9736C40.9831 91.0343 41.6687 100.03 41.5349 104.165Z" fill="#FDB895"/>
<path d="M34.9159 74.7075C34.9159 74.7075 37.4081 82.6367 37.8612 90.2643C37.8612 90.2643 42.9998 91.397 46.3589 88.8296C46.3589 88.8296 46.7726 79.4656 44.3556 72.2911L34.9159 74.7075Z" fill="#F7BA16"/>
<path d="M40.0311 90.5004C38.7474 90.4597 37.8589 90.2624 37.8589 90.2624C37.4057 82.6372 34.9148 74.7105 34.9148 74.7105L36.9877 74.1759C37.7368 76.8062 39.5489 83.6878 40.0311 90.5004Z" fill="#F7A616"/>
<path d="M39.7518 103.445V108.318H53.0587C53.0587 108.318 52.8442 102.256 45.8904 103.009C45.8904 103.009 43.8144 105.733 39.7518 103.445Z" fill="#F3225E"/>
<path d="M53.0568 108.318H39.7524V106.599H52.6857C53.0279 107.551 53.0568 108.318 53.0568 108.318Z" fill="#E5175C"/>
<path d="M45.1992 107.994C45.1992 108.102 45.2054 108.212 45.2054 108.32H56.7563C56.7563 108.212 56.7625 108.102 56.7625 107.994C56.7625 104.798 54.171 102.212 50.9808 102.212C47.7907 102.212 45.1992 104.798 45.1992 107.994Z" fill="white"/>
<path d="M56.7618 107.992C56.7618 108.102 56.7562 108.213 56.7562 108.318H45.2053C45.2053 108.213 45.1997 108.102 45.1997 107.992C45.1997 107.516 45.2577 107.057 45.3625 106.616H54.6543C54.6543 106.505 54.6598 106.395 54.6598 106.291C54.6598 104.961 54.2128 103.748 53.4637 102.771C55.4145 103.701 56.7618 105.687 56.7618 107.992Z" fill="#C2E8F1"/>
<path d="M30.8186 88.1673C30.8186 88.1673 29.8573 99.4179 30.0793 103.444C30.0793 103.444 26.751 105.646 23.9407 103.008C23.9407 103.008 23.9407 93.418 24.7539 87.4872L30.8186 88.1673Z" fill="#FDCFA1"/>
<path d="M25.4194 103.846C25.5063 103.927 25.5877 104.002 25.6746 104.066C25.0938 103.875 24.5075 103.543 23.9384 103.009C23.9384 103.009 23.9384 93.4217 24.7516 87.4866L26.2092 87.6494C25.4194 94.1647 25.4194 103.846 25.4194 103.846Z" fill="#FDB895"/>
<path d="M34.9158 74.7073C34.9158 74.7073 32.4236 82.6364 31.9704 90.2641C31.9704 90.2641 26.8319 91.3967 23.4728 88.8293C23.4728 88.8293 23.0591 79.4654 25.4754 72.2909L34.9158 74.7073Z" fill="#F7BA16"/>
<path d="M27.6377 72.846C25.849 79.1412 25.5641 86.3015 25.553 89.9313C24.8273 89.676 24.1189 89.3215 23.474 88.8276C23.474 88.8276 23.0615 79.4661 25.4772 72.288L27.6377 72.846Z" fill="#F7A616"/>
<path d="M30.0795 103.445V108.318H16.7725C16.7725 108.318 16.9871 102.256 23.9408 103.009C23.9408 103.009 26.0168 105.733 30.0795 103.445Z" fill="#F3225E"/>
<path d="M30.0769 106.505V108.318H16.7718C16.7718 108.318 16.8007 107.504 17.1781 106.505H30.0769Z" fill="#E5175C"/>
<path d="M25.629 107.994C25.629 108.102 25.6229 108.212 25.6229 108.32H14.0719C14.0719 108.212 14.0658 108.102 14.0658 107.994C14.0658 104.798 16.6578 102.212 19.8474 102.212C23.0369 102.212 25.629 104.798 25.629 107.994Z" fill="white"/>
<path d="M25.6285 107.992C25.6285 108.102 25.6223 108.213 25.6223 108.318H14.072C14.072 108.213 14.0665 108.102 14.0665 107.992C14.0665 105.78 15.3095 103.863 17.1327 102.893C16.5056 103.822 16.1338 104.943 16.1338 106.145C16.1338 106.25 16.1394 106.36 16.1394 106.47H25.4257C25.5588 106.952 25.6285 107.464 25.6285 107.992Z" fill="#C2E8F1"/>
<path d="M29.2894 2.88427C29.2894 2.88427 13.9847 -2.85729 12.9773 17.4836C12.9773 17.4836 10.8168 31.1358 7.60996 37.5728C7.00633 38.7844 6.51677 40.0527 6.26459 41.382C5.28609 46.5477 5.46675 57.6794 22.9011 63.2902C28.5902 65.1208 34.7424 65.2411 40.368 63.2224C44.4325 61.7636 48.6511 59.0895 51.1698 54.2062C52.6761 51.2855 53.2853 47.985 53.141 44.7017C52.8888 38.9583 52.3278 24.6056 52.5195 14.3532C52.6095 9.52603 50.2678 4.90233 46.1497 2.38238C42.4829 0.137427 37.0428 -0.816417 29.2894 2.88427Z" fill="#671C16"/>
<path d="M51.2038 54.1285C51.192 54.152 51.1803 54.181 51.1686 54.2038C48.6542 59.0877 44.4319 61.7648 40.3668 63.2224C34.7455 65.2374 28.5896 65.1215 22.9042 63.2921C5.4643 57.6763 5.28426 46.5496 6.26584 41.3808C6.51556 40.0509 7.00944 38.785 7.60752 37.571C10.6392 31.502 12.7294 19.0047 12.9619 17.6112C12.8053 22.1233 12.2127 29.6499 10.0695 33.9529C9.46588 35.1664 8.972 36.4328 8.72228 37.7628C7.74686 42.9315 7.9269 54.0638 25.3606 59.674C31.0516 61.5034 37.2019 61.6255 42.8294 59.6044C45.7742 58.5482 48.8053 56.8464 51.2038 54.1285Z" fill="#511310"/>
<path d="M56.5784 70.2718C56.7843 67.5774 57.2443 60.1014 56.5963 53.8493C56.5963 53.8493 53.2328 53.094 50.1364 54.0004C50.1364 54.0004 50.2918 56.3649 50.367 59.5557C45.8111 53.2648 41.2373 48.5005 41.2373 48.5005C40.1546 50.7411 41.2373 58.1918 41.2373 58.1918C43.6636 60.9473 47.6984 67.4941 49.9785 71.3076C49.9798 71.3107 50.1475 71.6936 50.4884 72.156C50.9293 72.8639 51.5915 73.3578 52.3295 73.5951C52.5195 73.6605 52.7254 73.7018 52.9393 73.7283C52.9658 73.7314 52.9917 73.7357 53.0183 73.7388C53.0904 73.7456 53.1632 73.7499 53.2378 73.7517C53.3352 73.7554 53.4332 73.7536 53.5306 73.7487C53.5448 73.748 53.5571 73.7493 53.5713 73.748C53.58 73.7474 53.596 73.7462 53.617 73.7444C53.6786 73.7394 53.7397 73.7314 53.8007 73.7228C53.8143 73.7209 53.8266 73.7191 53.8408 73.7166C54.3507 73.6402 54.8495 73.4459 55.2934 73.1124C55.3156 73.0957 55.3372 73.0791 55.3588 73.0624C55.9205 72.6259 56.2873 72.0266 56.4655 71.3742C56.4735 71.3508 56.4834 71.3305 56.4914 71.307C56.4914 71.307 56.4927 71.2965 56.4945 71.2774C56.5747 70.9494 56.5999 70.6115 56.5784 70.2718Z" fill="#FDCFA1"/>
<path d="M56.6165 69.733C56.5993 69.9303 56.5876 70.1103 56.5758 70.2731C56.5993 70.6098 56.5758 70.947 56.4944 71.2775C56.4944 71.2948 56.4944 71.3065 56.4944 71.3065C56.4827 71.3299 56.4772 71.3527 56.4655 71.3762C56.291 72.0267 55.9198 72.6247 55.3618 73.06C55.3384 73.0773 55.3156 73.0946 55.2921 73.1124C54.8507 73.4435 54.3512 73.6409 53.8401 73.7167C53.8284 73.7167 53.8167 73.7222 53.7994 73.7222C53.7414 73.7278 53.6773 73.7395 53.6194 73.7457H53.5324C53.4338 73.7512 53.3351 73.7512 53.2365 73.7512C53.1668 73.7457 53.0916 73.7457 53.0213 73.7395C52.9923 73.7339 52.9689 73.7278 52.9399 73.7278C52.7253 73.6988 52.5218 73.6581 52.3301 73.594C51.5927 73.356 50.9305 72.8621 50.489 72.1537C50.1462 71.6949 49.9779 71.3114 49.9779 71.3059C47.7015 67.4905 43.6653 60.9455 41.2379 58.1925C41.2379 58.1925 40.9475 56.2183 40.8199 53.9937C43.584 57.391 47.7193 64.1098 50.1234 68.1348C50.1295 68.1348 50.3151 68.5701 50.6986 69.0874C51.1981 69.889 51.9472 70.4464 52.7777 70.7133C52.9929 70.7886 53.2247 70.8354 53.4689 70.8644C53.4979 70.87 53.5269 70.8761 53.5558 70.8761C53.6372 70.8817 53.7242 70.8878 53.8056 70.8934C53.9159 70.8934 54.0263 70.8934 54.1367 70.8878H54.1829C54.1946 70.8878 54.2119 70.8823 54.2353 70.8823C54.305 70.8767 54.3747 70.8706 54.4388 70.8589C54.456 70.8589 54.4678 70.8533 54.485 70.8533C55.0597 70.7664 55.6232 70.5456 56.1288 70.1683C56.1523 70.151 56.1751 70.1331 56.1985 70.1159C56.3489 70 56.4883 69.8668 56.6165 69.733Z" fill="#FDB895"/>
<path d="M54.0805 56.2996C56.8609 56.2996 59.1149 54.2935 59.1149 51.8189C59.1149 49.3443 56.8609 47.3383 54.0805 47.3383C51.3001 47.3383 49.0462 49.3443 49.0462 51.8189C49.0462 54.2935 51.3001 56.2996 54.0805 56.2996Z" fill="#FDCFA1"/>
<path d="M59.1136 51.8171C59.1136 54.2908 56.8607 56.3002 54.0787 56.3002C51.3029 56.3002 49.0437 54.2908 49.0437 51.8171C49.0437 51.486 49.0844 51.1611 49.1658 50.8534C49.6652 52.8628 51.6746 54.3666 54.0787 54.3666C56.4827 54.3666 58.4983 52.8628 58.9916 50.8534C59.0729 51.1611 59.1136 51.486 59.1136 51.8171Z" fill="#FDB895"/>
<path d="M29.9832 49.9112C29.9832 49.9112 11.2011 43.6443 8.06454 30.1148C8.06454 30.1148 8.37653 27.3704 7.57559 25.0021C6.38992 21.4969 1.35126 21.6973 0.331444 25.2543C-0.0255538 26.4992 -0.148252 28.135 0.237108 30.2652C0.596572 32.2537 1.34879 34.146 2.34148 35.9063C5.3516 41.2458 14.0422 54.0324 28.8006 55.2951C28.8006 55.2951 31.1183 53.565 29.9832 49.9112Z" fill="#FDCFA1"/>
<path d="M30.0071 53.5188C29.5774 54.7149 28.7993 55.2957 28.7993 55.2957C14.0427 54.0299 5.34902 41.2477 2.34074 35.905C1.34744 34.1453 0.598298 32.2524 0.238217 30.2658C-0.150842 28.1343 -0.0232103 26.4967 0.331321 25.2543C0.732095 23.8547 1.75438 22.9779 2.91539 22.6406C2.74706 22.9255 2.60772 23.2387 2.50907 23.5871C2.15454 24.8301 2.02691 26.4677 2.41597 28.5931C2.77605 30.5852 3.52518 32.4781 4.51849 34.2378C7.46264 39.459 15.837 51.7997 30.0071 53.5188Z" fill="#FDB895"/>
<path d="M31.8396 45.0563C31.8396 45.0563 28.573 44.7826 29.3782 49.1627C29.3782 49.1627 24.0417 61.4973 21.9269 72.875C21.9269 72.875 35.3602 81.2179 47.603 72.875C47.603 72.875 46.4956 56.8557 41.1591 49.1627C41.1591 49.1627 42.5193 44.5304 37.6545 45.0532L31.8396 45.0563Z" fill="#F3225E"/>
<path d="M37.388 76.5042C28.9094 77.2071 21.9286 72.8744 21.9286 72.8744C24.0428 61.498 29.3793 49.1627 29.3793 49.1627C29.0599 47.432 29.3793 46.4276 29.8787 45.8468C29.8035 47.2403 30.2912 49.0468 32.9973 49.8015C32.9973 49.8015 31.9695 49.9816 30.5754 49.8015C30.5754 49.8015 17.6545 74.7796 37.388 76.5042Z" fill="#E5175C"/>
<path d="M38.1953 41.4685V45.7371C38.1953 47.3402 36.8943 48.6405 35.2918 48.6405C33.6832 48.6405 32.3822 47.3395 32.3822 45.7371V41.4685H38.1953Z" fill="#FDCFA1"/>
<path d="M38.1953 41.4685V44.6741C36.2555 44.93 34.2985 44.9238 32.3822 44.6396V41.4685H38.1953Z" fill="#FDB37B"/>
<path d="M48.5162 25.3912C48.5162 25.3912 53.7331 20.0695 57.6619 22.4076C59.7237 23.6346 60.2207 26.3863 58.9524 28.4235C57.6132 30.5735 54.7757 32.7624 48.88 30.7813L48.5162 25.3912Z" fill="#FCBC90"/>
<path d="M58.9511 28.4253C57.6156 30.5741 54.7757 32.7636 48.8812 30.7831L48.8522 30.3127C53.7941 31.515 56.2739 29.5111 57.4997 27.5424C58.6089 25.7593 58.3709 23.4305 56.9133 22.0604C57.1686 22.1474 57.4183 22.2639 57.6625 22.4088C59.7237 23.6339 60.2231 26.3869 58.9511 28.4253Z" fill="#FDB37B"/>
<path d="M21.6625 26.6317C21.6625 26.6317 15.5541 20.4012 10.9551 23.1388C8.54116 24.5755 7.95912 27.7977 9.44383 30.182C11.0118 32.6989 14.3345 35.262 21.2371 32.9424L21.6625 26.6317Z" fill="#FDCFA1"/>
<path d="M20.663 27.4555L20.3781 31.6772C18.8854 32.1767 17.6368 32.3394 16.609 32.2753C14.443 32.1243 13.1944 30.9688 12.4915 29.8306C11.4982 28.2337 11.8879 26.0787 13.5021 25.115C14.7451 24.3776 16.1558 24.6156 17.3933 25.1674C19.211 25.9745 20.663 27.4555 20.663 27.4555Z" fill="#FDB895"/>
<path d="M20.663 27.4555L20.3781 31.6772C18.8854 32.1767 17.6368 32.3394 16.609 32.2753C15.6157 31.7993 14.9424 31.0674 14.4892 30.3356C13.4904 28.7442 13.8794 26.5843 15.4998 25.6255C16.104 25.2655 16.7484 25.1378 17.3933 25.1668C19.211 25.9745 20.663 27.4555 20.663 27.4555Z" fill="#FDA67C"/>
<path d="M21.2667 32.0527H17.4217C16.8058 32.0527 16.3057 31.5533 16.3057 30.9367C16.3057 30.3201 16.8052 29.8207 17.4217 29.8207H21.2667V32.0527Z" fill="#FDCFA1"/>
<path d="M52.7657 10.6593C52.7657 10.6593 53.643 21.3729 53.0548 25.9504C52.9241 26.9696 52.929 27.9962 53.0733 29.0135C53.5314 32.2506 52.429 39.8412 40.0223 42.5307C35.3801 43.537 30.4912 43.0141 26.2886 40.8019C23.0775 39.1118 19.8849 36.2947 18.6049 31.6173C18.4735 31.1383 18.3989 30.6481 18.3478 30.1542C18.0537 27.3235 17.1405 14.2287 18.4304 10.6599L52.7657 10.6593Z" fill="#FDCFA1"/>
<path d="M19.7413 19.2347C21.0244 19.0004 22.7829 18.2167 24.5568 15.9736C24.5568 15.9736 23.6473 17.4552 24.325 18.9714C24.87 20.1916 26.2561 20.8039 27.5657 20.535C30.3705 19.9598 36.5461 18.0108 38.9058 11.7951C38.9058 11.7951 39.7881 14.9507 42.8765 16.5883C43.6343 16.9897 44.5493 16.674 44.8995 15.891C44.9704 15.7319 45.0376 15.5506 45.098 15.3441C45.098 15.3441 46.7967 21.4198 51.3452 21.1874C52.574 21.1245 53.5729 20.162 53.6857 18.9369C53.7122 18.6465 53.7227 18.3283 53.7073 17.9873C53.7073 17.9873 56.6761 19.85 58.0141 17.187C58.4364 16.3466 58.5603 15.3755 58.384 14.4519C58.0874 12.9024 56.9295 10.536 52.6505 10.2845C52.6505 10.2845 47.1124 -6.58137 29.2902 2.88369C29.2902 2.88369 16.3415 1.36938 17.603 17.597C17.6857 18.6656 18.687 19.427 19.7413 19.2347Z" fill="#671C16"/>
<path d="M58.016 17.1876C56.6743 19.8531 53.7067 17.9892 53.7067 17.9892C53.724 18.332 53.7129 18.6452 53.6833 18.9356C53.5729 20.1608 52.5741 21.1251 51.3428 21.1886C46.7955 21.4211 45.1 15.3465 45.1 15.3465C45.0358 15.55 44.9723 15.7301 44.8965 15.8922C44.5481 16.6765 43.6307 16.9897 42.8754 16.5889C39.7857 14.9513 38.9034 11.792 38.9034 11.792C36.5456 18.012 30.3724 19.9573 27.5676 20.532C26.2549 20.8051 24.867 20.1891 24.3269 18.9696C23.6764 17.5237 24.478 16.1062 24.5532 15.9847C22.7762 18.2149 21.022 18.9985 19.739 19.231C18.6877 19.4283 17.6833 18.6674 17.6019 17.5989C17.4798 16.0365 17.4915 14.643 17.6074 13.3883C18.0606 14.1726 18.885 14.7065 19.7679 14.9445C20.6971 15.1943 21.6842 15.1363 22.6307 14.9563C24.4773 14.6017 26.3764 13.7484 27.8167 12.5343C27.538 13.5332 27.9505 14.6541 28.7403 15.3336C29.5246 16.0069 30.6221 16.2566 31.65 16.1234C32.6778 15.9896 33.636 15.4964 34.4431 14.8514C35.2563 14.2065 35.9296 13.4056 36.5511 12.5806C37.6314 11.1581 38.7116 9.66542 39.5304 8.0802C40.123 9.18387 40.7093 10.2814 41.3019 11.3844C41.5978 11.9418 41.9061 12.5054 42.3531 12.9524C42.7946 13.3994 43.4099 13.7188 44.037 13.667C44.664 13.6146 45.3959 13.191 45.4132 12.5633C45.814 13.7946 46.3886 14.9735 47.1149 16.042C47.3764 16.4256 47.6551 16.8029 48.0207 17.0871C48.3925 17.3658 48.8512 17.552 49.3099 17.5169C50.0474 17.4528 50.6399 16.8084 50.8434 16.0938C51.0407 15.3792 50.9013 14.6011 50.6923 13.8927C51.3366 14.7232 52.0975 15.484 53.0328 15.9662C53.9676 16.4539 55.0885 16.634 56.0873 16.2911C57.0806 15.9483 57.8933 15.0309 57.9513 13.9796C57.9747 13.5498 57.8816 13.1374 57.7133 12.7427C58.0906 13.3291 58.2824 13.9334 58.381 14.45C58.5623 15.3755 58.4347 16.3454 58.016 17.1876Z" fill="#511310"/>
<path d="M52.0931 11.0448C53.2011 11.1829 54.2666 11.6429 55.1273 12.3544C55.6304 12.7706 56.0953 13.3742 55.9732 14.0154C55.8333 14.7541 54.9435 15.1456 54.203 15.0149C53.4625 14.8842 52.8484 14.386 52.2701 13.9051C51.4328 13.2084 50.5948 12.5116 49.7575 11.8155C49.9456 12.3236 50.0825 12.7761 50.035 13.3156C49.9875 13.8551 49.6274 14.4082 49.0922 14.4921C48.7451 14.5463 48.3906 14.3946 48.1236 14.1665C47.856 13.9384 47.6606 13.6393 47.4688 13.3446C46.8072 12.3273 46.1456 11.3105 45.484 10.2932C45.6536 10.6718 45.206 11.0035 44.8379 11.194C44.4698 11.3845 44.011 11.3296 43.6405 11.1428C43.2699 10.956 42.9721 10.6539 42.6965 10.3444C41.4917 8.99406 40.5594 7.40206 39.9706 5.69106C38.92 7.36259 37.5709 8.97987 36.2391 10.4375C35.2008 11.5738 34.0188 12.675 32.5384 13.0961C31.9169 13.2731 31.2109 13.3113 30.6579 12.9771C30.2324 12.7206 29.9488 12.2681 29.8224 11.7878C29.696 11.3074 29.7151 10.7994 29.7934 10.3086C27.1483 11.5596 24.0623 12.5129 21.1385 12.6177C19.9621 12.6602 18.658 12.5548 17.8325 11.7156C16.9175 10.7864 16.9378 9.21664 17.5747 8.07906C18.2123 6.94147 19.3326 6.16027 20.4726 5.52766C21.9598 4.70269 23.5672 4.05466 25.2536 3.83701C26.9399 3.61936 28.715 3.85551 30.1911 4.6996C30.1634 4.68295 31.3238 3.75871 31.4317 3.68657C32.1321 3.22167 32.9472 2.89797 33.7333 2.60078C35.5683 1.90836 37.6739 1.34111 39.6506 1.42127C45.1178 1.64447 49.9431 6.30825 52.0931 11.0448Z" fill="#77211D"/>
<path d="M28.4535 29.0882C27.2173 29.0882 26.2154 28.0862 26.2154 26.85V25.2753C26.2154 24.039 27.2173 23.0371 28.4535 23.0371C29.6898 23.0371 30.6917 24.039 30.6917 25.2753V26.8494C30.6917 28.0862 29.6898 29.0882 28.4535 29.0882Z" fill="#671C16"/>
<path d="M45.6764 29.28C44.4402 29.28 43.4383 28.278 43.4383 27.0418V25.4671C43.4383 24.2308 44.4402 23.2289 45.6764 23.2289C46.9127 23.2289 47.9146 24.2308 47.9146 25.4671V27.0418C47.914 28.2774 46.9121 29.28 45.6764 29.28Z" fill="#671C16"/>
<path d="M49.3808 23.4779C49.3808 24.4786 48.5694 25.29 47.5687 25.29C46.568 25.29 45.7566 24.4786 45.7566 23.4779C45.7566 22.4772 46.568 21.6658 47.5687 21.6658C48.5694 21.6658 49.3808 22.4772 49.3808 23.4779Z" fill="white"/>
<path d="M28.0275 23.4779C28.0275 24.4786 27.2161 25.29 26.2154 25.29C25.2147 25.29 24.4033 24.4786 24.4033 23.4779C24.4033 22.4772 25.2147 21.6658 26.2154 21.6658C27.2161 21.6658 28.0275 22.4772 28.0275 23.4779Z" fill="white"/>
<path d="M39.8621 28.7071C39.8621 29.2806 39.5624 29.7855 39.1099 30.0747C39.2727 29.8219 39.3676 29.5223 39.3676 29.1967C39.3676 28.3027 38.6419 27.577 37.7479 27.577C37.4272 27.577 37.127 27.6719 36.8748 27.8347C37.1695 27.3877 37.6689 27.088 38.2423 27.088C39.1364 27.0874 39.8621 27.8131 39.8621 28.7071Z" fill="#671C16"/>
<path d="M41.1804 34.3994C40.6921 35.2823 40.0089 35.812 39.3134 36.1246C38.8584 36.3348 38.407 36.4427 37.9989 36.4982C37.0364 36.6326 36.0332 36.4224 35.244 35.8483C34.5201 35.3175 34.0922 34.625 33.8431 33.9283C33.6286 33.3265 33.5484 32.7143 33.5225 32.2099C33.504 31.75 33.9948 31.4423 34.39 31.6303C34.4159 31.6427 34.4486 31.6605 34.4745 31.679C36.762 33.2815 39.2949 33.509 40.6316 33.4992C40.8807 33.4992 41.0898 33.6404 41.1841 33.8364C41.2723 34.0066 41.284 34.2107 41.1804 34.3994Z" fill="#671C16"/>
<path d="M39.3132 36.1246C38.8582 36.3348 38.4069 36.4427 37.9987 36.4982C37.0362 36.6326 36.033 36.4224 35.2438 35.8483C34.52 35.3175 34.0921 34.6251 33.843 33.9283C34.3837 33.5812 35.0182 33.3728 35.7019 33.3543C37.4413 33.3087 38.9248 34.4974 39.3132 36.1246Z" fill="#F3406B"/>
<path d="M41.1846 33.8359C40.4996 34.5449 39.4693 35.0074 38.312 35.0376C36.1897 35.0937 34.4319 33.6885 34.3844 31.8986C34.3819 31.8092 34.3863 31.7192 34.39 31.6298C34.4159 31.6421 34.4485 31.66 34.4744 31.6785C36.7619 33.281 39.2948 33.5085 40.6316 33.4986C40.8813 33.4986 41.0897 33.6404 41.1846 33.8359Z" fill="white"/>
<path d="M21.2668 22.661C21.2668 22.661 23.0554 20.3624 25.2572 20.5536C25.687 20.5906 26.0711 20.2675 26.0964 19.8371C26.0976 19.818 26.0982 19.7983 26.0989 19.7785C26.1063 19.3105 25.6574 18.9671 25.195 19.0393C24.0389 19.2193 21.8211 19.9222 21.2668 22.661Z" fill="#4F110E"/>
<path d="M52.746 23.0643C52.746 23.0643 50.9574 20.7657 48.7556 20.9569C48.3258 20.9939 47.9417 20.6708 47.9164 20.2404C47.9152 20.2213 47.9145 20.2016 47.9145 20.1819C47.9072 19.7139 48.356 19.3704 48.8185 19.4426C49.9739 19.6226 52.1911 20.3255 52.746 23.0643Z" fill="#4F110E"/>
</svg>
