<svg width="72" height="94" viewBox="0 0 72 94" fill="none" xmlns="http://www.w3.org/2000/svg">
<path d="M69.5931 64.6761L63.6762 62.6449L59.6031 73.1583L53.9617 67.5624L49.7227 73.2088L58.4826 81.885C59.8771 83.2666 62.1354 83.2269 63.4815 81.7985C63.7815 81.4805 64.0021 81.1179 64.16 80.7357C64.3093 80.4985 64.4405 80.2483 64.5328 79.9714L69.5931 64.6761Z" fill="#FDCFA1"/>
<path d="M69.5909 64.6783L64.5314 79.9722C64.4434 80.2505 64.3071 80.5021 64.1579 80.7394C64.0014 81.1193 63.7844 81.4799 63.4859 81.7986C62.1346 83.2248 59.88 83.2659 58.4804 81.8865L49.7263 73.2074L51.0033 71.5094L57.9505 78.9389C59.2476 80.324 61.3393 80.2837 62.5824 78.8574C62.8607 78.538 63.0648 78.1717 63.214 77.791C63.3496 77.5531 63.4722 77.3022 63.5601 77.0303L67.5604 63.9774L69.5909 64.6783Z" fill="#FDB895"/>
<path d="M65.8791 67.1954C69.1469 67.1954 71.796 64.8494 71.796 61.9556C71.796 59.0618 69.1469 56.7158 65.8791 56.7158C62.6114 56.7158 59.9623 59.0618 59.9623 61.9556C59.9623 64.8494 62.6114 67.1954 65.8791 67.1954Z" fill="#FDCFA1"/>
<path d="M71.798 61.9549C71.798 64.8477 69.1496 67.1976 65.8826 67.1976C62.6091 67.1976 59.9607 64.8477 59.9607 61.9549C59.9607 61.5338 60.0148 61.1265 60.1237 60.7393C60.7416 63.048 63.085 64.7598 65.8826 64.7598C68.6737 64.7598 71.0171 63.048 71.635 60.7393C71.7432 61.1257 71.798 61.5338 71.798 61.9549Z" fill="#FDB895"/>
<path d="M2.20489 64.6761L8.12172 62.6449L12.1949 73.1583L17.8362 67.5624L22.0752 73.2088L13.3154 81.885C11.9209 83.2666 9.66258 83.2269 8.31641 81.7985C8.01645 81.4805 7.79581 81.1179 7.6379 80.7357C7.48937 80.4985 7.35743 80.2483 7.26585 79.9714L2.20489 64.6761Z" fill="#FDCFA1"/>
<path d="M2.20782 64.6783L7.26733 79.9722C7.3553 80.2505 7.49157 80.5021 7.64082 80.7394C7.79729 81.1193 8.01432 81.4799 8.31283 81.7986C9.66406 83.2248 11.9187 83.2659 13.3183 81.8865L22.0724 73.2074L20.7954 71.5094L13.8475 78.9389C12.5504 80.324 10.4586 80.2837 9.21629 78.8574C8.93796 78.538 8.73392 78.1717 8.58466 77.791C8.44911 77.5531 8.32653 77.3022 8.23857 77.0303L4.23825 63.9774L2.20782 64.6783Z" fill="#FDB895"/>
<path d="M5.91896 67.1954C9.18674 67.1954 11.8358 64.8494 11.8358 61.9556C11.8358 59.0618 9.18674 56.7158 5.91896 56.7158C2.65119 56.7158 0.00214005 59.0618 0.00214005 61.9556C0.00214005 64.8494 2.65119 67.1954 5.91896 67.1954Z" fill="#FDCFA1"/>
<path d="M-2.28882e-05 61.9549C-2.28882e-05 64.8477 2.64835 67.1976 5.91537 67.1976C9.18888 67.1976 11.8372 64.8477 11.8372 61.9549C11.8372 61.5338 11.7832 61.1265 11.6743 60.7393C11.0564 63.048 8.71299 64.7598 5.91537 64.7598C3.12424 64.7598 0.780859 63.048 0.16293 60.7393C0.0547744 61.1257 -2.28882e-05 61.5338 -2.28882e-05 61.9549Z" fill="#FDB895"/>
<path d="M29.1328 57.0829C29.1328 57.0829 21.3751 59.9721 15.7229 65.5356C15.7229 65.5356 18.5047 74.8968 24.7085 75.0735L31.7955 66.6842C31.7955 66.6842 32.0328 59.8459 29.1328 57.0829Z" fill="#A31854"/>
<path d="M42.6717 57.0829C42.6717 57.0829 50.4293 59.9721 56.0815 65.5356C56.0815 65.5356 53.2998 74.8968 47.096 75.0735L40.0089 66.6842C40.0089 66.6842 39.7709 59.8459 42.6717 57.0829Z" fill="#A31854"/>
<path d="M32.5022 53.5253C32.5022 53.5253 27.6741 53.7315 29.5582 59.0297C29.5582 59.0297 21.7868 76.4564 19.1962 89.5266C19.1962 89.5266 38.8603 98.4754 51.1064 91.0574C51.1064 91.0574 49.9289 70.3334 42.7459 58.4413C42.7459 58.4413 45.0417 54.0257 39.3015 53.6724L32.5022 53.5253Z" fill="#A31854"/>
<path d="M51.1049 91.0552C45.0266 94.7426 37.1147 94.39 30.6902 93.0994C55.6143 98.0637 42.9486 59.184 41.1828 59.3736C41.1078 59.3801 41.0335 59.3873 40.9585 59.3938C39.2879 59.4954 37.9092 58.7081 37.9092 58.7081C43.0099 58.3757 42.1266 55.5369 41.2916 54.0422C44.4361 55.1901 42.7452 58.4427 42.7452 58.4427C49.9297 70.3348 51.1049 91.0552 51.1049 91.0552Z" fill="#8C0E4B"/>
<path d="M39.3015 48.9358V53.9203C39.3015 55.8015 37.7802 57.3229 35.899 57.3229C34.0243 57.3229 32.5036 55.8015 32.5036 53.9203V48.9358H39.3015Z" fill="#FDCFA1"/>
<path d="M39.3015 48.9358V51.9714C37.1146 52.1682 34.914 52.0254 32.7617 51.5438C32.6803 51.5236 32.5923 51.5027 32.5036 51.4825V48.9358H39.3015Z" fill="#FDB895"/>
<path d="M60.4654 29.3597C60.1828 29.049 57.0124 30.2899 55.8537 30.4874C56.1572 24.4185 56.1702 14.5165 56.1702 14.5165H60.9391C60.9391 14.5165 62.8109 19.8572 60.4654 29.3597Z" fill="#FDB37B"/>
<path d="M13.412 31.8494C13.6946 31.5386 16.865 32.7788 18.0237 32.9771C17.7202 26.9081 17.7072 17.0061 17.7072 17.0061H12.9383C12.9383 17.0061 11.0665 22.3475 13.412 31.8494Z" fill="#FDB37B"/>
<path d="M65.6252 36.6595C64.6359 38.2487 62.9602 39.8616 60.1712 40.3296C58.4025 40.6259 56.1738 40.4543 53.3848 39.5191L52.9407 32.9663C52.9407 32.9663 56.4781 29.359 60.257 28.7201C61.5347 28.5017 62.8513 28.6192 64.0591 29.3438C64.4801 29.5933 64.8464 29.8969 65.1579 30.2401C66.7082 31.9302 66.9108 34.5952 65.6252 36.6595Z" fill="#FDCFA1"/>
<path d="M63.01 36.0394C62.4057 37.0106 61.3869 37.9956 59.6824 38.2804C59.6211 38.2941 59.5598 38.3006 59.4992 38.3006C58.4537 38.4433 57.1429 38.3208 55.54 37.7843L55.2682 33.7775C55.2682 33.7775 56.5112 32.5143 58.1134 31.7334C58.6297 31.4825 59.1798 31.2849 59.7365 31.1904C60.5108 31.0549 61.3191 31.1291 62.0524 31.5704C62.3105 31.7197 62.5348 31.9035 62.7244 32.1141C63.6755 33.1459 63.7973 34.7761 63.01 36.0394Z" fill="#FDB895"/>
<path d="M61.2578 36.6025C60.8706 37.2277 60.3068 37.8586 59.4992 38.3006C58.4537 38.4433 57.1429 38.3208 55.54 37.7843L55.2682 33.7775C55.2682 33.7775 56.5112 32.5143 58.1134 31.7334C58.8539 31.6245 59.6074 31.7197 60.3003 32.1343C60.5584 32.2835 60.7827 32.4739 60.9723 32.6844C61.9161 33.7162 62.0452 35.3393 61.2578 36.6025Z" fill="#FDA67C"/>
<path d="M57.7565 38.2191H54.4087V35.8418H57.7565C58.4126 35.8418 58.9447 36.3739 58.9447 37.0301C58.9455 37.6869 58.4133 38.2191 57.7565 38.2191Z" fill="#FDCFA1"/>
<path d="M6.17855 36.6595C7.16781 38.2487 8.84351 39.8616 11.6325 40.3296C13.4012 40.6259 15.6299 40.4543 18.4189 39.5191L18.863 32.9663C18.863 32.9663 15.3256 29.359 11.5467 28.7201C10.269 28.5017 8.95237 28.6192 7.74464 29.3438C7.32355 29.5933 6.958 29.8969 6.64579 30.2401C5.09556 31.9302 4.89294 34.5952 6.17855 36.6595Z" fill="#FDCFA1"/>
<path d="M8.79447 36.0394C9.3987 37.0106 10.4175 37.9956 12.1221 38.2804C12.1833 38.2941 12.2439 38.3006 12.3052 38.3006C13.3514 38.4433 14.6615 38.3208 16.2644 37.7843L16.5362 33.7775C16.5362 33.7775 15.2932 32.5143 13.6903 31.7334C13.174 31.4825 12.6239 31.2849 12.0673 31.1904C11.2929 31.0549 10.4846 31.1291 9.75128 31.5704C9.49315 31.7197 9.26891 31.9035 9.07856 32.1141C8.12895 33.1459 8.00638 34.7761 8.79447 36.0394Z" fill="#FDB895"/>
<path d="M10.5466 36.6025C10.9338 37.2277 11.4976 37.8586 12.3052 38.3006C13.3514 38.4433 14.6615 38.3208 16.2644 37.7843L16.5362 33.7775C16.5362 33.7775 15.2932 32.5143 13.6903 31.7334C12.9498 31.6245 12.1963 31.7197 11.5034 32.1343C11.2453 32.2835 11.021 32.4739 10.8314 32.6844C9.88756 33.7162 9.75849 35.3393 10.5466 36.6025Z" fill="#FDA67C"/>
<path d="M14.0472 38.2191H17.395V35.8418H14.0472C13.3911 35.8418 12.8589 36.3739 12.8589 37.0301C12.8589 37.6869 13.3911 38.2191 14.0472 38.2191Z" fill="#FDCFA1"/>
<path d="M56.0209 27.9817C55.8724 30.8219 55.6251 33.365 55.2155 34.7285C55.2155 34.7285 55.9503 36.3111 55.9431 38.5081C55.9286 42.2806 53.7179 47.8622 41.7776 50.3346C38.8033 50.9489 35.7302 50.9352 32.7624 50.2711C27.1247 49.0064 18.1802 45.8764 17.3041 38.6214C17.1275 37.2298 17.2544 35.6824 17.7634 33.9728C17.7634 33.9728 17.5587 31.6129 17.4599 28.4201C17.3258 23.962 17.3964 17.8793 18.527 14.3469L56.1688 14.5164C56.1688 14.5164 56.3252 21.9128 56.0209 27.9817Z" fill="#FDCFA1"/>
<path d="M45.8853 20.7181C45.8853 20.7181 50.6053 26.1006 57.3635 25.6485C60.0148 25.4711 62.1685 23.4378 62.6091 20.8176C63.93 12.9597 64.0728 -4.1779 38.3714 1.41951C38.3714 1.41951 9.82918 -7.85014 11.0203 20.9863C11.1429 23.9519 13.8273 26.2124 16.7504 25.6975C19.1082 25.2822 21.8121 23.8265 23.924 19.9386C23.924 19.9386 23.8375 20.5753 23.9774 21.3511C24.3703 23.5301 27.0007 24.3139 28.5761 22.7579C29.2323 22.1104 29.9468 21.1233 30.5943 19.6192C30.5943 19.6192 30.3895 20.6214 30.9837 21.6273C31.5749 22.6274 32.8887 22.8869 33.8628 22.2531C35.0467 21.4831 36.571 19.8528 36.9567 16.4812C36.9567 16.4812 37.5848 22.0109 43.2478 23.1364C44.3979 23.365 45.5472 22.6634 45.8053 21.5199C45.8616 21.2761 45.8918 21.0094 45.8853 20.7181Z" fill="#671C16"/>
<path d="M63.0439 16.6838C62.9826 18.2052 62.8131 19.6242 62.6091 20.8197C62.1678 23.4341 60.0148 25.4718 57.3664 25.6484C50.6024 26.1034 45.8825 20.718 45.8825 20.718C45.889 21.01 45.8623 21.2746 45.8075 21.5198C45.5494 22.6605 44.4015 23.3671 43.2471 23.1364C37.5833 22.0094 36.9582 16.4812 36.9582 16.4812C36.571 19.8564 35.0496 21.4866 33.8613 22.2538C32.8901 22.8854 31.5728 22.6273 30.9815 21.6294C30.391 20.6243 30.5943 19.6191 30.5943 19.6191C29.949 21.1268 29.2294 22.1118 28.5776 22.7571C27.0021 24.3124 24.3667 23.5315 23.9795 21.3511C23.8368 20.5767 23.9255 19.9386 23.9255 19.9386C21.8135 23.83 19.1104 25.2836 16.7468 25.6975C13.8266 26.2137 11.1436 23.9518 11.0218 20.9841C10.9879 20.1758 10.9807 19.3949 10.9944 18.6479C11.9519 20.5565 14.0509 21.7649 16.2983 21.3713C18.7023 20.9437 21.4667 19.4562 23.619 15.4898C23.619 15.4898 23.531 16.1416 23.6731 16.9297C24.074 19.157 26.7563 19.9587 28.3656 18.3696C29.0376 17.7106 29.7644 16.6989 30.4234 15.1639C30.4234 15.1639 30.2194 16.1892 30.8243 17.2152C31.4286 18.234 32.7668 18.4986 33.7647 17.8533C34.9739 17.0652 36.5285 15.4018 36.9229 11.9653C36.9229 11.9653 37.561 17.6089 43.3408 18.7568C44.5154 18.9875 45.6907 18.2744 45.9553 17.1063C46.0094 16.8554 46.0368 16.5836 46.0303 16.2843C46.0303 16.2843 50.8519 21.7786 57.745 21.3165C60.3544 21.1456 62.4872 19.2168 63.0439 16.6838Z" fill="#511310"/>
<path d="M37.3122 8.07901C37.292 6.41485 35.6416 10.9696 34.5016 12.1817C34.193 12.5098 33.8476 12.8386 33.4107 12.9489C32.9665 13.0606 32.4668 12.9121 32.1561 12.5761C31.8453 12.2401 31.7364 11.7296 31.8828 11.2963C31.3334 12.3641 30.3088 13.1501 29.207 13.6274C28.6879 13.8523 28.1183 13.993 27.5558 13.9302C26.9934 13.8675 26.439 13.5784 26.1448 13.0945C25.8506 12.6107 25.8693 11.9293 26.2587 11.5184C24.415 13.561 22.0853 14.962 19.4276 15.6737C18.6445 15.8835 17.8175 16.0263 17.0258 15.8525C16.2594 15.6845 15.5643 15.2122 15.1259 14.5626C14.6868 13.9129 14.5087 13.0917 14.6385 12.318C14.6385 12.318 17.8276 -3.67029 37.8559 3.00579C37.8559 3.00579 58.2763 -3.08481 60.0674 12.6273C60.3371 14.9952 58.807 17.2578 56.4615 17.6789C53.9804 18.1245 50.0623 17.4482 44.1346 13.2582C44.1346 13.2582 44.2291 13.6505 44.1592 14.1696C43.9695 15.5807 42.4078 16.3623 41.1207 15.7537C39.5705 15.0233 37.3728 13.1003 37.3122 8.07901Z" fill="#77211D"/>
<path d="M46.8601 35.0472C45.4418 35.0472 44.2918 33.8972 44.2918 32.4789V30.9034C44.2918 29.4851 45.4418 28.3358 46.8601 28.3358C48.2784 28.3358 49.4277 29.4851 49.4277 30.9034V32.4789C49.4285 33.8979 48.2784 35.0472 46.8601 35.0472Z" fill="#671C16"/>
<path d="M51.1038 29.5766C51.5695 28.4523 51.0356 27.1633 49.9113 26.6976C48.7869 26.2318 47.4979 26.7657 47.0322 27.8901C46.5664 29.0144 47.1004 30.3035 48.2247 30.7692C49.349 31.2349 50.6381 30.701 51.1038 29.5766Z" fill="white"/>
<path d="M26.6192 35.0472C28.0375 35.0472 29.1875 33.8972 29.1875 32.4789V30.9034C29.1875 29.4851 28.0375 28.3358 26.6192 28.3358C25.2009 28.3358 24.0516 29.4851 24.0516 30.9034V32.4789C24.0516 33.8979 25.2016 35.0472 26.6192 35.0472Z" fill="#671C16"/>
<path d="M25.2628 30.7709C26.3871 30.3052 26.921 29.0162 26.4553 27.8919C25.9896 26.7675 24.7006 26.2336 23.5762 26.6993C22.4519 27.1651 21.918 28.4541 22.3837 29.5784C22.8494 30.7028 24.1384 31.2367 25.2628 30.7709Z" fill="white"/>
<path d="M48.5228 24.2216C49.8633 23.9209 52.4453 23.6945 53.9472 25.8605C53.9472 25.8605 53.5845 21.8825 48.2042 22.5841C47.9049 22.623 47.6331 22.8206 47.5336 23.1054C47.5285 23.1205 47.5235 23.1357 47.5184 23.1515C47.3252 23.7723 47.8891 24.3643 48.5228 24.2216Z" fill="#4F110E"/>
<path d="M24.9572 24.2216C23.6168 23.9209 21.0348 23.6945 19.5329 25.8605C19.5329 25.8605 19.8956 21.8825 25.2759 22.5841C25.5752 22.623 25.847 22.8206 25.9465 23.1054C25.9515 23.1205 25.9566 23.1357 25.9617 23.1515C26.1549 23.7723 25.591 24.3643 24.9572 24.2216Z" fill="#4F110E"/>
<path d="M38.4053 33.5741C38.4053 33.6281 38.4053 33.6829 38.3916 33.737C38.0455 33.0715 37.3453 32.6165 36.5378 32.6165C35.4375 32.6165 34.534 33.4652 34.4461 34.5381C34.2896 34.2461 34.2081 33.9202 34.2081 33.5741C34.2081 32.4125 35.1455 31.4686 36.3063 31.4686C37.4679 31.4686 38.4053 32.4125 38.4053 33.5741Z" fill="#4F110E"/>
<path d="M42.7445 38.6127C42.7445 40.0663 42.208 41.3764 41.3046 42.3816C41.2368 42.463 41.1618 42.5445 41.0876 42.6195C40.0622 43.6448 38.6497 44.2764 37.0872 44.2764H36.3539C34.4663 44.2764 32.7949 43.3528 31.7631 41.9331C31.0839 41.0029 30.6902 39.8551 30.6902 38.612C30.6902 38.3135 30.7717 38.0344 30.9144 37.8037C30.9822 37.6883 31.0637 37.5867 31.1589 37.4915C31.4444 37.206 31.8446 37.03 32.2794 37.03H41.1625C41.7401 37.03 42.2491 37.3422 42.521 37.8044C42.663 38.0359 42.7445 38.3142 42.7445 38.6127Z" fill="#4F110E"/>
<path d="M42.5202 37.8044C41.3796 39.0403 39.2128 39.876 36.7202 39.876C34.2276 39.876 32.0616 39.0403 30.9137 37.8044C30.9815 37.6891 31.063 37.5874 31.1581 37.4922C31.4437 37.2067 31.8438 37.0308 32.2786 37.0308H41.1618C41.7394 37.0308 42.2491 37.343 42.5202 37.8044Z" fill="white"/>
<path d="M41.3046 42.3822C41.2368 42.4637 41.1618 42.5452 41.0876 42.6202C40.0622 43.6455 38.6497 44.2771 37.0872 44.2771H36.3539C34.4663 44.2771 32.7949 43.3535 31.7631 41.9338C32.8497 41.0375 34.48 40.46 36.3064 40.46C38.4118 40.46 40.2656 41.2271 41.3046 42.3822Z" fill="#F3406B"/>
<path d="M28.4809 37.0308C28.4809 37.9443 26.7973 38.6848 24.72 38.6848C22.6427 38.6848 20.9591 37.9443 20.9591 37.0308C20.9591 36.1172 22.6427 35.3767 24.72 35.3767C26.7973 35.3767 28.4809 36.1172 28.4809 37.0308Z" fill="#F2635A"/>
<path d="M52.4806 37.4547C52.4806 38.3683 50.797 39.1088 48.7197 39.1088C46.6424 39.1088 44.9588 38.3683 44.9588 37.4547C44.9588 36.5412 46.6424 35.8007 48.7197 35.8007C50.7963 35.8007 52.4806 36.5412 52.4806 37.4547Z" fill="#F2635A"/>
</svg>
