<svg width="46" height="47" viewBox="0 0 46 47" fill="none" xmlns="http://www.w3.org/2000/svg">
<g filter="url(#filter0_d_1_485)">
<path d="M22.6551 38.2925C23.5266 38.2473 24.6567 38.115 24.4363 37.7536C24.3251 37.5701 24.1797 37.4165 24.0155 37.2773C20.764 36.8627 17.6162 35.6448 15.2618 33.6557C15.2242 32.6633 14.4428 31.6756 13.5923 31.2557C12.8555 30.8903 11.6054 30.9815 11.3964 31.9531C11.1601 33.0697 12.2446 33.9403 13.1084 34.4131C13.8541 34.8207 14.7937 34.9504 15.0353 34.1866C16.7808 35.9584 19.6197 37.4714 22.6551 38.2925Z" fill="black"/>
<path d="M13.1356 33.9977C12.3844 33.6418 11.4509 32.842 11.8124 31.9103C12.1622 31.0015 13.4668 31.5013 13.9605 31.9271C14.3364 32.2516 14.5615 32.7639 14.76 33.2646C14.724 33.2949 14.6953 33.3369 14.6749 33.3992C14.6027 33.6295 14.5576 33.8628 14.4725 34.0834C14.2868 34.5579 13.3855 34.1168 13.1356 33.9977Z" fill="#434345"/>
<path d="M25.5585 36.4697C25.8334 35.2042 25.6503 33.7669 25.6172 32.4829C25.5748 30.952 25.4947 29.4237 25.4018 27.8955C25.4021 27.8897 25.3991 27.8872 25.3972 27.8817C25.4638 27.8342 25.4911 27.764 25.4089 27.6906C25.3896 27.6765 25.3716 27.6602 25.3555 27.6457C25.2935 27.5876 25.1722 27.5873 25.1036 27.624C24.2572 28.0875 24.6706 30.1617 24.713 30.8879C24.7756 32.0155 24.7938 33.1494 24.8041 34.2802C24.5627 35.3375 24.8338 36.9509 23.618 37.2753C23.5516 37.2954 23.4966 37.3304 23.459 37.3724C23.4333 37.359 23.4081 37.3475 23.3795 37.3317C23.1851 37.2165 22.7325 37.4998 22.9839 37.6754C23.1095 37.7634 23.2382 37.8214 23.3681 37.8571C23.3627 37.9037 23.3816 37.9517 23.4173 37.9849C22.9056 37.974 22.3457 37.7848 21.8623 37.5428C21.6983 37.4636 21.3123 37.6662 21.5242 37.8344C22.2289 38.3991 23.0783 38.5746 23.9597 38.3995C24.9563 38.2006 25.3618 37.3854 25.5585 36.4697Z" fill="black"/>
<path d="M19.2 17.5732C18.1711 16.791 17.2917 15.8127 16.2188 15.0888C15.9974 14.9409 15.7761 14.7954 15.5511 14.6537C15.479 14.6002 15.4076 14.5493 15.331 14.5036C15.114 14.3353 14.8886 14.1918 14.654 14.1142C14.4585 14.0139 14.234 13.9317 14.0372 13.9863C13.7513 14.0658 13.5528 14.2106 13.384 14.4503C12.5578 15.1588 10.3282 17.3944 9.87378 18.3317C9.84293 18.3428 9.81515 18.3601 9.80516 18.3876C9.71407 18.6263 9.70849 19.021 10.0863 18.8582C10.29 18.7735 10.4657 18.5193 10.6149 18.3713C10.939 18.0486 11.2197 17.6549 11.5033 17.2984C12.0938 16.5619 12.7318 15.9099 13.3775 15.2253C13.5812 15.0072 13.8211 14.7278 14.1116 14.6058C14.2326 14.5912 14.3555 14.594 14.4793 14.6106C14.5007 14.6185 14.5251 14.6237 14.5477 14.6346C14.8346 14.7268 15.0798 14.9284 15.3136 15.1101C15.6612 15.3834 16.0069 15.6482 16.3667 15.9055C17.0374 16.3906 17.7 16.9229 18.3822 17.4034C18.5136 17.5223 18.6415 17.6383 18.7645 17.7642C18.8172 17.8153 18.9109 17.8057 18.9777 17.7657C19.1103 17.803 19.3446 17.6834 19.2 17.5732Z" fill="black"/>
<path d="M9.76498 17.9169C9.52748 17.7161 9.24591 17.5453 9.06683 17.4345C8.74693 17.2365 8.42757 16.9721 8.06209 16.8582C7.34726 16.6344 6.9027 17.1914 7.02491 17.8999C7.15188 18.6298 8.15867 19.1577 8.79586 19.3144C9.16766 19.4045 9.71327 19.1616 9.98859 18.8952C10.3828 18.5115 10.1316 18.2316 9.76498 17.9169Z" fill="black"/>
<path d="M8.60187 18.9431C7.87826 18.7795 7.02372 18.0238 7.49735 17.2509C7.83581 16.6942 9.45575 17.9518 9.95319 18.3724C9.91153 18.9515 9.06108 19.0474 8.60187 18.9431Z" fill="#4B4D4D"/>
<path d="M21.7784 12.5877C20.9653 11.5818 20.3445 10.4238 19.4743 9.46423C19.2944 9.2677 19.114 9.07316 18.9299 8.88242C18.8738 8.81149 18.8147 8.74325 18.7521 8.67969C18.5811 8.46759 18.3991 8.27583 18.1874 8.14323C18.0209 8.00041 17.8216 7.86683 17.6204 7.87143C17.3225 7.88029 17.0953 7.9736 16.8749 8.16795C15.9027 8.65817 13.2038 10.2974 12.5405 11.0985C12.5073 11.1009 12.4743 11.113 12.4594 11.1362C12.317 11.3482 12.2149 11.7279 12.6205 11.662C12.8375 11.625 13.0705 11.4216 13.2501 11.3134C13.642 11.0787 14.0081 10.7654 14.3684 10.4866C15.1183 9.91032 15.894 9.43046 16.6821 8.9177C16.9344 8.7566 17.2337 8.54111 17.5454 8.49283C17.6662 8.50698 17.7844 8.53966 17.8988 8.58276C17.9195 8.59694 17.9418 8.60834 17.9619 8.62364C18.2163 8.78237 18.4088 9.03802 18.5896 9.2691C18.8631 9.61816 19.1371 9.95719 19.4229 10.2926C19.959 10.926 20.4758 11.5993 21.0249 12.2282C21.122 12.3732 21.2189 12.5211 21.3097 12.6706C21.3481 12.735 21.4419 12.7469 21.515 12.7231C21.6346 12.7893 21.8924 12.7291 21.7784 12.5877Z" fill="black"/>
<path d="M12.5327 10.6716C12.3507 10.4183 12.1171 10.1864 11.9683 10.0346C11.7041 9.76569 11.4606 9.43539 11.1313 9.23565C10.4898 8.84523 9.92585 9.28289 9.87617 10.0004C9.82608 10.7392 10.6746 11.4899 11.2586 11.7952C11.5978 11.9725 12.1852 11.8678 12.5163 11.6729C12.9919 11.3947 12.8138 11.0614 12.5327 10.6716Z" fill="black"/>
<path d="M11.1591 11.3887C10.4961 11.0585 9.84595 10.1208 10.4906 9.48297C10.9529 9.02368 12.2258 10.6308 12.6071 11.1562C12.4313 11.7098 11.5811 11.5998 11.1591 11.3887Z" fill="#4B4D4D"/>
<path d="M30.2663 22.4181C27.0638 27.1552 21.6126 29.0668 18.0862 26.6847C14.564 24.3029 14.3041 18.5309 17.5069 13.7932C20.7098 9.05559 26.1611 7.14627 29.6839 9.52696C33.209 11.9089 33.4701 17.6802 30.2663 22.4181Z" fill="black"/>
<path d="M30.0209 22.7804C26.9552 27.3178 21.6127 29.0669 18.0865 26.6843C14.5643 24.3025 14.1952 18.6926 17.2627 14.1561C20.3302 9.61825 25.6714 7.87138 29.1937 10.2518C32.7172 12.6351 33.0873 18.2433 30.0209 22.7804Z" fill="#4B4D4D"/>
<path d="M29.3563 22.367C29.3268 22.4359 29.3334 22.5324 29.3927 22.5747C29.5378 22.6763 29.6752 22.7823 29.8139 22.8898C30.4049 23.4808 31.0391 24.0418 31.6344 24.6203C31.9504 24.9303 32.2699 25.2266 32.5986 25.5223C32.8178 25.7215 33.0589 25.9289 33.1988 26.1949C33.2116 26.2149 33.2221 26.2366 33.2354 26.2598C33.2703 26.3777 33.2953 26.4974 33.3001 26.6187C33.2301 26.9273 32.997 27.2092 32.8158 27.4499C32.2489 28.2008 31.7201 28.9447 31.0944 29.6498C30.7895 29.9917 30.4501 30.3345 30.1908 30.7079C30.0691 30.8815 29.8493 31.0991 29.7977 31.3131C29.705 31.7123 30.0912 31.6389 30.3113 31.5118C30.3355 31.4969 30.3486 31.4652 30.3539 31.4304C31.1998 30.8251 33.023 28.2461 33.5788 27.3117C33.7845 27.1029 33.8964 26.8822 33.9238 26.5883C33.9441 26.3851 33.8251 26.1779 33.6942 26.003C33.5756 25.7848 33.3968 25.5875 33.1958 25.4018C33.1375 25.3371 33.0725 25.2713 33.008 25.2111C32.8295 25.0132 32.6487 24.8207 32.4648 24.6271C31.5678 23.6935 30.454 22.9941 29.5074 22.1141C29.3751 21.9918 29.2971 22.241 29.3563 22.367Z" fill="black"/>
<path d="M30.7824 31.4712C31.0219 31.6688 31.2395 31.9182 31.377 32.0753C31.6286 32.357 31.9413 32.6264 32.1181 32.9671C32.4608 33.634 31.9875 34.1662 31.2674 34.1647C30.5265 34.1645 29.8362 33.2643 29.5723 32.6636C29.418 32.3123 29.5644 31.7328 29.7821 31.4161C30.0912 30.964 30.4103 31.1623 30.7824 31.4712Z" fill="black"/>
<path d="M30.3022 31.3622C30.7975 31.7801 32.3149 33.1601 31.826 33.5885C31.1445 34.1901 30.2547 33.4749 29.9692 32.7913C29.7876 32.3537 29.7375 31.5009 30.3022 31.3622Z" fill="#4B4D4D"/>
<path d="M32.4725 18.0951C32.4782 18.1725 32.5255 18.2561 32.5965 18.2667C32.7724 18.2957 32.9423 18.33 33.1135 18.3659C33.9001 18.6399 34.7193 18.8676 35.5068 19.1311C35.9256 19.2707 36.3423 19.3986 36.7659 19.5224C37.0507 19.6053 37.3572 19.6867 37.6015 19.8655C37.6209 19.8767 37.6418 19.8932 37.6611 19.9073C37.745 19.998 37.8189 20.0948 37.8771 20.2018C37.9493 20.508 37.8622 20.8667 37.8034 21.1611C37.621 22.0842 37.4667 22.9829 37.2112 23.8913C37.089 24.3313 36.9326 24.7871 36.8618 25.2383C36.8258 25.4457 36.7251 25.7381 36.7738 25.9529C36.861 26.3538 37.1779 26.1181 37.3186 25.9089C37.3348 25.8834 37.3343 25.8497 37.3244 25.8181C37.8209 24.9029 38.3371 21.7885 38.4292 20.7035C38.5239 20.424 38.5264 20.1772 38.4265 19.9009C38.3536 19.7114 38.1568 19.5762 37.9619 19.4748C37.7615 19.3303 37.5144 19.2321 37.2513 19.1513C37.1708 19.1174 37.0863 19.0894 36.9983 19.0608C36.754 18.9628 36.5056 18.8668 36.2573 18.7745C35.0415 18.3238 33.7365 18.1802 32.4976 17.8013C32.3266 17.7485 32.3644 18.009 32.4725 18.0951Z" fill="black"/>
<path d="M37.7265 25.6673C38.0291 25.7426 38.3295 25.8717 38.5237 25.9512C38.8723 26.0969 39.2715 26.1999 39.5797 26.4311C40.1788 26.8823 39.9855 27.5687 39.3373 27.8814C38.6706 28.2034 37.6556 27.696 37.1558 27.2681C36.8649 27.0171 36.7441 26.4346 36.8011 26.0548C36.8826 25.5105 37.2569 25.554 37.7265 25.6673Z" fill="black"/>
<path d="M37.2448 25.7775C37.8778 25.9377 39.842 26.5182 39.5891 27.1192C39.2371 27.9548 38.1251 27.7003 37.5702 27.2073C37.2182 26.8966 36.7974 26.1483 37.2448 25.7775Z" fill="#4B4D4D"/>
<path d="M24.5589 17.6543C25.631 16.0606 26.7035 14.4635 27.7762 12.8686C28.3251 12.0488 28.8713 11.2246 29.4163 10.404C29.7809 9.85715 30.2044 9.40214 30.3786 8.76916C30.3854 8.74715 30.3821 8.73113 30.3742 8.71916C30.4142 8.65486 30.4085 8.58782 30.2975 8.54896C25.2947 6.78094 18.7156 7.27445 15.2439 12.0799C13.6982 14.2182 13.3636 16.9809 13.7804 19.4779C14.2778 22.4667 16.1266 24.7012 18.4236 26.4661C18.566 26.575 18.8694 26.4308 18.8543 26.2887C20.9108 23.5443 22.6445 20.503 24.5589 17.6543Z" fill="black"/>
<path d="M15.0694 13.1329C17.7926 7.58182 25.0959 7.20712 30.018 8.85959C30.0397 8.86693 30.0648 8.87103 30.0916 8.86947C29.8393 9.40404 29.4219 9.85883 29.084 10.344C28.5199 11.1632 27.9577 11.979 27.4006 12.8015C26.3157 14.3944 25.2327 15.9877 24.1494 17.5831C22.2736 20.343 20.195 23.1013 18.5859 26.0307C14.7253 23.0171 12.6958 17.9691 15.0694 13.1329Z" fill="#EB2028"/>
<path d="M24.1495 17.5832C25.2328 15.9879 26.3163 14.3948 27.4007 12.8016C27.9578 11.9791 28.52 11.1633 29.0841 10.3441C29.422 9.85894 29.8394 9.40415 30.0917 8.86958C30.0651 8.87201 30.0399 8.86704 30.0182 8.8597C29.4682 8.67633 28.8909 8.51862 28.2926 8.38955C26.8809 10.4585 25.4461 12.5074 23.9544 14.5199C23.0806 15.6997 22.2264 16.9367 21.2446 18.0327C20.5753 18.7838 19.7242 19.5084 18.7179 19.7395C17.7101 19.9705 16.5126 19.7883 15.7486 19.0389C14.9206 18.2244 14.65 17.1671 14.6454 16.0366C14.6394 14.7364 15.0193 13.4893 15.545 12.3145C15.5673 12.2681 15.5903 12.2258 15.6123 12.18C15.4157 12.4807 15.2338 12.7958 15.0695 13.133C12.6954 17.9689 14.7249 23.0169 18.5857 26.0314C20.1951 23.1014 22.2741 20.3425 24.1495 17.5832Z" fill="#C22127"/>
<path d="M19.7167 16.3599C19.0444 17.3537 17.6925 17.6173 16.6976 16.9443C15.7016 16.2707 15.4414 14.9193 16.113 13.9229C16.787 12.9263 18.1387 12.6656 19.1336 13.3386C20.1291 14.0104 20.3904 15.3624 19.7167 16.3599Z" fill="#221F1F"/>
<path d="M23.5755 10.4234C23.2578 10.8928 22.6236 11.0172 22.1559 10.699C21.6867 10.3836 21.5625 9.74655 21.8807 9.27746C22.1953 8.80844 22.8325 8.68655 23.3008 9.0036C23.7705 9.32074 23.8914 9.95591 23.5755 10.4234Z" fill="#221F1F"/>
<path d="M25.2017 14.5552C24.7812 15.1809 23.931 15.3443 23.3071 14.9233C22.6833 14.4995 22.5178 13.6503 22.9406 13.0259C23.3619 12.4015 24.2114 12.2391 24.8348 12.6598C25.4604 13.0817 25.6256 13.9315 25.2017 14.5552Z" fill="#221F1F"/>
<path opacity="0.7" d="M24.7575 8.9072C22.6569 8.91337 20.6503 9.3228 18.9579 10.628C17.358 11.8576 15.447 14.3756 15.6066 16.4929C15.6344 16.8336 16.198 16.6647 16.3082 16.4816C16.7429 15.7581 16.9493 14.9296 17.3107 14.169C17.7546 13.2345 18.4552 12.4126 19.1129 11.6237C20.5055 9.95352 22.6383 9.36795 24.72 9.14933C24.8953 9.13196 24.9816 8.90541 24.7575 8.9072Z" fill="white"/>
<path opacity="0.7" d="M16.2189 18.3048C16.2078 18.2561 16.1855 18.2099 16.1602 18.1678C16.1715 18.2033 16.176 18.2059 16.1689 18.1707C16.1794 18.2308 16.1711 18.1438 16.1733 18.131C16.2423 17.5172 15.4287 17.5455 15.362 18.1398C15.3544 18.2235 15.3483 18.3112 15.3748 18.3909C15.4224 18.5511 15.5379 18.6192 15.6948 18.6646C15.8942 18.7234 16.2755 18.5597 16.2189 18.3048Z" fill="white"/>
<path d="M19.1919 26.5162C19.0539 26.5551 19.0339 26.8925 19.1883 26.9832C21.684 28.4567 24.4437 29.3393 27.4019 28.6872C29.8758 28.1422 32.3141 26.8016 33.7226 24.5699C36.8867 19.558 34.8912 13.2678 31.3875 9.28421C31.3109 9.19623 31.2447 9.21584 31.2013 9.27821C31.1866 9.27416 31.1697 9.27775 31.1498 9.2892C30.6296 9.68837 30.3649 10.2521 29.9945 10.7934C29.4335 11.6047 28.8723 12.4189 28.3187 13.2352C27.2392 14.8239 26.1573 16.4156 25.0775 18.0048C23.1468 20.8419 20.9729 23.5867 19.1919 26.5162Z" fill="black"/>
<path d="M19.5313 26.6699C21.649 24.0852 23.4345 21.1273 25.2962 18.3571C26.3726 16.7585 27.4461 15.1597 28.5208 13.5587C29.0743 12.7348 29.625 11.9094 30.171 11.0791C30.4994 10.5861 30.7647 10.0302 31.1666 9.59605C31.1748 9.62156 31.1859 9.6435 31.2026 9.66204C34.5719 13.6125 36.9472 20.531 32.8125 25.1256C29.2083 29.1299 23.7679 29.1285 19.5313 26.6699Z" fill="#EB2028"/>
<path d="M25.2965 18.3566C26.3729 16.758 27.4464 15.1592 28.5212 13.5582C29.0746 12.7343 29.6253 11.9089 30.1714 11.0786C30.4997 10.5857 30.765 10.0297 31.1669 9.59556C31.1751 9.62107 31.1862 9.64301 31.2029 9.66155C31.578 10.1027 31.9401 10.5807 32.2837 11.0881C30.8904 13.1676 29.5225 15.2634 28.2114 17.3971C27.4419 18.649 26.6128 19.9028 25.9624 21.2219C25.5147 22.1231 25.1587 23.1825 25.3194 24.203C25.482 25.2253 26.0953 26.2679 27.0765 26.6965C28.1408 27.162 29.2221 27.0179 30.2746 26.6015C31.4819 26.1225 32.4982 25.3043 33.3896 24.3777C33.4263 24.3411 33.4584 24.3034 33.4903 24.2662C33.2872 24.5602 33.0624 24.8469 32.8119 25.1254C29.2083 29.13 23.7679 29.1286 19.5313 26.67C21.6489 24.0853 23.4345 21.1274 25.2965 18.3566Z" fill="#C22127"/>
<path d="M28.0849 22.0145C27.4127 23.0107 27.6717 24.3614 28.6686 25.0348C29.6621 25.7076 31.0159 25.4459 31.6877 24.4503C32.3625 23.455 32.0998 22.1029 31.1046 21.429C30.1091 20.7572 28.7585 21.0185 28.0849 22.0145Z" fill="#221F1F"/>
<path d="M32.1539 16.2224C31.8356 16.6914 31.9582 17.3261 32.4276 17.6438C32.8948 17.9602 33.5329 17.8381 33.8512 17.369C34.1665 16.9012 34.0435 16.2633 33.5751 15.9477C33.1054 15.6306 32.4695 15.754 32.1539 16.2224Z" fill="#221F1F"/>
<path d="M27.7125 16.2524C27.2901 16.8762 27.455 17.7265 28.0786 18.1481C28.7052 18.5721 29.5541 18.4071 29.9754 17.7826C30.3973 17.157 30.2326 16.3091 29.6082 15.8863C28.9835 15.4642 28.1359 15.6269 27.7125 16.2524Z" fill="#221F1F"/>
<path opacity="0.7" d="M33.121 14.5599C33.8974 16.511 34.2644 18.5257 33.6858 20.5829C33.1385 22.5255 31.5149 25.2376 29.4909 25.8786C29.1664 25.9824 29.1128 25.395 29.2415 25.2247C29.7499 24.552 30.4409 24.0521 31.0132 23.4318C31.7149 22.6721 32.2165 21.716 32.7026 20.8111C33.731 18.8951 33.4833 16.6995 32.9098 14.687C32.8608 14.5164 33.0378 14.3511 33.121 14.5599Z" fill="white"/>
<path opacity="0.7" d="M27.5835 25.9867C27.632 25.9784 27.6824 25.9808 27.7319 25.9901C27.6922 25.9909 27.6917 25.9892 27.7257 25.9829C27.6663 25.996 27.7484 25.9693 27.7603 25.9628C28.3073 25.6725 28.5822 26.4374 28.0544 26.7188C27.9814 26.7581 27.9021 26.7953 27.8186 26.8012C27.6521 26.8162 27.5446 26.7342 27.4436 26.6062C27.3157 26.4427 27.325 26.0301 27.5835 25.9867Z" fill="white"/>
<path d="M26.1318 26.6993C26.0395 25.7938 25.8153 24.7589 25.2308 24.1117C22.9041 21.2559 19.5224 19.0286 15.5551 20.6906C13.8743 21.3956 11.6844 22.8797 11.0767 24.8704C10.3735 27.1794 11.4959 29.0946 12.7023 30.5129C15.0284 33.2452 20.3302 35.3592 24.0744 32.093C25.5078 30.8399 26.2978 28.3742 26.1318 26.6993Z" fill="black"/>
<path d="M18.4133 33.267C16.5406 33.0158 14.8954 32.0651 13.5642 30.8386C12.349 29.722 11.515 28.1209 11.3957 26.2521C11.236 23.7487 13.7365 22.0053 15.6632 21.054C18.5319 19.6328 21.4377 20.8888 23.4735 22.8674C24.1896 23.3713 24.7785 24.0685 25.17 24.8947C25.4647 25.5124 25.9773 26.542 25.703 27.3855C25.6987 28.5686 25.2033 29.8579 24.5617 30.9821C23.1877 33.3952 20.3537 33.5255 18.4133 33.267Z" fill="#FCDC7E"/>
<path d="M24.5616 30.9822C25.2036 29.8575 25.6987 28.5687 25.703 27.3855C25.9776 26.5415 25.4647 25.5125 25.17 24.8948C24.7782 24.0691 24.1896 23.3714 23.4734 22.8675C21.4376 20.8889 18.5316 19.632 15.6632 21.0541C15.4369 21.165 15.2032 21.2887 14.967 21.4205C14.326 22.2702 13.5815 24.1938 13.7621 25.2517C14.0484 26.9442 15.7473 27.6813 17.5964 27.2187C17.7357 27.1828 17.9599 27.2937 17.911 27.4707C17.6751 28.2978 18.3938 29.3144 18.8616 29.9647C19.6306 31.0341 20.5771 31.0144 21.6822 31.1604C21.8201 31.177 22.0661 30.9241 21.9923 31.0623C21.3473 32.2475 20.2026 32.9915 18.9062 33.322C20.8076 33.489 23.3016 33.198 24.5616 30.9822Z" fill="#FCDC7E"/>
<path d="M19.7663 25.1644C18.5239 26.948 16.4459 27.6467 15.1256 26.7273C13.8023 25.8055 13.7394 23.6158 14.9793 21.8315C16.2211 20.049 18.2991 19.3503 19.6211 20.2692C20.9434 21.1889 21.0088 23.3808 19.7663 25.1644Z" fill="#221F1F"/>
<path d="M19.6329 24.905C18.4856 26.5509 16.5687 27.1988 15.3508 26.3512C14.131 25.5032 14.0736 23.4797 15.2208 21.8315C16.3683 20.1829 18.2852 19.5349 19.5034 20.382C20.7217 21.2314 20.7816 23.2556 19.6329 24.905Z" fill="#DADAD6"/>
<path d="M24.607 28.8653C23.1734 30.6593 20.9306 31.2518 19.6006 30.189C18.2705 29.1261 18.3564 26.8097 19.7915 25.0158C21.2262 23.2225 23.4661 22.6313 24.7966 23.6944C26.1259 24.756 26.0409 27.0722 24.607 28.8653Z" fill="#221F1F"/>
<path d="M24.4845 28.5819C23.1597 30.2401 21.0903 30.7889 19.8646 29.8086C18.6382 28.8293 18.7183 26.6896 20.0461 25.0316C21.3695 23.3733 23.4386 22.8251 24.6649 23.8043C25.8903 24.7852 25.8109 26.9238 24.4845 28.5819Z" fill="#DADAD6"/>
<path d="M19.7518 24.7313C18.6673 26.2838 16.8049 26.858 15.5845 26.0082C14.364 25.1612 14.2546 23.2151 15.338 21.6621C16.4183 20.1065 18.2841 19.5343 19.5026 20.3822C20.7232 21.2315 20.833 23.177 19.7518 24.7313Z" fill="#FFFFF9"/>
<path d="M24.5843 28.4284C23.3086 30.009 21.2796 30.4996 20.0517 29.5254C18.8207 28.5517 18.8586 26.4787 20.1336 24.8992C21.4076 23.319 23.4349 22.8289 24.6649 23.8044C25.8939 24.7792 25.8578 26.8502 24.5843 28.4284Z" fill="#FFFFF9"/>
<path d="M23.221 27.8096C22.677 28.7389 21.6781 29.1715 20.9875 28.7698C20.2981 28.3673 20.1806 27.2873 20.724 26.3539C21.2688 25.4205 22.266 24.9922 22.9567 25.3925C23.6464 25.7944 23.7658 26.8763 23.221 27.8096Z" fill="#221F1F"/>
<path d="M22.2452 26.0123C22.0211 26.3928 21.6166 26.5697 21.3319 26.4032C21.0513 26.2397 21.0014 25.7974 21.2229 25.4162C21.4474 25.0352 21.8555 24.8596 22.1378 25.0226C22.4189 25.1878 22.4685 25.6307 22.2452 26.0123Z" fill="white"/>
<path d="M18.3049 24.6474C17.6665 25.5222 16.6293 25.8452 15.985 25.3761C15.3393 24.9055 15.3306 23.8194 15.9684 22.9457C16.6053 22.0737 17.6415 21.7471 18.2874 22.2186C18.9314 22.6882 18.9403 23.7753 18.3049 24.6474Z" fill="#221F1F"/>
<path d="M17.5172 22.761C17.2572 23.1162 16.8334 23.2509 16.5687 23.0574C16.3056 22.8662 16.3021 22.4218 16.5627 22.0654C16.8208 21.7083 17.2465 21.5754 17.5104 21.7678C17.7743 21.9602 17.776 22.405 17.5172 22.761Z" fill="white"/>
<path opacity="0.4" d="M22.845 25.6383C23.8065 26.3061 24.3229 27.4371 24.4854 28.5802C25.8117 26.9222 25.8903 24.7852 24.6648 23.8043C23.4385 22.8251 21.3694 23.3733 20.046 25.0316C19.9748 25.1202 19.9096 25.21 19.8446 25.3021C20.8627 24.9607 21.8243 24.929 22.845 25.6383Z" fill="white"/>
<path opacity="0.4" d="M18.2346 22.1881C19.0361 22.9087 19.6611 24.0542 19.4526 25.1417C19.5138 25.0652 19.5744 24.986 19.6327 24.9056C20.7819 23.2564 20.7218 21.2313 19.5031 20.3825C18.3357 19.5692 16.528 20.1335 15.3696 21.6329C16.3604 21.3824 17.4572 21.4888 18.2346 22.1881Z" fill="white"/>
<path d="M26.2068 25.1369C26.5036 24.325 26.0262 23.504 25.3382 23.072C24.5954 22.6016 23.7035 22.732 22.944 23.0798C22.8636 23.1163 22.9096 23.2022 22.9883 23.1839C23.7436 23.0168 24.4525 23.0467 25.1102 23.4849C25.6894 23.8705 25.7359 24.5265 25.8493 25.1425C25.8773 25.2943 26.1628 25.2605 26.2068 25.1369Z" fill="black"/>
<path d="M17.6178 19.1199C18.2909 18.5778 19.2219 18.7633 19.8558 19.2723C20.5413 19.8267 20.706 20.7132 20.6194 21.542C20.6121 21.6304 20.5167 21.6146 20.5071 21.5364C20.4225 20.7651 20.1651 20.106 19.5368 19.6246C18.9851 19.2017 18.3496 19.3668 17.7298 19.461C17.5747 19.4833 17.5161 19.2035 17.6178 19.1199Z" fill="black"/>
<path opacity="0.4" d="M12.0571 27.2705C11.9852 26.3798 11.9619 25.4653 12.284 24.616C12.6468 23.6591 13.3726 22.8229 14.2142 22.2559C14.2664 22.2208 14.1945 22.1823 14.155 22.2084C12.5121 23.2739 11.2425 25.2982 11.8763 27.3077C11.9047 27.3959 12.0656 27.3584 12.0571 27.2705Z" fill="white"/>
<path d="M15.3084 30.7156C15.2374 30.4472 15.1514 30.233 15.0273 30.0642C14.9102 29.9589 14.7733 29.8702 14.654 29.7635C14.5496 29.7159 14.4353 29.6713 14.2925 29.6452C13.1149 29.4388 11.9809 29.0813 11.2493 30.0957C10.6078 29.8335 9.96781 29.5455 9.28917 29.399C8.69594 29.2714 7.8437 29.215 7.57978 28.5299C7.38069 28.0148 8.0246 27.3076 8.31049 26.9755C9.04353 26.1294 9.98193 25.55 10.9562 25.0202C11.3239 24.8198 11.6398 24.6087 11.6449 24.1752C11.6471 24.0135 11.4088 24.0181 11.3274 24.1231C11.3163 24.127 11.307 24.129 11.2978 24.1371C10.2413 24.8261 9.14347 25.4749 8.2346 26.3574C7.6985 26.8778 6.56208 27.9682 6.45964 28.7553C6.38448 29.3321 6.89721 29.5363 7.39205 29.6842C8.49904 30.018 9.65853 30.3058 10.807 30.4894C9.91752 31.9544 14.0962 33.5956 15.2515 32.33C15.6263 31.9195 15.4266 31.1848 15.3084 30.7156Z" fill="black"/>
<path d="M14.4092 32.3285C13.7027 32.4741 12.9904 32.237 12.367 31.9281C11.6584 31.5768 11.2686 31.1828 11.4808 30.4443C11.4872 30.4384 11.4912 30.434 11.4973 30.4286C11.5468 30.398 11.5896 30.356 11.6077 30.3131C12.2826 29.7357 12.8162 29.7459 13.6714 29.8869C14.2449 29.9794 14.7015 30.1756 14.9033 30.799C15.0826 31.3456 15.2715 32.1505 14.4092 32.3285Z" fill="#4B4D4D"/>
<path d="M21.3457 32.2628C21.3047 32.108 21.248 31.9803 21.242 31.8213C21.2371 31.7014 20.9712 31.7383 20.969 31.8526C20.9677 32.0127 19.8321 31.586 19.6864 31.5278C18.7185 31.1365 17.8614 30.6624 16.9994 30.0699C16.3155 29.6001 15.6216 29.1425 14.9439 28.6593C14.6094 28.421 14.2945 28.1592 13.9767 27.8986C13.8036 27.7542 12.1915 26.2507 13.2514 26.2194C13.3407 26.2176 13.375 26.1055 13.272 26.1017C12.4454 26.0742 12.7287 26.9054 13.0834 27.3384C14.0501 28.5145 15.5639 29.3515 16.7975 30.2104C16.8908 30.2747 16.9846 30.3303 17.0764 30.3922C16.7616 30.7166 16.692 31.3314 16.7328 31.7573C16.7835 32.269 17.1888 32.7194 17.6849 32.8331C18.1744 32.9453 18.5769 32.8346 18.9982 32.5785C19.2648 32.4196 19.4818 31.9566 19.4052 31.6478C19.6577 31.7521 19.9122 31.8553 20.1755 31.9473C20.3327 32.001 20.7491 32.1525 21.0127 32.1068C21.0389 32.182 21.0778 32.2519 21.1298 32.33C21.1799 32.4049 21.3715 32.3644 21.3457 32.2628Z" fill="black"/>
<path d="M17.4099 32.4431C16.8677 32.0834 16.844 30.9937 17.2134 30.4823C17.5645 30.711 17.9188 30.92 18.2821 31.1134C18.2314 31.2308 18.211 31.3599 18.1667 31.4788C18.1062 31.6439 18.0483 31.8098 18.0302 31.9861C18.0118 32.1052 18.2193 32.0745 18.2478 31.9828C18.2934 31.8216 18.3302 31.6591 18.3753 31.4962C18.401 31.3991 18.4064 31.2896 18.423 31.1851C18.6714 31.3145 18.9225 31.4379 19.1784 31.5516C19.1478 31.5725 19.1257 31.6057 19.1307 31.6471C19.2606 32.6016 18.0556 32.8714 17.4099 32.4431Z" fill="#F4B5D2"/>
</g>
<defs>
<filter id="filter0_d_1_485" x="2.45227" y="7.61047" width="41.488" height="38.8541" filterUnits="userSpaceOnUse" color-interpolation-filters="sRGB">
<feFlood flood-opacity="0" result="BackgroundImageFix"/>
<feColorMatrix in="SourceAlpha" type="matrix" values="0 0 0 0 0 0 0 0 0 0 0 0 0 0 0 0 0 0 127 0" result="hardAlpha"/>
<feOffset dy="4"/>
<feGaussianBlur stdDeviation="2"/>
<feComposite in2="hardAlpha" operator="out"/>
<feColorMatrix type="matrix" values="0 0 0 0 0 0 0 0 0 0 0 0 0 0 0 0 0 0 0.25 0"/>
<feBlend mode="normal" in2="BackgroundImageFix" result="effect1_dropShadow_1_485"/>
<feBlend mode="normal" in="SourceGraphic" in2="effect1_dropShadow_1_485" result="shape"/>
</filter>
</defs>
</svg>
