<svg width="48" height="90" viewBox="0 0 48 90" fill="none" xmlns="http://www.w3.org/2000/svg">
<path d="M13.0553 80.9465L12.4883 80.9525L12.5128 81.3232L12.9971 81.229L13.0553 80.9465Z" fill="#685645"/>
<path d="M13.1561 79.335L12.5891 79.3409L12.6128 79.7116L13.0975 79.6179L13.1561 79.335Z" fill="#685645"/>
<path d="M13.1313 78.0405L12.5651 78.0473L12.5888 78.4176L13.0739 78.3238L13.1313 78.0405Z" fill="#685645"/>
<path d="M30.9179 66.4694C30.9179 66.4694 29.6913 67.5139 25.9433 66.3194C22.1952 65.1249 17.6384 63.2804 18.3185 62.6841C18.999 62.0879 23.1558 62.2924 23.1558 62.2924L30.9179 66.4694Z" fill="#283E44"/>
<path d="M38.4258 62.7853C41.1301 62.7231 41.2437 66.112 40.2909 65.9711C39.2626 65.8192 41.2543 63.6985 38.2802 63.0955L38.4258 62.7853Z" fill="#9E8A7D"/>
<path d="M37.3404 62.8044C35.1085 64.1366 36.7264 67.0475 37.4314 66.4406C38.1915 65.7861 35.4994 65.0201 37.6166 62.99L37.3404 62.8044Z" fill="#9E8A7D"/>
<path d="M38.1824 62.3838C38.6366 64.1247 39.5984 65.3805 38.8641 65.3821C38.1293 65.3841 37.6134 62.7684 37.6134 62.7684L38.1824 62.3838Z" fill="#9E8A7D"/>
<path d="M13.0132 79.9568C13.0737 78.0232 12.8443 76.4457 13.0919 76.4536C13.3404 76.4627 13.4916 78.0375 13.431 79.9715C13.3717 81.905 13.1216 83.4655 12.8735 83.4572C12.6266 83.4473 12.9527 81.8908 13.0132 79.9568Z" fill="#685645"/>
<path d="M28.8947 52.954C28.8246 52.41 29.4525 50.6861 30.778 49.8592C32.1039 49.033 34.5451 48.8621 34.6151 49.4061C34.6851 49.9506 32.8386 51.6582 31.5127 52.4848C30.1877 53.3117 28.9647 53.4988 28.8947 52.954Z" fill="#335059"/>
<path d="M18.0614 46.2171C15.3369 48.0976 8.54419 51.6341 3.92526 44.2273L3.38123 44.7749C3.38123 44.7749 8.33211 55.5424 18.9267 47.317L18.0614 46.2171Z" fill="#FABE82"/>
<path d="M13.3398 48.4343C15.2896 47.9492 16.9909 46.9565 18.0616 46.217L18.9269 47.3166C16.6704 49.0682 14.6707 49.9564 12.9196 50.2734C13.1186 49.6953 13.2606 49.0785 13.3398 48.4343Z" fill="#EFA460"/>
<path d="M26.2886 71.1314C27.5412 73.5089 33.6752 83.6762 45.4421 77.2835L45.3179 76.677C45.3179 76.677 33.7923 83.2097 28.1608 69.5693L26.2886 71.1314Z" fill="#FABE82"/>
<path d="M28.1607 69.5693C29.8774 73.7269 32.1418 76.0083 34.46 77.1735C34.1949 77.602 33.9899 78.0519 33.8649 78.518C29.5063 76.7157 27.0335 72.5455 26.2888 71.1314L28.1607 69.5693Z" fill="#EFA460"/>
<path d="M17.5883 51.8943C15.6341 50.6923 14.7324 48.3626 14.3455 45.7086C14.3455 45.7086 22.7057 40.3074 24.9792 41.9237C27.2539 43.5399 17.8 51.8888 17.5883 51.8943Z" fill="#4D6B77"/>
<path d="M25.2324 43.2212C24.3612 46.087 17.7647 51.8897 17.5883 51.8945C16.4128 51.1716 15.6207 50.0396 15.0901 48.6758C17.3893 47.854 23.9525 45.1579 25.2324 43.2212Z" fill="#355159"/>
<path d="M22.1796 67.2239C16.7626 71.778 13.5217 75.8743 12.4451 74.4768C11.4667 73.2075 20.5736 65.0862 20.5736 65.0862L22.1796 67.2239Z" fill="#FABE82"/>
<path d="M12.9044 73.0321C14.7169 70.3092 20.5735 65.0857 20.5735 65.0857L22.1795 67.2234C18.5786 70.2498 15.9415 73.0721 14.2603 74.2163C13.9624 73.6577 13.4761 73.2367 12.9044 73.0321Z" fill="#EFA460"/>
<path d="M4.45686 45.7105C4.68753 45.3398 3.76366 44.3863 4.39355 42.9204C4.50038 42.6711 4.69108 42.3011 4.86992 41.9229C5.18684 41.2526 5.24303 40.4119 4.95895 40.3244C4.72155 40.2508 4.70058 40.8657 4.48297 41.3468C4.29384 41.7678 4.23766 41.9197 4.13716 41.8754C4.06673 41.8445 4.20997 41.2602 4.35082 40.6034C4.53085 39.7618 4.52254 39.1671 4.23173 39.0927C3.95477 39.0207 3.97178 39.6031 3.74032 40.3474C3.54011 40.9903 3.48907 41.2819 3.21052 41.2174C3.08035 41.1866 3.16502 40.7454 3.16819 40.0348C3.17294 39.2063 2.9937 38.6785 2.75393 38.6884C2.40931 38.7018 2.65225 39.0912 2.53355 40.0348C2.38241 41.2511 2.38755 42.4278 1.88189 42.9433C1.41383 43.4205 0.3503 42.3862 0.199554 42.9587C0.0804598 43.4114 1.24607 43.8205 2.61189 44.5093C3.70826 45.0625 4.21195 46.1034 4.45686 45.7105Z" fill="#FABE82"/>
<path d="M23.2933 42.3407C23.2933 42.3407 23.1413 37.7689 23.941 35.9524L25.3456 36.0841C25.3456 36.0841 24.8498 41.2368 26.8265 43.843L23.2933 42.3407Z" fill="#FABE82"/>
<path d="M33.3732 74.2148L29.4886 80.0092C29.4886 80.0092 24.9666 75.2344 23.1062 71.2121C21.6411 68.0421 22.3121 64.7023 23.4765 62.8348C25.1739 60.1134 26.3478 60.5938 29.9871 69.3727C31.0637 71.971 33.3411 74.0581 33.3732 74.2148Z" fill="#A3924B"/>
<path d="M26.3857 76.2715L23.8345 67.4526L22.2297 67.4827C22.2297 67.4827 21.3743 70.3995 26.3857 76.2715Z" fill="#C6B663"/>
<path d="M12.1978 68.9496L17.1241 74.458C17.1241 74.458 21.0978 71.3695 24.0684 70.0302C29.9491 67.3781 29.1977 65.7116 28.1872 63.3554C25.448 56.9694 13.8568 66.8689 12.1978 68.9496Z" fill="#C6B663"/>
<path d="M21.3802 68.6173C27.2609 65.9652 26.5091 64.2987 25.4982 61.9425C25.3866 61.681 25.2545 61.4562 25.1136 61.2473C26.4537 61.2849 27.5568 61.8847 28.1871 63.355C29.1976 65.7112 30.2406 67.4204 24.3599 70.0721C21.3885 71.4122 17.1241 74.4576 17.1241 74.4576L15.2882 72.4049C16.618 71.4277 19.2559 69.576 21.3802 68.6173Z" fill="#A3924B"/>
<path d="M30.9176 66.4693C28.6196 68.3269 21.1789 61.1184 18.3182 62.6844C18.3182 62.6844 20.6131 57.9646 19.7106 53.4303C18.9208 49.4626 20.9513 43.1123 23.0286 41.6436C25.1066 40.1769 28.7 42.4654 27.4671 48.0177C25.9838 54.7083 30.4749 64.43 30.9176 66.4693Z" fill="#4D6B77"/>
<path d="M26.2212 48.0962C27.3722 43.9631 25.968 41.5535 24.3047 41.2125C26.2762 41.1424 28.4694 43.499 27.4668 48.0182C25.9835 54.7084 30.475 64.4302 30.9177 66.4698C30.2222 67.032 28.6992 67.1571 24.1199 64.1516C26.1785 61.7607 24.5381 54.143 26.2212 48.0962Z" fill="#355159"/>
<path d="M26.1884 50.0471C25.4675 52.1576 24.3929 55.6018 22.7366 57.2402C21.0808 58.8775 26.2505 55.5325 26.2505 55.5325L26.1884 50.0471Z" fill="#355159"/>
<path d="M26.3221 48.8804C25.769 49.9886 24.9235 51.2508 23.6095 51.652C22.3097 52.048 26.59 52.2431 26.59 52.2431L26.3221 48.8804Z" fill="#355159"/>
<path d="M12.5756 75.4943C12.8933 79.5882 13.6201 94.7452 0.283203 87.9074C0.283203 87.9074 0.314064 87.1675 2.39959 87.9766C4.48472 88.7873 12.5617 91.5648 12.2048 75.3855L12.5756 75.4943Z" fill="#514033"/>
<path d="M45.3178 76.677C46.5823 77.4545 47.5074 79.2096 47.5093 79.9139C47.0911 80.0532 44.5909 76.9639 44.5909 76.9639L45.3178 76.677Z" fill="#5B92A8"/>
<path d="M31.7196 49.5125C32.9462 50.7908 37.0986 55.8098 36.4925 56.4567C35.8871 57.1036 30.3661 50.4937 30.3661 50.4937L31.7196 49.5125Z" fill="#FABE82"/>
<path d="M32.4886 52.9345C31.3257 51.6419 30.3658 50.4933 30.3658 50.4933L31.7198 49.5125C32.1985 50.0122 33.1244 51.0828 34.0384 52.2405C33.4655 52.3774 32.9424 52.618 32.4886 52.9345Z" fill="#EFA460"/>
<path d="M36.8533 55.449C36.8533 55.449 39.3341 63.5122 38.1424 63.7516C36.9503 63.9913 34.8679 55.5689 34.8679 55.5689C34.8932 54.6672 36.2903 54.4927 36.8533 55.449Z" fill="#514033"/>
<path d="M35.8654 54.8147C36.2329 54.8467 36.6163 55.0469 36.8533 55.4489C36.8533 55.4489 39.3341 63.5121 38.1424 63.7515C38.0553 63.7689 37.9631 63.7352 37.8678 63.6672C38.0332 61.8756 36.2634 56.0863 35.8654 54.8147Z" fill="#3F3026"/>
<path d="M34.6467 49.3958C32.1588 49.5022 29.8517 50.2896 28.9488 53.1114C28.9488 53.1114 23.4337 44.5604 24.853 42.086C26.2738 39.6123 34.6309 49.1723 34.6467 49.3958Z" fill="#4D6B77"/>
<path d="M35.5038 55.7078C35.3807 55.4316 35.5694 55.2112 35.9176 55.2338C36.2472 55.2579 36.5625 55.4914 36.631 55.7434C36.6947 55.9748 36.525 56.1517 36.2444 56.1525C35.9509 56.1529 35.6173 55.9618 35.5038 55.7078Z" fill="#AD866C"/>
<path d="M37.1707 65.2222L36.248 65.9529C36.248 65.9529 36.7976 66.9821 37.5237 66.4942C38.0894 66.1136 37.1707 65.2222 37.1707 65.2222Z" fill="#514033"/>
<path d="M39.1122 64.7043L38.3324 64.844C38.3324 64.844 38.3364 65.6444 38.9833 65.5645C39.4759 65.5032 39.1122 64.7043 39.1122 64.7043Z" fill="#514033"/>
<path d="M40.8602 65.5521L39.8627 65.1865C39.8627 65.1865 39.3298 66.0111 40.0566 66.332C40.7015 66.5638 40.8602 65.5521 40.8602 65.5521Z" fill="#514033"/>
<path d="M21.8162 42.52C21.7561 42.0511 22.7017 41.5577 23.929 41.4189C25.1571 41.2808 26.2005 41.5487 26.261 42.0179C26.3212 42.4872 25.3752 42.9805 24.147 43.1186C22.9197 43.2571 21.8763 42.9892 21.8162 42.52Z" fill="#8EB3BF"/>
<path d="M22.9163 42.2933C22.8387 42.0187 23.2439 41.2171 24.0067 40.9762C24.7692 40.736 25.6 41.1479 25.6784 41.4225C25.7559 41.6971 25.2012 42.1149 24.438 42.3554C23.6748 42.596 22.9938 42.5679 22.9163 42.2933Z" fill="#FABE82"/>
<path d="M19.86 49.3879C19.6234 49.9458 19.2804 53.904 19.3235 54.4223C19.3663 54.9402 20.0416 55.0431 20.0381 55.5681C20.0345 56.0924 19.86 49.3879 19.86 49.3879Z" fill="#4D6B77"/>
<path d="M19.869 55.1091C19.869 55.1091 21.3721 56.9909 21.2554 57.3074C21.1375 57.6236 19.964 56.0939 19.964 56.0939L19.869 55.1091Z" fill="#355159"/>
<path d="M35.7492 55.7007C35.6815 55.5472 35.7856 55.4254 35.9791 55.4376C36.1619 55.4511 36.3375 55.5805 36.3755 55.7205C36.4107 55.8495 36.3162 55.9476 36.1603 55.948C35.9973 55.948 35.8125 55.8416 35.7492 55.7007Z" fill="#3F3026"/>
<path d="M18.0249 74.405L12.5407 68.0349L11.6528 69.227L16.8708 75.2359L18.0249 74.405Z" fill="#E5D388"/>
<path d="M13.8336 75.3921C13.5824 75.9305 12.6352 76.1252 12.196 75.7474C11.7564 75.3719 11.6725 74.3186 12.2791 73.8866C12.8856 73.4545 14.0338 74.9624 13.8336 75.3921Z" fill="#685645"/>
<path d="M6.24392 88.4997L6.68863 90C6.68863 90 1.76306 89.7061 0 87.7618C0.73395 86.3596 4.37363 88.6675 6.24392 88.4997Z" fill="#629FB2"/>
<path d="M9.4146 88.8784L8.8136 87.5165L9.44151 86.8779L10.5786 87.8133L9.4146 88.8784Z" fill="#629FB2"/>
<path d="M12.0103 75.0191C11.968 74.6876 12.1207 74.3924 12.3514 74.3592C12.5821 74.3263 12.8036 74.5681 12.8468 74.9001C12.8891 75.2312 12.7368 75.5268 12.5061 75.56C12.275 75.5929 12.0531 75.3507 12.0103 75.0191Z" fill="#A58E7A"/>
<path d="M12.4507 74.235C12.3739 74.1804 12.3427 74.0882 12.3803 74.0289C12.4183 73.9699 12.5112 73.9656 12.5872 74.0194C12.6636 74.0744 12.6948 74.1666 12.6572 74.2255C12.6197 74.2849 12.5271 74.2892 12.4507 74.235Z" fill="#A58E7A"/>
<path d="M34.0165 74.1822L33.1077 73.364L28.7317 80.1781L29.5824 80.9049L34.0165 74.1822Z" fill="#E5D388"/>
<path d="M32.691 47.1548C32.691 47.1548 29.3821 46.9289 27.7924 51.2487L27.2167 50.2002C27.2167 50.2002 28.8602 45.8064 31.9104 46.2353L32.691 47.1548Z" fill="#8EB3BF"/>
<path opacity="0.7" d="M17.0147 44.1714L19.4651 50.2428L18.762 50.9091C18.762 50.9091 16.356 47.3932 16.0034 44.6486L17.0147 44.1714Z" fill="#8EB3BF"/>
<path d="M22.8531 64.5981L23.0359 68.4151C23.0359 68.4151 20.5575 66.7976 22.8531 64.5981Z" fill="#A3924B"/>
<path d="M27.8724 67.3997L28.1739 67.9057C28.1739 67.9057 26.2435 69.4539 25.9749 69.0187C25.7062 68.5823 27.8724 67.3997 27.8724 67.3997Z" fill="#C6B663"/>
<path d="M36.0288 58.9866C35.7044 57.9266 35.448 57.0665 35.5252 57.0403C35.6011 57.015 35.871 57.8716 36.1954 58.9308C36.5859 60.2064 36.7759 60.8509 36.6991 60.8759C36.6231 60.902 36.3537 60.0454 36.0288 58.9866Z" fill="#BCA79C"/>
<path d="M36.9119 61.6546C36.8672 61.4773 36.8391 61.3317 36.936 61.3048C37.0322 61.2779 37.0765 61.4188 37.1212 61.5964C37.175 61.8097 37.194 61.9193 37.0975 61.9466C37.0001 61.9731 36.9558 61.8326 36.9119 61.6546Z" fill="#BCA79C"/>
<path d="M18.0314 43.5993C19.4676 42.863 21.0938 42.1386 22.4667 41.8086C22.6638 41.7136 22.8968 41.6298 23.1576 41.5617C23.1833 41.5459 23.2086 41.5285 23.2339 41.5142C23.2498 41.4944 23.264 41.4743 23.2814 41.4557C23.2814 40.3217 23.3328 38.3335 23.6482 36.9068C24.1823 36.9004 24.7339 36.9242 25.2985 36.9788C25.2692 38.0407 25.3048 39.8817 25.7709 41.5676C25.9201 41.6254 26.0419 41.6942 26.1258 41.775C27.617 42.2335 29.9566 44.3392 31.8094 46.2257C29.0367 46.9874 23.4369 49.8314 18.0314 43.5993Z" fill="#A58171"/>
<path d="M36.5155 37.0706C32.7409 39.6594 13.9949 41.2551 15.7619 20.6475C17.0506 5.616 34.557 5.55863 39.2641 0C39.2641 0 48.671 11.7428 45.3854 22.4403C42.7278 31.0918 41.2614 33.819 36.5155 37.0706Z" fill="#87412B"/>
<path d="M43.0537 6.15212C48.6776 33.9128 15.3896 12.362 25.4429 7.18242C30.8187 4.41319 36.7892 2.92195 39.2641 0C39.2641 0 41.2329 2.4614 43.0537 6.15212Z" fill="#A54D35"/>
<path d="M21.7025 9.55859C23.0089 17.0963 29.8808 23.9329 39.6287 26.2325C41.0669 26.5692 42.5019 26.7892 43.9212 26.9035C42.0192 32.188 40.3234 34.4607 36.516 37.07C32.7414 39.6588 13.9954 41.2545 15.7624 20.647C16.2107 15.414 18.5898 12.0113 21.7025 9.55859Z" fill="#753523"/>
<path d="M43.5953 3.30811C44.5999 4.76611 45.2425 9.45469 45.0692 11.6553L44.1002 11.0607C44.717 8.49719 44.1595 6.89635 43.5953 3.30811Z" fill="#87412B"/>
<path d="M41.3848 1.59448C42.6976 2.66316 44.4369 6.9347 44.8005 9.08947L43.7326 8.83863C43.7069 6.19245 42.7886 4.84206 41.3848 1.59448Z" fill="#87412B"/>
<path d="M18.865 24.1792C20.1474 23.2443 20.3626 21.2315 19.3485 19.6813C18.3332 18.1303 16.4729 17.6314 15.1897 18.5664C13.9094 19.5005 13.6926 21.5144 14.7062 23.0646C15.7203 24.6132 17.5831 25.113 18.865 24.1792Z" fill="#FABE82"/>
<path d="M37.4885 18.6154C35.9973 13.1581 28.2349 7.80876 21.6348 12.8016C15.0344 17.7948 12.7713 32.0232 17.2541 36.5622C21.1058 40.4614 26.941 40.5168 32.5092 37.3294C36.0088 35.3261 40.2348 28.6719 37.4885 18.6154Z" fill="#FABE82"/>
<path opacity="0.3" d="M37.4885 18.6154C35.9973 13.1581 28.2349 7.80876 21.6348 12.8016C15.0344 17.7948 12.7713 32.0232 17.2541 36.5622C21.1058 40.4614 26.941 40.5168 32.5092 37.3294C36.0088 35.3261 40.2348 28.6719 37.4885 18.6154Z" fill="url(#paint0_linear_1_5746)"/>
<path d="M41.1198 30.296C41.1828 28.8918 39.817 27.6842 38.0693 27.5956C36.3217 27.5082 34.8538 28.5733 34.7901 29.9775C34.7268 31.3801 36.0918 32.5904 37.8394 32.6779C39.5867 32.7673 41.0557 31.6982 41.1198 30.296Z" fill="#FABE82"/>
<path d="M38.0509 28.0057C37.9183 27.9993 37.7893 28.0029 37.6623 28.0112C38.9364 28.2276 39.8796 29.1606 39.8313 30.2305C39.7827 31.3019 38.7587 32.1364 37.4708 32.2218C37.5966 32.2436 37.7256 32.261 37.8582 32.2669C39.3237 32.3413 40.5538 31.4451 40.6076 30.2704C40.6606 29.0929 39.5156 28.0805 38.0509 28.0057Z" fill="#EFA460"/>
<path d="M37.0003 29.1871C36.8436 29.1658 36.6932 29.1725 36.5543 29.197C36.8665 29.362 37.0644 29.6295 37.0319 29.9053C36.9963 30.1937 36.7197 30.407 36.3522 30.4746C36.4907 30.5482 36.6513 30.6024 36.8278 30.6273C37.4011 30.7041 37.9044 30.4434 37.953 30.0453C38.0005 29.6489 37.5748 29.2639 37.0003 29.1871Z" fill="#EFA460"/>
<path d="M25.2557 30.9377L20.3325 29.1355C20.3325 29.1355 19.462 39.4868 25.2557 30.9377Z" fill="#542C23"/>
<path d="M20.6085 31.2096C20.5626 30.2213 20.635 29.3528 20.635 29.3528L25.0617 30.9742C24.6636 31.5618 24.3048 32.0401 23.9732 32.4397L20.6085 31.2096Z" fill="#FFF1D2"/>
<path d="M31.3363 26.8217C31.9491 25.3966 31.9325 23.9967 30.708 23.3957C27.7603 21.9472 25.7753 26.487 28.2189 27.6894C29.4438 28.2896 30.6522 28.4143 31.3363 26.8217Z" fill="#D8652B"/>
<path d="M31.1477 26.8604C31.7605 25.4352 31.7439 24.035 30.5198 23.4332C27.5717 21.9866 25.5867 26.5249 28.0306 27.7281C29.2544 28.3279 30.4632 28.4509 31.1477 26.8604Z" fill="#FFF9E9"/>
<path d="M30.1254 26.8976C30.5147 26.1158 30.3659 25.112 29.7918 24.6562C29.2185 24.2004 28.4395 24.4663 28.0493 25.2485C27.6608 26.0299 27.8096 27.0337 28.3837 27.4895C28.9562 27.9453 29.7376 27.679 30.1254 26.8976Z" fill="#79ABC6"/>
<g style="mix-blend-mode:saturation">
<path d="M25.1736 27.266C24.9441 28.0364 26.3511 29.2779 28.3119 30.0447C30.2728 30.8084 32.0466 30.804 32.2757 30.0337C32.5032 29.2633 31.099 28.0209 29.1385 27.2557C27.1776 26.4909 25.4019 26.4941 25.1736 27.266Z" fill="#FABE82"/>
</g>
<path d="M29.9547 25.7733C30.0603 25.5605 30.0216 25.2867 29.8649 25.162C29.7082 25.0382 29.4957 25.1106 29.3897 25.3239C29.2825 25.5371 29.3232 25.8113 29.4807 25.9352C29.6362 26.0602 29.849 25.9882 29.9547 25.7733Z" fill="#9ACCE2"/>
<path d="M21.7237 23.7273C22.4691 22.1502 22.5371 20.6657 21.2584 20.1549C18.1793 18.9259 15.7714 23.9524 18.3226 24.974C19.6014 25.4836 20.892 25.4891 21.7237 23.7273Z" fill="#D8652B"/>
<path d="M21.829 23.6928C22.5143 22.2791 22.5519 20.9144 21.3186 20.3732C18.3476 19.073 16.1339 23.5768 18.5945 24.657C19.8294 25.1967 21.0638 25.271 21.829 23.6928Z" fill="#FFF9E9"/>
<path d="M20.9788 23.5968C21.3321 22.7845 21.1177 21.8361 20.5036 21.4776C19.8868 21.1188 19.1034 21.4864 18.7516 22.2978C18.3999 23.1101 18.6128 24.0589 19.2284 24.417C19.8441 24.7767 20.6279 24.4095 20.9788 23.5968Z" fill="#79ABC6"/>
<g style="mix-blend-mode:saturation">
<path d="M15.7145 24.3239C15.5108 25.1033 16.9608 26.2769 18.9514 26.9523C20.9412 27.6253 22.7193 27.5414 22.9231 26.7639C23.1248 25.9849 21.6759 24.8094 19.6862 24.1348C17.6956 23.4617 15.9171 23.546 15.7145 24.3239Z" fill="#FABE82"/>
</g>
<g style="mix-blend-mode:luminosity">
<path d="M25.0775 28.3029C25.231 27.8143 24.7396 27.1254 23.9783 26.7658C23.2171 26.4057 22.474 26.5126 22.3205 27.0028C22.1662 27.4914 22.6588 28.1799 23.4205 28.5403C24.1813 28.8976 24.9232 28.7928 25.0775 28.3029Z" fill="#EFA460"/>
</g>
<g style="mix-blend-mode:luminosity">
<path d="M22.5903 26.7846C22.4621 27.2036 22.9159 27.7966 23.6024 28.1053C24.2896 28.4159 24.9492 28.3272 25.077 27.907C25.204 27.488 24.7518 26.8949 24.0645 26.5843C23.3784 26.2761 22.7169 26.3652 22.5903 26.7846Z" fill="#FABE82"/>
</g>
<path d="M20.7374 22.5339C20.8328 22.3135 20.7758 22.0539 20.6088 21.9558C20.4391 21.8585 20.2258 21.9594 20.1308 22.179C20.0335 22.4021 20.0909 22.6613 20.2602 22.759C20.428 22.8567 20.642 22.7554 20.7374 22.5339Z" fill="#9ACCE2"/>
<path d="M16.3874 25.7297C16.374 26.2089 16.9275 26.472 17.6263 26.4692C18.3266 26.4673 18.9086 26.201 18.922 25.7226C18.9359 25.2439 18.3796 24.8565 17.6793 24.8589C16.9786 24.8621 16.4009 25.2502 16.3874 25.7297Z" fill="#EFA460"/>
<path d="M28.8573 29.3279C28.6527 29.743 29.025 30.2989 29.6323 30.7056C30.2365 31.1132 30.8462 31.2176 31.0508 30.8014C31.2542 30.3855 30.9301 29.7173 30.3236 29.3109C29.7186 28.9038 29.0606 28.9101 28.8573 29.3279Z" fill="#EFA460"/>
<path d="M23.7489 28.1648C23.7544 28.0149 23.9811 27.9025 24.2545 27.9136C24.5287 27.9247 24.7463 28.0548 24.7408 28.2052C24.7348 28.3548 24.5093 28.4667 24.2359 28.4549C23.9613 28.4446 23.7441 28.314 23.7489 28.1648Z" fill="#EFA460"/>
<path d="M22.6242 27.3029C22.7303 27.2048 22.9637 27.3005 23.1445 27.5185C23.325 27.7361 23.3855 27.9921 23.2787 28.0911C23.1714 28.1892 22.9384 28.0934 22.758 27.8754C22.5768 27.6574 22.5174 27.4014 22.6242 27.3029Z" fill="#EFA460"/>
<path d="M38.29 19.9468L34.8683 28.2624C34.6578 28.7747 34.8097 29.3726 35.2351 29.7038C35.6604 30.0361 36.2472 30.0147 36.6488 29.6515C37.315 29.0505 38.0185 28.2663 38.6848 27.2495C41.0323 23.6648 38.29 19.9468 38.29 19.9468Z" fill="#87412B"/>
<path d="M30.9952 20.5991C31.9831 21.0039 32.9268 21.5748 33.9306 22.4077L33.6295 23.1258C32.6645 22.3428 31.7774 21.7596 30.863 21.3161L30.9952 20.5991Z" fill="#874D39"/>
<path d="M22.5957 17.9412C21.421 17.8257 20.221 17.8815 18.8488 18.1422L18.8448 18.9332C20.1576 18.6962 21.307 18.6048 22.4228 18.6483L22.5957 17.9412Z" fill="#874D39"/>
<defs>
<linearGradient id="paint0_linear_1_5746" x1="26.0943" y1="34.6915" x2="25.7031" y2="40.2315" gradientUnits="userSpaceOnUse">
<stop stop-color="#C04B00"/>
<stop offset="1" stop-color="#B73400"/>
</linearGradient>
</defs>
</svg>
