<svg width="64" height="47" viewBox="0 0 64 47" fill="none" xmlns="http://www.w3.org/2000/svg">
<g filter="url(#filter0_d_1_558)">
<path d="M43.8744 11.602C43.8632 11.6151 43.8523 11.6252 43.8442 11.6375C43.8373 11.67 43.8324 11.7027 43.8275 11.7354C43.8134 11.8044 43.674 11.8704 43.6131 11.8329C43.244 12.0112 42.9647 11.5127 42.9077 11.0559C42.6799 9.28101 42.7032 7.57244 41.8658 5.9134C41.2209 6.06529 40.1042 5.96773 40.3488 5.26652C40.6383 4.43174 41.3635 3.96067 42.3246 3.78649C43.0662 3.65218 44.1014 3.84393 44.0717 4.66952C44.0625 4.95581 43.8889 5.29588 43.6225 5.51631C44.2497 7.40677 44.1935 9.53406 43.8737 11.4624C43.9117 11.4869 43.9276 11.5344 43.8744 11.602Z" fill="#231F20"/>
<path d="M43.584 11.5372C43.5809 9.54826 43.7259 7.66573 43.378 5.67041C43.2432 5.73079 43.0941 5.75879 42.9382 5.74001C42.81 5.72468 42.9222 5.56894 43.0087 5.56654C43.7437 5.54206 43.987 4.41208 43.2863 4.17255C42.8274 4.01559 42.2915 4.06969 41.848 4.22631C41.3663 4.39561 40.8131 4.73729 40.7489 5.23758C40.6895 5.70617 41.3524 5.66831 41.814 5.61268C41.8471 5.5905 41.8911 5.58134 41.9247 5.59836C42.0202 5.58571 42.1036 5.57399 42.1581 5.56977C42.3481 5.55542 42.2558 5.74805 42.1709 5.80079C42.1582 5.8077 42.1426 5.81435 42.13 5.82027C42.6816 6.48634 42.8807 7.38131 42.9552 8.17494C43.0064 8.7316 43.0802 9.29526 43.1072 9.8528C43.1111 9.90032 43.2938 11.5377 43.584 11.5372Z" fill="#63C2A1"/>
<path d="M42.8112 4.79019C42.8502 4.74644 42.8994 4.6785 42.8905 4.61949C42.8852 4.58891 42.8839 4.55768 42.8807 4.52627L42.8773 4.49586C42.8716 4.47025 42.8697 4.46808 42.872 4.48836C42.8144 4.46923 42.7061 4.3653 42.7889 4.31538C43.0621 4.15378 43.1729 4.536 43.2264 4.69231C43.3074 4.93437 43.0633 5.30033 42.7577 5.27134C42.6561 5.26238 42.5307 5.15895 42.5644 5.06154C42.6099 4.93304 42.724 4.89091 42.8112 4.79019Z" fill="white"/>
<path d="M43.0337 6.13692C43.0579 5.99852 43.2833 6.12885 43.2827 6.22717C43.2823 6.34559 43.295 6.46316 43.2965 6.58276C43.2944 6.74319 43.0938 6.63816 43.0544 6.55035C42.9873 6.41192 43.0091 6.27832 43.0337 6.13692Z" fill="white"/>
<path d="M44.7231 11.1991C44.7471 9.24467 45.0653 7.14049 46.012 5.38894C45.7902 5.12643 45.6769 4.76005 45.7179 4.47756C45.8333 3.65953 46.8871 3.65116 47.5927 3.91421C48.5074 4.25394 49.14 4.84385 49.2787 5.71743C49.3967 6.45064 48.2801 6.35208 47.6719 6.08858C46.5558 7.57522 46.2805 9.26155 45.7452 10.9701C45.6081 11.4087 45.2459 11.8506 44.9147 11.6106C44.8481 11.6368 44.7224 11.5484 44.7227 11.4772C44.7215 11.4449 44.7224 11.4119 44.7233 11.3788C44.7145 11.365 44.7055 11.3532 44.6979 11.3374C44.6594 11.2618 44.6805 11.2164 44.7231 11.1991Z" fill="#231F20"/>
<path d="M45.7577 9.74847C45.882 9.20429 46.0532 8.66325 46.2012 8.12417C46.4147 7.35496 46.7674 6.5087 47.4262 5.94945C47.4149 5.94042 47.4006 5.93213 47.3912 5.92428C47.3148 5.8573 47.2587 5.65157 47.4422 5.69889C47.4982 5.71287 47.5762 5.73882 47.667 5.76792C47.7031 5.75705 47.7449 5.77279 47.7735 5.80141C48.2203 5.93722 48.8634 6.08935 48.8879 5.61868C48.9143 5.11505 48.4276 4.68058 47.9829 4.42951C47.5736 4.19863 47.0556 4.05151 46.5762 4.12565C45.8444 4.23875 45.8881 5.39307 46.6074 5.5469C46.6902 5.56425 46.7734 5.73623 46.6464 5.73004C46.4886 5.72113 46.3479 5.66654 46.2236 5.5843C45.5326 7.48792 45.3447 9.36668 44.9932 11.3244C45.2808 11.3748 45.7476 9.79476 45.7577 9.74847Z" fill="#63C2A1"/>
<path d="M47.841 4.49026C47.8836 4.56529 47.9988 4.61361 48.0726 4.6643C48.1427 4.71264 48.1926 4.77226 48.2497 4.8305C48.3535 4.94005 48.4297 5.07729 48.4687 5.21525C48.5506 5.50457 48.3655 5.73619 48.0182 5.70152C47.9018 5.69024 47.6988 5.45348 47.8864 5.42085C48.1628 5.37196 48.2138 5.22588 48.0835 5.00758C47.9709 4.81593 47.7181 4.72335 47.6422 4.51387C47.5936 4.38209 47.7889 4.39832 47.841 4.49026Z" fill="white"/>
<path d="M46.7465 6.14345C46.8238 6.06394 46.9721 6.19148 46.9219 6.27137C46.6328 6.72572 46.395 7.20265 46.2019 7.69559C46.146 7.84023 45.9394 7.68949 45.9572 7.57862C46.0497 7.01959 46.3386 6.56724 46.7465 6.14345Z" fill="white"/>
<path d="M7.13721 24.2723C8.73242 23.4644 11.0944 23.717 12.5984 24.6469C14.5028 23.02 17.9959 22.8324 20.1925 24.4006C19.9016 21.7026 20.6388 19.0822 23.5436 17.7796C27.7978 15.8712 34.3304 18.063 37.3342 21.2344C37.2692 21.0158 37.2041 20.7983 37.1448 20.5822C37.0328 20.1678 36.9199 19.7532 36.8058 19.3396C38.1668 19.6264 39.578 19.7891 40.8961 20.0048C43.4532 20.4242 46.014 20.8229 48.5735 21.2376C49.3409 23.0069 49.9904 24.827 50.4555 26.6661C51.2967 29.9989 51.2445 33.4346 49.0679 36.3024C47.0049 39.0215 43.1016 39.3185 39.6668 38.676C37.4605 38.2634 35.7665 37.0408 34.4111 35.5298C33.4627 36.4138 31.5615 36.2641 30.3616 35.8911C29.2224 35.5366 28.1837 34.7482 27.3169 33.9118C27.1559 34.6896 26.3111 35.1501 25.5365 35.5094C23.9686 36.2354 21.7629 36.1461 20.0551 35.9442C17.2455 35.6109 14.4687 34.4623 12.8507 32.4011C11.9488 33.3715 9.62921 32.4691 8.64618 32.0962C6.69944 31.3592 5.19623 29.9988 4.7176 28.1536C4.30961 26.5886 5.69843 25.0026 7.13721 24.2723Z" fill="#231F20"/>
<path d="M5.13102 27.2343C5.93945 24.3191 9.5866 23.3862 12.439 24.7924C11.8531 25.346 11.4419 26.0466 11.3052 26.8898C11.2878 26.9957 11.4946 27.1445 11.5422 27.0031C12.7033 23.6412 17.0035 22.6906 20.2224 24.6642C20.4108 26.1013 20.8815 27.5473 21.4599 28.8191C21.6895 29.2208 21.9455 29.6068 22.2424 29.9744C22.2413 29.9642 22.2402 29.9541 22.2352 29.9416C20.8097 26.3704 18.6826 19.8974 24.1697 18.1129C28.7484 16.6237 34.1581 18.6622 37.4565 21.6347C37.9827 23.3165 38.6456 25.0414 39.1304 26.7717C38.5012 26.9049 38.0309 27.6153 37.8566 28.1009C37.4992 29.0783 37.5772 30.0268 37.7108 31.0374C37.7446 31.0987 37.785 31.1524 37.8299 31.2006C37.8626 31.2054 37.8879 31.1926 37.8858 31.1473C37.8181 29.9356 37.6919 27.6808 39.1994 27.0127C39.5406 28.2766 39.7762 29.5432 39.7811 30.7955C39.8791 30.4809 39.9384 30.1509 39.996 29.8277C39.8455 27.2906 38.6319 24.7531 37.9455 22.3163C37.6706 21.3474 37.3839 20.3764 37.1103 19.4036C38.3763 19.6529 39.6769 19.8058 40.896 20.0058C43.275 20.3954 45.6584 20.7684 48.0378 21.1531C48.4458 22.0133 48.8455 22.8648 49.1436 23.7062C50.3161 26.994 51.1413 30.5544 50.0169 33.8985C49.4191 35.6788 48.1253 37.3827 46.0569 38.0243C44.4404 38.5271 42.6018 38.6228 40.8824 38.4269C38.6154 38.1686 36.5827 37.3587 35.0788 35.7784C34.1188 34.7691 33.3631 33.6523 32.5923 32.5352C32.3362 32.2637 32.0771 31.9918 31.8188 31.7221C31.8067 31.7451 31.8119 31.7777 31.8353 31.8199C32.4871 32.9656 33.2417 34.1626 34.1528 35.2369C32.7233 36.3284 30.3247 35.6268 28.9919 34.7021C27.7414 33.8328 26.7463 32.8695 25.8314 31.7247C24.883 30.5387 23.711 29.065 22.9307 27.5334C22.7618 27.3087 22.577 27.0364 22.3985 26.7385C22.6494 27.3419 22.9601 27.9275 23.2494 28.4721C24.0814 30.0433 25.1568 31.5648 26.3771 32.9343C26.6037 33.1883 26.8495 33.4519 27.1105 33.7128C26.8507 34.7912 25.2051 35.3517 24.1019 35.4982C22.5845 35.6976 20.9685 35.6945 19.4573 35.3804C18.1017 35.1002 16.6909 34.7176 15.4948 34.0629C14.1896 33.3484 13.4725 32.3846 12.5541 31.3479C12.3953 31.1682 12.1231 31.2717 12.2452 31.4923C12.3551 31.6917 12.4778 31.8823 12.606 32.0682C11.6135 33.1221 8.82522 31.9444 7.85919 31.4244C6.39968 30.638 4.68079 28.855 5.13102 27.2343Z" fill="#63C2A1"/>
<path d="M5.13102 27.2343C5.93945 24.3191 9.5866 23.3862 12.439 24.7924C11.8531 25.346 11.4419 26.0466 11.3052 26.8898C11.2878 26.9957 11.4946 27.1445 11.5422 27.0031C12.7033 23.6412 17.0035 22.6906 20.2224 24.6642C20.4108 26.1013 20.8815 27.5473 21.4599 28.8191C21.6895 29.2208 21.9455 29.6068 22.2424 29.9744C22.2413 29.9642 22.2402 29.9541 22.2352 29.9416C20.8097 26.3704 18.6826 19.8974 24.1697 18.1129C28.7484 16.6237 34.1581 18.6622 37.4565 21.6347C37.9827 23.3165 38.6456 25.0414 39.1304 26.7717C38.5012 26.9049 38.0309 27.6153 37.8566 28.1009C37.4992 29.0783 37.5772 30.0268 37.7108 31.0374C37.7446 31.0987 37.785 31.1524 37.8299 31.2006C37.8626 31.2054 37.8879 31.1926 37.8858 31.1473C37.8181 29.9356 37.6919 27.6808 39.1994 27.0127C39.5406 28.2766 39.7762 29.5432 39.7811 30.7955C39.8791 30.4809 39.9384 30.1509 39.996 29.8277C39.8455 27.2906 38.6319 24.7531 37.9455 22.3163C37.6706 21.3474 37.3839 20.3764 37.1103 19.4036C38.3763 19.6529 39.6769 19.8058 40.896 20.0058C43.275 20.3954 45.6584 20.7684 48.0378 21.1531C48.4458 22.0133 48.8455 22.8648 49.1436 23.7062C50.3161 26.994 51.1413 30.5544 50.0169 33.8985C49.4191 35.6788 48.1253 37.3827 46.0569 38.0243C44.4404 38.5271 42.6018 38.6228 40.8824 38.4269C38.6154 38.1686 36.5827 37.3587 35.0788 35.7784C34.1188 34.7691 33.3631 33.6523 32.5923 32.5352C32.3362 32.2637 32.0771 31.9918 31.8188 31.7221C31.8067 31.7451 31.8119 31.7777 31.8353 31.8199C32.4871 32.9656 33.2417 34.1626 34.1528 35.2369C32.7233 36.3284 30.3247 35.6268 28.9919 34.7021C27.7414 33.8328 26.7463 32.8695 25.8314 31.7247C24.883 30.5387 23.711 29.065 22.9307 27.5334C22.7618 27.3087 22.577 27.0364 22.3985 26.7385C22.6494 27.3419 22.9601 27.9275 23.2494 28.4721C24.0814 30.0433 25.1568 31.5648 26.3771 32.9343C26.6037 33.1883 26.8495 33.4519 27.1105 33.7128C26.8507 34.7912 25.2051 35.3517 24.1019 35.4982C22.5845 35.6976 20.9685 35.6945 19.4573 35.3804C18.1017 35.1002 16.6909 34.7176 15.4948 34.0629C14.1896 33.3484 13.4725 32.3846 12.5541 31.3479C12.3953 31.1682 12.1231 31.2717 12.2452 31.4923C12.3551 31.6917 12.4778 31.8823 12.606 32.0682C11.6135 33.1221 8.82522 31.9444 7.85919 31.4244C6.39968 30.638 4.68079 28.855 5.13102 27.2343Z" fill="#63C2A1"/>
<path d="M37.9082 29.1534C38.0271 28.2504 38.3585 27.3842 39.1994 27.0127C39.3959 27.7438 39.5563 28.4747 39.6586 29.2035C39.0859 28.89 38.43 28.815 37.9082 29.1534Z" fill="#A6DACE"/>
<path d="M25.2551 19.1574C22.9428 20.2302 21.2102 22.1965 20.6788 24.4184C20.3751 21.7283 21.0051 19.1406 24.1688 18.1118C26.8313 17.2455 29.7747 17.5746 32.4231 18.5854C29.992 18.0706 27.3037 18.2058 25.2551 19.1574Z" fill="#8CCFB8"/>
<path d="M9.88756 25.2198C9.11284 25.046 8.17032 25.1696 7.4248 25.3588C6.77474 25.5243 6.19645 25.7523 5.68144 26.0482C7.02674 24.0909 10.0186 23.599 12.439 24.7924C12.0624 25.1467 11.7624 25.5659 11.5578 26.0418C11.0603 25.7068 10.6219 25.385 9.88756 25.2198Z" fill="#8CCFB8"/>
<path d="M12.1197 25.8515C13.7673 23.449 17.4083 22.9381 20.2225 24.6632C20.2657 24.9933 20.3308 25.3243 20.4022 25.6529C18.2779 23.5038 14.3023 23.8707 12.1197 25.8515Z" fill="#8CCFB8"/>
<path d="M45.9367 25.3838C44.6489 25.1316 43.175 24.372 41.8318 24.5085C39.9467 24.6995 39.6128 26.0142 39.5723 27.3829C39.1193 25.6685 38.4109 23.9696 37.9456 22.3153C37.6707 21.3464 37.3839 20.3754 37.1104 19.4026C38.3764 19.6519 39.677 19.8048 40.8961 20.0048C43.2751 20.3944 45.6585 20.7674 48.0379 21.1521C48.4459 22.0123 48.8456 22.8637 49.1437 23.7052C49.259 24.0256 49.3671 24.3483 49.4739 24.673C48.6145 25.4023 47.0755 25.6077 45.9367 25.3838Z" fill="#A6DACE"/>
<path d="M39.633 37.092C42.5204 37.6801 45.597 37.0361 47.9606 35.5522C48.864 34.9844 49.5561 34.3307 50.1047 33.6092C50.0751 33.7059 50.0485 33.802 50.016 33.8975C49.4182 35.6778 48.1244 37.3817 46.0559 38.0233C44.4395 38.5261 42.6009 38.6219 40.8815 38.4259C38.6144 38.1676 36.5818 37.3578 35.0779 35.7774C34.3191 34.9796 33.6877 34.1148 33.0767 33.2346C34.8166 35.0978 37.0207 36.5593 39.633 37.092Z" fill="#8CCFB8"/>
<path d="M25.8324 31.7247C24.884 30.5388 23.712 29.065 22.9316 27.5335C22.7628 27.3088 22.5779 27.0375 22.4014 26.7398C22.2411 26.042 22.2389 25.3622 22.3435 24.6657C22.6773 25.2402 23.0433 25.8016 23.4445 26.341C24.4668 27.7132 25.7241 29.2778 27.3669 30.1265C28.8935 30.9147 29.9414 30.5525 30.5363 29.7155C30.918 30.4058 31.351 31.0855 31.8325 31.7373C31.8269 31.7328 31.8214 31.7263 31.8178 31.722C31.8057 31.745 31.8109 31.7776 31.8343 31.8198C32.4861 32.9655 33.2407 34.1625 34.1518 35.2368C32.7223 36.3283 30.3237 35.6267 28.9909 34.702C27.7424 33.8338 26.7472 32.8706 25.8324 31.7247Z" fill="#8CCFB8"/>
<path d="M5.13102 27.2344C5.16841 27.0951 5.21623 26.9628 5.26686 26.8328C5.44933 27.916 6.12983 28.9639 7.30809 29.6953C9.19241 30.8665 11.6763 30.8298 12.6379 29.3064C14.7806 31.6448 18.2066 34.1508 21.4917 33.1116C22.8063 32.6955 24.033 31.7065 23.7523 30.3376C23.5582 29.3858 23.0769 28.5493 22.6957 27.6483C22.5662 27.3407 22.4693 27.039 22.4013 26.7409C22.6523 27.3433 22.961 27.9287 23.2504 28.4722C24.0824 30.0435 25.1578 31.5649 26.3781 32.9345C26.6047 33.1884 26.8505 33.452 27.1115 33.713C26.8517 34.7913 25.2061 35.3518 24.1029 35.4984C22.5855 35.6977 20.9695 35.6947 19.4583 35.3806C18.1027 35.1003 16.6919 34.7178 15.4958 34.0631C14.1906 33.3486 13.4735 32.3848 12.5551 31.348C12.3963 31.1684 12.1241 31.2718 12.2462 31.4924C12.3561 31.6919 12.4788 31.8824 12.607 32.0684C11.6145 33.1222 8.82622 31.9445 7.86019 31.4246C6.39968 30.6381 4.68079 28.8551 5.13102 27.2344Z" fill="#8CCFB8"/>
<path d="M37.3584 12.4074C38.1042 11.7825 39.0659 11.1466 40.0823 11.0275C44.3219 10.3536 49.0823 10.821 51.5433 14.5919C52.5849 16.1887 53.5283 18.6933 52.636 20.5802C51.6021 22.7627 49.1654 23.4933 47.0115 23.7961C42.8582 24.3782 36.405 22.607 35.3237 17.7732C34.909 15.9206 35.9786 13.5615 37.3584 12.4074Z" fill="#231F20"/>
<path d="M39.7072 22.2489C41.6249 23.2474 43.8445 23.5768 45.9737 23.4977C47.9155 23.4261 49.8574 22.7502 51.3331 21.4198C53.3116 19.6359 52.2666 16.7357 51.1788 14.7966C49.5595 11.9081 45.9486 11.0091 42.6172 11.208C41.5849 11.1319 40.5304 11.2838 39.5619 11.6571C38.8416 11.9358 37.6154 12.3848 37.2517 13.1949C36.3928 14.0889 35.9089 15.3743 35.6798 16.628C35.1915 19.3165 37.7226 21.2134 39.7072 22.2489Z" fill="#63C2A1"/>
<path d="M35.6799 16.627C35.908 15.3732 36.3919 14.0878 37.2518 13.194C37.6154 12.3848 38.8417 11.9349 39.562 11.6561C40.5305 11.2828 41.585 11.1309 42.6173 11.207C45.9487 11.0081 49.5597 11.9061 51.1789 14.7956C51.2111 14.8517 51.2412 14.9085 51.2732 14.9676C50.8793 16.029 50.1 17.0445 48.7984 17.3241C47.0639 17.6971 46.0345 16.9848 44.7472 16.0671C44.6406 15.9904 44.5283 16.0337 44.4662 16.1236C43.3121 17.7574 41.4375 17.2487 39.6952 16.857C39.1342 16.7301 38.2141 16.4863 37.9848 17.1507C37.2867 19.1682 39.5295 21.5325 41.4325 22.4243C44.0556 23.6526 47.3055 23.6835 49.7162 22.1776C50.818 21.4898 51.7563 20.6179 52.3665 19.6067C52.2316 20.2714 51.9138 20.8918 51.3324 21.4167C49.8557 22.7471 47.9138 23.4229 45.973 23.4946C43.8448 23.5738 41.6241 23.2443 39.7065 22.2458C37.7226 21.2134 35.1915 19.3165 35.6799 16.627Z" fill="#A6DACE"/>
<path d="M44.5908 12.8348C44.428 15.0771 45.8334 17.0112 47.7291 17.1554C49.6258 17.2997 51.2958 15.599 51.4585 13.3566C51.6213 11.1142 50.2159 9.18016 48.3183 9.03576C46.4216 8.89145 44.7515 10.5932 44.5908 12.8348Z" fill="#231F20"/>
<path d="M44.9055 12.7159C44.7557 14.7888 46.0506 16.5755 47.7996 16.7088C49.5487 16.8421 51.0879 15.2694 51.2366 13.1984C51.3864 11.1256 50.0915 9.3388 48.3423 9.20651C46.5934 9.07222 45.0552 10.6441 44.9055 12.7159Z" fill="#DADBD7"/>
<path d="M37.4013 12.5697C37.4092 14.9486 39.0444 16.906 41.0521 16.9416C43.0607 16.9773 44.6829 15.0786 44.675 12.6997C44.6671 10.3208 43.032 8.36245 41.0243 8.3268C39.0156 8.29206 37.3934 10.1908 37.4013 12.5697Z" fill="#231F20"/>
<path d="M37.7233 12.4244C37.7291 14.6224 39.2379 16.4311 41.0901 16.465C42.9423 16.499 44.4385 14.7428 44.4297 12.5445C44.4219 10.3463 42.9151 8.53779 41.0629 8.50382C39.2116 8.47193 37.7154 10.2272 37.7233 12.4244Z" fill="#DADBD7"/>
<path d="M44.9225 12.5007C44.7811 14.4548 46.0854 16.147 47.8335 16.2802C49.5824 16.4145 51.1121 14.9383 51.2535 12.9842C51.3948 11.03 50.0906 9.3378 48.3425 9.2046C46.5935 9.07131 45.0618 10.5464 44.9225 12.5007Z" fill="#FFFEF9"/>
<path d="M37.7417 12.2384C37.76 14.3401 39.2733 16.0759 41.1249 16.1158C42.9766 16.1558 44.4634 14.483 44.4451 12.3813C44.4289 10.2787 42.9157 8.54294 41.0639 8.50398C39.2123 8.46403 37.7255 10.1358 37.7417 12.2384Z" fill="#FFFEF9"/>
<path d="M39.4564 12.6477C39.2748 13.75 39.8817 14.7552 40.8153 14.8928C41.7457 15.0312 42.65 14.2487 42.8316 13.1464C43.0153 12.0432 42.4083 11.038 41.4748 10.9004C40.5443 10.763 39.6401 11.5446 39.4564 12.6477Z" fill="#231F20"/>
<path d="M41.6788 11.865C41.6038 12.3162 41.8517 12.7266 42.2332 12.7833C42.6147 12.8401 42.9842 12.5203 43.0592 12.0692C43.1341 11.618 42.8843 11.2075 42.5027 11.1517C42.1232 11.0951 41.7518 11.4137 41.6788 11.865Z" fill="white"/>
<path d="M46.3204 13.393C46.2671 14.5087 46.9876 15.4567 47.9275 15.5105C48.8694 15.5645 49.6753 14.7031 49.7285 13.5874C49.7798 12.4716 49.0614 11.5238 48.1195 11.4697C47.1784 11.4178 46.3717 12.2772 46.3204 13.393Z" fill="#231F20"/>
<path d="M48.4317 12.4138C48.4105 12.8697 48.7046 13.2571 49.0902 13.279C49.4747 13.3009 49.8039 12.9495 49.8242 12.4925C49.8473 12.0368 49.5512 11.6493 49.1677 11.6275C48.7841 11.6056 48.4549 11.9581 48.4317 12.4138Z" fill="white"/>
<path opacity="0.4" d="M41.3969 11.1695C40.0178 11.0638 38.7117 11.6212 37.7235 12.4224C37.7156 10.2252 39.2116 8.47191 41.0629 8.5038C42.9152 8.53678 44.422 10.3453 44.4297 12.5445C44.4294 12.6619 44.4252 12.777 44.4171 12.8917C43.7286 11.9465 42.8596 11.2825 41.3969 11.1695Z" fill="white"/>
<path opacity="0.4" d="M48.1907 11.482C46.9221 11.5236 45.5038 12.0219 44.8963 13.0244C44.8953 12.9219 44.8964 12.8186 44.9056 12.715C45.0553 10.6431 46.5935 9.07126 48.3425 9.20455C50.0198 9.33151 51.2738 10.9791 51.2444 12.9391C50.5117 12.0844 49.424 11.4423 48.1907 11.482Z" fill="white"/>
<path d="M38.8131 8.232C39.1366 7.38817 40.1782 7.05145 41.1332 7.16183C42.1657 7.28107 42.8924 7.97665 43.3374 8.75781C43.3853 8.84034 43.2817 8.87737 43.2213 8.81081C42.6478 8.17693 41.9715 7.72974 41.0406 7.64255C40.2221 7.5663 39.698 8.05611 39.1403 8.47169C39.0025 8.57698 38.7627 8.36006 38.8131 8.232Z" fill="#231F20"/>
<path d="M50.1845 8.88824C49.781 8.05655 48.7106 7.75227 47.7687 7.892C46.7475 8.0428 46.0857 8.7614 45.7146 9.55384C45.6761 9.63778 45.7825 9.67226 45.8356 9.60467C46.3519 8.95354 46.9854 8.48643 47.9051 8.37085C48.7182 8.26894 49.2859 8.74167 49.8822 9.13964C50.028 9.23885 50.2456 9.01411 50.1845 8.88824Z" fill="#231F20"/>
<path d="M39.8065 17.6318C39.9393 17.4588 40.2443 17.4947 40.4617 17.4768C40.7641 17.4513 41.0076 17.4908 41.3059 17.5342C41.3931 17.5479 41.4659 17.723 41.3432 17.7142C41.1248 17.6979 40.9363 17.6843 40.731 17.7013C41.5977 18.346 43.1285 18.5745 44.1744 18.6899C45.5396 18.8395 47.437 18.9297 48.5784 18.2243C48.6263 18.1934 48.7015 18.2743 48.6571 18.3105C48.6235 18.3387 48.5864 18.3615 48.55 18.3874C48.5531 18.3977 48.5521 18.4087 48.5453 18.4171C48.4922 18.4847 48.5012 18.5648 48.4923 18.6423C48.4905 18.6633 48.4777 18.6712 48.4626 18.6718C48.4639 18.68 48.4632 18.6879 48.4626 18.6949C48.4717 19.6605 48.4851 20.9767 47.6334 21.6525C46.5811 22.4852 45.2422 22.6632 43.8641 22.399C42.6825 22.1722 41.6373 21.4114 40.977 20.5439C40.3265 19.6915 40.3786 18.7032 40.4635 17.741C40.2918 17.775 40.1114 17.8173 39.9434 17.8105C39.8624 17.8064 39.7521 17.7033 39.8065 17.6318Z" fill="#231F20"/>
<path d="M44.6176 22.2908C45.4392 22.3763 46.2898 22.1793 46.9631 21.774C46.0538 20.4629 43.0379 20.1245 41.8146 21.188C42.5691 21.8188 43.6268 22.1872 44.6176 22.2908Z" fill="#F5949A"/>
<path d="M41.1635 20.456C41.2921 20.6601 41.4482 20.8475 41.6258 21.0188C41.6258 21.0188 41.6262 21.0148 41.6282 21.014C42.8844 19.9303 46.2351 20.1838 47.083 21.7003C47.3057 21.5543 47.5054 21.3842 47.6749 21.1933C48.1387 20.6701 48.2133 19.9609 48.2655 19.2789C47.6922 20.0193 46.029 20.0502 45.0714 20.0831C43.5078 20.1349 41.8242 19.9542 40.6855 18.9451C40.7188 19.455 40.844 19.9469 41.1635 20.456Z" fill="white"/>
<path d="M40.6753 18.6742C40.7058 18.6809 40.7396 18.6959 40.7712 18.7248C41.7822 19.6674 43.2143 19.7867 44.5996 19.8668C45.5964 19.9247 48.2739 19.9341 48.2865 18.5519C47.1668 19.1477 45.4583 18.9187 44.2318 18.8586C43.1624 18.8054 41.6193 18.5106 40.7132 17.8684C40.6886 18.1473 40.6751 18.4142 40.6753 18.6742Z" fill="white"/>
<path d="M33.856 22.8127C33.7934 23.5219 34.398 24.1555 35.2079 24.227C36.0177 24.2985 36.7239 23.7816 36.7866 23.0713C36.8491 22.3631 36.2444 21.7305 35.4346 21.659C34.6247 21.5875 33.9185 22.1044 33.856 22.8127Z" fill="#FBEB91"/>
<path d="M32.7613 21.1349C32.7474 21.2923 32.8815 21.4336 33.0628 21.4496C33.2441 21.4656 33.3988 21.3498 33.4127 21.1924C33.4267 21.034 33.2935 20.8938 33.1132 20.8778C32.9319 20.8618 32.7752 20.9765 32.7613 21.1349Z" fill="#FBEB91"/>
<path d="M29.5814 19.7881C29.5262 20.4137 30.0611 20.9729 30.7753 21.0359C31.4895 21.099 32.1141 20.6421 32.1693 20.0165C32.2245 19.391 31.6896 18.8318 30.9754 18.7687C30.2611 18.7067 29.6366 19.1626 29.5814 19.7881Z" fill="#FBEB91"/>
<path d="M26.8941 21.3329C27.2077 21.3605 27.4816 21.16 27.5059 20.8849C27.5302 20.6098 27.2956 20.3644 26.9821 20.3367C26.6685 20.3091 26.3946 20.5096 26.3703 20.7847C26.346 21.0598 26.5806 21.3052 26.8941 21.3329Z" fill="#FBEB91"/>
<path d="M23.0418 22.0429C22.9896 22.6346 23.4961 23.1632 24.1714 23.2228C24.8468 23.2824 25.438 22.8517 25.4903 22.259C25.5425 21.6673 25.036 21.1387 24.3606 21.0791C23.6853 21.0195 23.094 21.4512 23.0418 22.0429Z" fill="#FBEB91"/>
<path d="M21.1003 24.556C21.0805 24.7811 21.2726 24.9818 21.5296 25.0044C21.7866 25.0271 22.0109 24.8632 22.0307 24.6381C22.0506 24.413 21.8585 24.2123 21.6015 24.1896C21.3445 24.1669 21.1202 24.3308 21.1003 24.556Z" fill="#FBEB91"/>
<path d="M18.2332 25.5006C18.2133 25.7257 18.4054 25.9263 18.6624 25.949C18.9194 25.9717 19.1437 25.8078 19.1636 25.5827C19.1835 25.3566 18.9913 25.1569 18.7343 25.1342C18.4773 25.1115 18.2531 25.2744 18.2332 25.5006Z" fill="#FBEB91"/>
<path d="M15.3205 26.3357C15.2829 26.7621 15.6467 27.1436 16.1338 27.1865C16.6219 27.2296 17.048 26.9179 17.0856 26.4915C17.1233 26.0652 16.7594 25.6837 16.2703 25.6406C15.7832 25.5976 15.3581 25.9094 15.3205 26.3357Z" fill="#FBEB91"/>
<path d="M9.47505 26.14C9.45967 26.3143 9.61055 26.4702 9.80878 26.4877C10.009 26.5054 10.1829 26.3782 10.1982 26.2038C10.2137 26.0285 10.0648 25.8728 9.8646 25.8552C9.66646 25.8367 9.49061 25.9637 9.47505 26.14Z" fill="#FBEB91"/>
<path d="M6.3937 26.3268C6.37831 26.5011 6.52711 26.6578 6.72534 26.6753C6.92556 26.693 7.09951 26.5648 7.11489 26.3904C7.13037 26.2151 6.98148 26.0594 6.78126 26.0417C6.58303 26.0243 6.40917 26.1515 6.3937 26.3268Z" fill="#FBEB91"/>
<path d="M8.35514 25.1457C8.33966 25.3211 8.48855 25.4768 8.68877 25.4944C8.88899 25.5121 9.06294 25.3839 9.07832 25.2096C9.09371 25.0353 8.94491 24.8786 8.74469 24.8609C8.54447 24.8432 8.37052 24.9714 8.35514 25.1457Z" fill="#FBEB91"/>
<path opacity="0.4" d="M51.2744 15.8642C51.9838 17.267 52.2631 18.8567 51.2345 20.1824C51.0886 20.3693 50.7927 20.0812 50.8696 19.9153C51.1501 19.3196 51.4042 18.7498 51.5022 18.1059C51.6214 17.3354 51.2855 16.6251 51.1038 15.8863C51.0767 15.7724 51.2307 15.779 51.2744 15.8642Z" fill="white"/>
<path opacity="0.4" d="M46.9862 36.7641C48.5493 35.0238 49.3729 33.165 49.5019 30.9187C49.6194 28.86 49.6674 26.5754 48.7343 24.6248C48.6808 24.5147 48.8263 24.4924 48.8794 24.5844C50.0351 26.5948 50.0684 28.8685 50.0206 31.0478C49.9749 33.1459 49.273 35.7191 47.2283 36.9793C47.1083 37.053 46.8971 36.8647 46.9862 36.7641Z" fill="white"/>
<path opacity="0.4" d="M26.2004 19.1153C28.2901 18.9384 30.0303 18.8872 32.0427 19.654C34.158 20.4601 36.1639 21.5276 37.546 23.1916C37.7039 23.3812 37.4887 23.5339 37.3094 23.3584C35.8368 21.9124 34.2759 21.0016 32.3171 20.1621C30.3506 19.319 28.3365 19.3681 26.2464 19.2539C26.1724 19.2514 26.0972 19.1243 26.2004 19.1153Z" fill="white"/>
<path opacity="0.4" d="M13.3701 25.8784C14.6043 23.6222 18.385 24.7359 19.9095 26.1625C20.0161 26.2622 19.9395 26.4703 19.7715 26.3721C18.8932 25.8589 18.146 25.4195 17.0988 25.1936C15.5807 24.8659 14.8121 25.4646 13.7024 26.1748C13.5247 26.2886 13.2888 26.0268 13.3701 25.8784Z" fill="white"/>
<path opacity="0.4" d="M8.4516 25.5086C9.34423 25.4157 10.4795 25.793 10.9682 26.4776C11.036 26.5729 10.9417 26.7092 10.8148 26.6337C10.1819 26.2526 9.58164 26.0129 8.81128 25.9831C7.92991 25.9484 7.47789 26.4065 6.98693 26.9303C6.80294 27.1269 6.52552 26.8464 6.54179 26.6622C6.60943 25.9072 7.73014 25.5845 8.4516 25.5086Z" fill="white"/>
<path d="M36.9867 22.8179C35.8879 21.8686 34.8477 20.8803 33.842 19.8549C32.4079 18.3942 31.0755 16.8159 29.9557 15.149C29.7236 14.8214 29.4976 14.4922 29.2822 14.158C28.7714 14.4181 28.1632 14.507 27.6062 14.2209C26.5786 13.6935 26.449 12.5336 27.3022 11.864C28.0668 11.2649 28.9288 11.5197 29.5206 12.1622C29.8154 12.4844 30.1211 12.8657 30.2649 13.2609C30.3894 13.6012 30.0879 13.7984 29.7689 13.9329C30.348 14.9006 31.0099 15.8183 31.7237 16.7055C32.6092 17.7163 33.5154 18.7098 34.4793 19.6743C35.2679 20.4647 36.1371 21.1939 37.0204 21.9013C37.6664 22.4181 38.6973 22.988 39.0593 23.6985C39.1785 23.9289 38.774 23.9956 38.6053 23.9506C37.9857 23.7825 37.4325 23.2036 36.9867 22.8179Z" fill="#231F20"/>
<path d="M29.4571 12.5632C29.2947 12.2878 29.1415 12.0324 28.8612 11.831C28.4125 11.5113 27.8495 11.8049 27.5356 12.0974C26.9752 12.6232 27.256 13.4682 27.8945 13.8548C28.5472 14.2507 29.2471 13.6339 29.7803 13.3707C29.7825 13.3689 29.7865 13.3693 29.7886 13.3685C29.7981 13.306 29.7924 13.2343 29.7646 13.1505C29.7011 12.9491 29.5622 12.7481 29.4571 12.5632Z" fill="#434345"/>
<path d="M58.2573 18.5606C58.2173 18.548 58.1818 18.5289 58.1505 18.508C58.1403 18.5101 58.1298 18.5152 58.1208 18.5154C56.8485 21.3746 52.9569 26.146 48.8802 24.8596C48.6419 24.7843 48.6633 24.3606 48.9278 24.3438C53.1378 24.0739 56.2007 21.719 57.761 18.3833C57.0662 17.9525 57.4792 16.958 57.8508 16.4336C58.1064 16.0737 58.5153 15.9 58.9942 16.0356C59.3976 16.1505 59.5612 16.4129 59.5965 16.7182C59.8296 17.1373 59.6213 17.7223 59.3817 18.0826C59.2391 18.2999 58.986 18.4603 58.7179 18.54C58.5569 18.5901 58.4211 18.6162 58.2573 18.5606Z" fill="#231F20"/>
<path d="M58.9504 17.8167C59.2661 17.5725 59.2367 17.1895 59.1856 16.8587C59.1843 16.8505 59.1853 16.8386 59.1862 16.8286C59.1166 16.6849 58.9982 16.5811 58.7654 16.5124C58.4364 16.4181 58.2267 16.6445 58.0945 16.8678C57.993 17.0395 57.9089 17.2198 57.9026 17.416C57.8955 17.6554 58.128 17.7963 58.298 17.9519C58.3148 17.9664 58.3262 17.9855 58.3384 18.0066C58.5604 18.1066 58.7953 17.9365 58.9504 17.8167Z" fill="#434345"/>
</g>
<defs>
<filter id="filter0_d_1_558" x="0.645329" y="3.74731" width="63.0529" height="43.2148" filterUnits="userSpaceOnUse" color-interpolation-filters="sRGB">
<feFlood flood-opacity="0" result="BackgroundImageFix"/>
<feColorMatrix in="SourceAlpha" type="matrix" values="0 0 0 0 0 0 0 0 0 0 0 0 0 0 0 0 0 0 127 0" result="hardAlpha"/>
<feOffset dy="4"/>
<feGaussianBlur stdDeviation="2"/>
<feComposite in2="hardAlpha" operator="out"/>
<feColorMatrix type="matrix" values="0 0 0 0 0 0 0 0 0 0 0 0 0 0 0 0 0 0 0.25 0"/>
<feBlend mode="normal" in2="BackgroundImageFix" result="effect1_dropShadow_1_558"/>
<feBlend mode="normal" in="SourceGraphic" in2="effect1_dropShadow_1_558" result="shape"/>
</filter>
</defs>
</svg>
