<svg width="60" height="97" viewBox="0 0 60 97" fill="none" xmlns="http://www.w3.org/2000/svg">
<path d="M51.4014 69.984C49.5254 61.692 42.1256 56.8045 34.8738 59.0669C27.6221 61.3309 23.2646 69.8876 25.1415 78.1806C27.018 86.4726 34.4173 91.3602 41.6695 89.0967C48.9203 86.8333 53.2773 78.276 51.4014 69.984ZM41.0893 87.9704C34.5107 90.0245 27.7851 85.5239 26.0673 77.9187C24.3496 70.3145 28.2889 62.485 34.867 60.4318C41.4456 58.3786 48.7315 62.6933 50.4502 70.297C52.1675 77.9022 47.6669 85.9162 41.0893 87.9704Z" fill="#877060"/>
<path d="M56.7313 68.5137C54.1817 57.2432 44.1247 50.6004 34.2687 53.6762C24.4133 56.7521 18.4908 68.3818 21.0415 79.6523C23.5916 90.9228 33.6481 97.5656 43.5046 94.4883C53.3595 91.412 59.282 79.7832 56.7313 68.5137ZM42.7155 92.9584C33.7752 95.7485 24.6343 89.6328 22.2997 79.2969C19.9652 68.9615 25.3191 58.3209 34.26 55.5298C43.2003 52.7407 52.3407 58.8563 54.6757 69.1913C57.0103 79.5272 51.6559 90.1663 42.7155 92.9584Z" fill="#FFDCA4"/>
<path d="M55.7413 68.5137C53.1917 57.2432 43.1347 50.6004 33.2787 53.6762C23.4228 56.7521 17.5003 68.3818 20.051 79.6523C22.6011 90.9228 32.6576 97.5656 42.5141 94.4883C52.3695 91.412 58.2915 79.7832 55.7413 68.5137ZM41.7255 92.9584C32.7851 95.7485 23.6443 89.6328 21.3097 79.2969C18.9752 68.9615 24.3291 58.3209 33.2695 55.5298C42.2098 52.7407 52.0911 58.6139 54.4261 68.9489C56.7606 79.2843 50.6659 90.1663 41.7255 92.9584Z" fill="#BF6D4C"/>
<path d="M18.3274 75.1609L47.941 73.8695L46.196 69.0024L32.0823 65.4155C32.0823 65.4155 23.6944 38.8295 16.2577 41.1401C7.00579 44.0159 18.3274 75.1609 18.3274 75.1609Z" fill="#594C40"/>
<path d="M23.8429 32.5474L20.7515 32.7576L21.576 40.7751L24.8738 41.1971L23.8429 32.5474Z" fill="#FABE82"/>
<path d="M42.6913 71.9429L20.787 71.2892L31.5449 67.2607C31.5449 67.2607 52.9644 71.8514 42.6913 71.9429Z" fill="#3D3026"/>
<path d="M50.3773 71.039H36.0422C36.0422 71.039 28.3236 62.1775 33.8371 59.0131C39.3502 55.8487 52.6787 60.1735 52.6787 60.1735L50.3773 71.039Z" fill="#D6AE74"/>
<path d="M48.8138 59.8581C48.8138 58.7614 44.9859 57.8726 40.2643 57.8726C35.5417 57.8726 30.3275 58.5701 30.3275 59.6668C30.3275 60.7634 35.7729 60.0323 40.495 60.0323C45.2166 60.0318 48.8138 60.9547 48.8138 59.8581Z" fill="#EAC78F"/>
<path d="M43.1464 71.0389H27.0706C27.0706 71.0389 23.4014 63.3529 29.5847 60.1885C35.7671 57.024 44.7186 60.886 44.7186 60.886L43.1464 71.0389Z" fill="#EAC78F"/>
<path d="M41.2114 59.8691C41.1841 59.4559 39.4512 59.2495 37.3421 59.4072C35.232 59.5644 33.5444 60.0264 33.5721 60.4386C33.5999 60.8519 35.3322 61.0583 37.4414 60.9006C39.5515 60.7434 41.2396 60.2814 41.2114 59.8691Z" fill="#F9D49D"/>
<path d="M20.787 71.2892C20.787 71.2892 12.4682 41.8503 18.3113 41.5602C24.1544 41.2701 30.1294 65.6228 30.1294 65.6228L20.787 71.2892Z" fill="#3D3026"/>
<path d="M27.0706 70.8278C27.5675 65.0645 28.8789 58.1466 37.1699 57.9587C37.1699 57.9587 31.8111 55.8491 30.5743 54.583C29.3374 53.3165 26.8647 35.9113 22.5364 37.5985C18.2086 39.2875 16.5599 67.8751 27.0706 70.8278Z" fill="#82B8CE"/>
<path d="M29.6908 54.9491C30.1717 55.8136 31.9318 57.0554 34.2887 58.2557L37.1698 57.9593C37.1698 57.9593 31.8111 55.8496 30.5742 54.5836C29.3851 53.3662 27.0525 37.2295 23.027 37.4909C26.2172 38.5589 29.094 53.8768 29.6908 54.9491Z" fill="#629FB2"/>
<path d="M20.9577 39.6199C17.9856 46.5261 17.9759 68.2726 27.071 70.8276L27.0953 70.797C25.3225 69.343 28.8754 62.6793 30.7899 60.1715C21.6782 58.569 20.472 44.1614 20.9577 39.6199Z" fill="#629FB2"/>
<path d="M25.0563 38.2137C23.5731 40.3978 37.3183 43.0088 38.2071 43.3656L38.9825 41.6585C38.9825 41.6585 26.2318 36.4847 25.0563 38.2137Z" fill="#FABE82"/>
<path d="M36.1242 42.2037C35.6896 41.5417 35.3386 40.8641 35.0719 40.2041C30.821 38.6956 25.7114 37.0416 24.9414 38.1733C23.7094 39.9875 32.6867 42.0173 36.6782 42.9723C36.4883 42.7284 36.3019 42.4743 36.1242 42.2037Z" fill="#EFA460"/>
<path d="M32.8985 45.2187L33.3059 38.0015C33.3059 38.0015 24.7875 35.591 24.0954 38.7817C23.4032 41.971 30.9933 44.7636 32.8985 45.2187Z" fill="#82B8CE"/>
<path d="M47.7048 37.0878C48.103 35.8621 38.3571 40.7789 37.0662 41.5577L38.1852 43.3241C38.1852 43.3241 47.2001 38.6435 47.7048 37.0878Z" fill="#FABE82"/>
<path d="M45.1279 66.4196C45.7379 63.6348 45.5003 61.1367 44.5954 60.8422C43.6915 60.5477 42.4639 62.5673 41.854 65.3526C41.2431 68.1388 41.4821 70.6354 42.3855 70.9299C43.2899 71.2244 44.518 69.2063 45.1279 66.4196Z" fill="#AF8043"/>
<path d="M52.9901 66.1041C53.7402 63.093 53.6205 60.3973 52.7224 60.0814C51.8253 59.7669 50.1582 61.4803 49.4076 64.4909C48.6575 67.5016 48.087 70.8295 50.0068 70.9839C50.9501 71.0598 52.24 69.1147 52.9901 66.1041Z" fill="#AF8043"/>
<path d="M51.5206 88.872C52.3354 89.1884 43.4238 63.4304 43.4238 63.4304L42.2312 68.8729C42.2312 68.8729 49.6387 88.1404 51.5206 88.872Z" fill="#FABE82"/>
<path d="M44.9712 68.0176C43.3883 63.3242 43.0699 62.54 43.0699 62.54C42.0288 63.939 41.5522 65.8525 42.0137 68.6703C42.0137 68.6703 43.5684 72.3502 45.2506 76.4064C44.5453 73.3413 44.5054 69.2447 44.9712 68.0176Z" fill="#EFA460"/>
<path d="M56.6701 86.9912C57.5365 86.9912 49.8272 62.9636 49.8272 62.9636L48.9462 68.4655C48.9462 68.4655 54.8876 86.9912 56.6701 86.9912Z" fill="#FABE82"/>
<path d="M51.451 68.1394C49.9951 63.4202 49.8271 62.9636 49.8271 62.9636C48.9962 65.026 48.7524 66.8275 48.9461 68.4655C48.9461 68.4655 50.3168 72.7407 51.9397 77.1839C52.0078 75.1916 50.5081 70.3906 51.451 68.1394Z" fill="#EFA460"/>
<path d="M25.4433 40.7569C25.8659 39.9971 25.4064 38.7339 24.3778 37.9113C23.3079 37.0551 22.0496 37.0122 21.6125 37.8417C21.1769 38.6643 21.7406 39.9859 22.8265 40.772C23.8701 41.5274 25.0242 41.5109 25.4433 40.7569Z" fill="#FABE82"/>
<path d="M50.5168 87.7382L50.9257 86.7817C50.9257 86.7817 57.1207 90.061 53.5664 90.6135C50.6502 91.0667 50.5168 87.7382 50.5168 87.7382Z" fill="#EDD5B2"/>
<path d="M55.4688 85.23L55.9872 84.7612C55.9872 84.7612 62.0722 87.5528 58.5183 88.1058C55.6026 88.5589 55.4688 85.23 55.4688 85.23Z" fill="#EDD5B2"/>
<path d="M39.5044 75.7756H17.42V76.7166H39.5044V75.7756Z" fill="#AF9785"/>
<path d="M41.0777 76.4434C40.899 75.1394 39.9912 74.1995 39.0488 74.3416C38.107 74.4852 37.4883 75.6573 37.6664 76.9614C37.8451 78.2659 38.7524 79.2063 39.6948 79.0632C40.6367 78.9196 41.2563 77.7475 41.0777 76.4434Z" fill="#AF9785"/>
<path d="M18.3001 76.4434C18.1209 75.1394 17.2136 74.1995 16.2707 74.3416C15.3293 74.4852 14.7102 75.6573 14.8883 76.9614C15.0675 78.2659 15.9748 79.2063 16.9172 79.0632C17.859 78.9196 18.4782 77.7475 18.3001 76.4434Z" fill="#AF9785"/>
<path d="M17.42 61.878C17.42 61.878 29.8982 60.1018 31.4831 61.9826C33.0675 63.8635 36.4344 74.3128 36.4344 74.3128L18.3274 75.1607L17.42 61.878Z" fill="#594C40"/>
<path d="M15.7368 66.4405C15.7368 66.4405 24.9804 65.7444 26.6306 74.4521L18.3274 75.1608L15.7368 66.4405Z" fill="#726051"/>
<path d="M38.67 68.7136C36.2649 57.1009 26.2985 50.2434 16.4094 53.3976C6.52038 56.5528 0.453861 68.5247 2.85944 80.1374C5.26502 91.7506 15.2315 98.6071 25.1205 95.4538C35.0096 92.2977 41.0756 80.3263 38.67 68.7136ZM24.3519 93.8743C15.3809 96.7365 6.32422 90.4236 4.12162 79.7723C1.92 69.1225 7.40532 58.1689 16.3768 55.3072C25.3474 52.446 34.4041 58.7588 36.6067 69.4092C38.8088 80.0585 33.323 91.0121 24.3519 93.8743Z" fill="#BF6D4C"/>
<path d="M37.6795 68.8179C35.2739 57.2052 25.308 50.3482 15.4194 53.5024C5.53036 56.6576 -0.536646 68.6295 1.86893 80.2422C4.27451 91.8553 14.2405 98.7119 24.1305 95.5586C34.0191 92.4025 40.0851 80.4306 37.6795 68.8179ZM23.3619 93.9786C14.3909 96.8408 5.33371 90.528 3.1316 79.8766C0.929493 69.2268 6.41579 58.2727 15.3868 55.4115C24.3569 52.5503 33.414 58.8631 35.6166 69.513C37.8187 80.1628 32.3329 91.1169 23.3619 93.9786Z" fill="#FFDCA4"/>
<path d="M32.863 70.2475C30.9719 61.1168 23.1351 55.7249 15.36 58.206C7.58399 60.686 2.81422 70.1005 4.70529 79.2307C6.59636 88.3623 14.4332 93.7537 22.2092 91.2732C29.9848 88.7917 34.7541 79.3782 32.863 70.2475ZM21.6047 90.0314C14.551 92.2822 7.42921 87.3182 5.69731 78.9435C3.9659 70.5692 8.27958 61.9569 15.3337 59.7066C22.3864 57.4559 29.5082 62.4199 31.2406 70.7941C32.972 79.1689 28.6588 87.7811 21.6047 90.0314Z" fill="#877060"/>
<path d="M17.2696 76.5403C17.1562 75.7206 16.5857 75.1312 15.9948 75.2197C15.4038 75.3103 15.0164 76.0472 15.1293 76.8665C15.2422 77.6862 15.8127 78.2766 16.4037 78.1866C16.9946 78.097 17.3825 77.3596 17.2696 76.5403Z" fill="#E5CDBD"/>
<path d="M48.4539 38.0443C48.6506 38.0316 48.9543 38.0472 49.2571 38.0472C49.795 38.0457 50.3416 37.7906 50.2924 37.5497C50.2496 37.3477 49.8548 37.5477 49.4727 37.5565C49.1369 37.5643 49.0215 37.5765 49.0123 37.4854C49.0059 37.4202 49.425 37.3224 49.8894 37.1949C50.4823 37.0328 50.8508 36.8166 50.7889 36.5747C50.73 36.342 50.3718 36.5611 49.8212 36.6516C49.3432 36.7285 49.1408 36.7943 49.0765 36.5635C49.0463 36.456 49.354 36.3644 49.8018 36.1147C50.3202 35.8256 50.5845 35.5068 50.4881 35.3335C50.3509 35.0808 50.199 35.3997 49.5633 35.6435C48.7455 35.9609 48.3532 36.1829 47.8411 35.9916C47.367 35.8124 48.7538 34.7839 48.3215 34.2514C48.1288 34.0173 46.0445 36.4078 46.4894 37.246C46.7658 37.7683 47.001 38.1406 48.4539 38.0443Z" fill="#FABE82"/>
<path d="M33.1546 46.1084L34.0911 37.5643L32.1665 37.1252L31.6442 45.1325L33.1546 46.1084Z" fill="#B1E3F2"/>
<path d="M19.6776 41.2233C17.3767 42.2533 28.1069 50.1895 31.0552 50.3711L30.3908 47.7299C30.3908 47.7299 21.4991 40.4041 19.6776 41.2233Z" fill="#FABE82"/>
<path d="M28.3862 47.9547C28.3823 47.3526 28.4188 46.7709 28.4899 46.2233C25.7737 44.1264 20.9645 40.6451 19.6775 41.2233C17.8424 42.0455 24.2984 47.2587 28.4816 49.4272C28.4246 48.9565 28.3896 48.4644 28.3862 47.9547Z" fill="#EFA460"/>
<path d="M25.5538 49.9909L27.8348 43.1729C27.8348 43.1729 20.7514 38.4727 19.2517 41.3368C17.751 44.2014 23.8414 48.9984 25.5538 49.9909Z" fill="#82B8CE"/>
<path d="M42.8582 48.4366C43.0305 48.5412 43.2812 48.7398 43.5406 48.9219C44.0045 49.2499 44.6022 49.3337 44.6743 49.063C44.7342 48.8362 44.2941 48.7938 43.9597 48.569C43.6667 48.3733 43.5611 48.3168 43.5961 48.2209C43.6209 48.1528 44.0288 48.3105 44.4922 48.4653C45.0909 48.6649 45.5232 48.6756 45.587 48.3947C45.6478 48.1255 45.2234 48.1255 44.6947 47.8821C44.2416 47.6699 44.0347 47.6139 44.0882 47.3486C44.114 47.2226 44.4246 47.3156 44.9362 47.334C45.5349 47.3564 45.9272 47.1948 45.9277 46.9612C45.9282 46.6244 45.6356 46.8526 44.9551 46.7193C44.0907 46.5518 43.6467 46.5445 43.3006 46.0534C42.9823 45.6021 44.6607 45.3812 44.5385 44.596C44.4849 44.2499 41.6038 45.4337 41.5872 46.5041C41.576 47.172 41.5999 47.6699 42.8582 48.4366Z" fill="#FABE82"/>
<path d="M43.1658 46.0203C43.7305 45.1627 31.4042 47.6671 30.0354 47.7863L31.0157 50.3418C31.0157 50.3418 41.7357 48.1918 43.1658 46.0203Z" fill="#FABE82"/>
<path d="M25.9997 50.8671L24.2892 49.8985L27.5305 42.5532L28.5381 43.1953L25.9997 50.8671Z" fill="#B1E3F2"/>
<path d="M29.4391 37.2402C24.5949 36.713 24.7015 38.1996 24.4946 38.019L23.9056 33.0745C23.8672 33.0745 23.8292 33.0735 23.7908 33.0735C22.7588 33.0735 21.7566 33.1275 20.7996 33.2288L21.3657 38.7409C21.0975 39.3581 21.0094 39.8916 20.6351 40.3632C19.8217 40.3632 15.5625 43.6085 26.7863 42.2699C26.3122 41.418 29.0979 37.7294 29.4391 37.2402Z" fill="#A58171"/>
<path d="M10.1482 0.0437935C6.0127 0.289122 6.11979 3.00039 7.26027 4.45532C5.94018 3.95493 4.60353 3.87705 3.60323 4.82477C1.70145 6.62677 4.10459 9.45387 5.94114 11.1561C4.84641 10.552 3.44163 10.3816 2.38 12.3496C1.32908 14.2981 2.14684 15.7857 3.17293 16.7646C1.97014 16.1984 0.59456 16.0256 0.0936824 17.7809C-0.405249 19.5279 3.01181 22.4991 4.69163 22.7683C4.02476 24.1609 6.37485 29.4924 7.3732 30.517C9.44778 32.6461 12.9598 35.4202 13.7274 38.9565L28.6788 18.4118C28.6788 18.4118 28.4305 -1.04169 10.1482 0.0437935Z" fill="#7C4D23"/>
<path d="M16.6197 12.0376C13.9381 11.6433 4.34207 8.66239 2.86864 11.62C2.70022 11.8225 2.5357 12.0595 2.37945 12.3496C1.32853 14.2981 2.14628 15.7857 3.17238 16.7645C1.96959 16.1984 0.594006 16.0256 0.0931283 17.7809C-0.405803 19.5279 1.18103 25.1758 2.86133 25.4445C0.678694 32.7951 7.74746 38.6951 14.4984 39.7017L15.8292 34.3722C13.1062 30.9843 10.9654 25.4021 10.229 18.9219C10.08 17.6057 16.644 13.2969 16.6197 12.0376Z" fill="#663E1D"/>
<path d="M10.9163 29.2655C7.802 29.2655 4.93498 28.1718 2.64477 26.3376C1.26139 33.2677 8.023 38.7364 14.4984 39.7017L15.8292 34.3721C14.7023 32.9703 13.6777 31.1873 12.8083 29.1258C12.1902 29.2154 11.5588 29.2655 10.9163 29.2655Z" fill="#543015"/>
<path d="M36.9011 30.6007C36.1126 22.887 22.1698 9.62123 15.2471 12.4148C-0.859415 18.913 11.204 27.1748 11.6942 31.6438C12.5382 39.3502 15.4388 43.5515 19.7 43.6926C28.1375 43.9706 37.6882 38.3129 36.9011 30.6007Z" fill="#FABE82"/>
<path opacity="0.3" d="M36.9011 30.6007C36.1126 22.887 22.1698 9.62123 15.2471 12.4148C-0.859415 18.913 11.204 27.1748 11.6942 31.6438C12.5382 39.3502 15.4388 43.5515 19.7 43.6926C28.1375 43.9706 37.6882 38.3129 36.9011 30.6007Z" fill="url(#paint0_linear_1_5669)"/>
<path d="M12.4593 35.9011C9.06854 36.5786 6.90633 35.5394 7.42035 34.3858C7.9334 33.2331 12.013 30.0166 12.9042 30.2293C13.7945 30.4406 12.4593 35.9011 12.4593 35.9011Z" fill="#FABE82"/>
<path d="M8.66458 34.1654C9.00726 33.3948 11.3685 31.4599 12.5085 30.9892C12.4881 30.9732 12.4652 30.9595 12.4394 30.9527C11.736 30.7853 8.51661 33.3218 8.11162 34.2311C7.72854 35.0897 9.22875 35.8666 11.648 35.5025C9.55731 35.6787 8.31119 34.9568 8.66458 34.1654Z" fill="#EFA460"/>
<path d="M11.2746 33.9569C11.1558 33.5938 11.3437 33.1907 11.7044 32.9396C11.5326 32.9211 11.3471 32.9371 11.1626 33.0009C10.597 33.1937 10.2597 33.7232 10.4096 34.1847C10.56 34.6442 11.1407 34.8608 11.7068 34.6671C11.8271 34.6267 11.9332 34.5678 12.0305 34.5006C11.6733 34.4631 11.3758 34.2675 11.2746 33.9569Z" fill="#EFA460"/>
<path d="M13.1223 32.4607C13.1223 32.4607 9.68629 16.3006 16.06 12.0332C16.06 12.0332 1.82605 16.0894 5.68997 23.494C8.86852 29.5844 11.8986 32.9805 11.8986 32.9805L13.1223 32.4607Z" fill="#663E1D"/>
<path d="M29.8611 34.9359C29.9234 34.7967 29.9151 34.6453 29.8358 34.5285C29.7589 34.4107 29.6226 34.3416 29.4663 34.3435L23.8754 34.3771C23.7108 34.3781 23.5468 34.4526 23.4329 34.5767C23.32 34.6984 23.2679 34.8585 23.2927 35.0094C23.5268 36.4118 24.2283 39.2998 25.8424 39.1528C27.6721 38.9843 29.2653 36.2614 29.8611 34.9359Z" fill="#542C23"/>
<path d="M28.2913 36.1449C28.5391 35.6956 28.7854 35.1938 29.0278 34.6243L23.6038 34.7211C23.6038 34.7211 23.5916 35.3505 23.7868 36.2252L28.2913 36.1449Z" fill="#FFEDDE"/>
<g style="mix-blend-mode:luminosity">
<path d="M25.4547 31.9885C25.3223 31.3299 26.2706 31.1834 27.5035 30.8821C28.737 30.5803 29.7879 30.2391 29.9208 30.8967C30.0522 31.5548 29.159 32.3307 27.926 32.6325C26.6935 32.9343 25.5867 32.6456 25.4547 31.9885Z" fill="#EFA460"/>
</g>
<path d="M20.8336 32.5526C20.9349 33.1382 20.2641 33.6118 19.3568 33.8007C18.4495 33.99 17.6507 33.8211 17.549 33.2336C17.4487 32.649 18.1015 32.0211 19.0088 31.8327C19.9146 31.6453 20.7329 31.9666 20.8336 32.5526Z" fill="#EFA460"/>
<path d="M35.6483 31.469C35.749 32.0541 35.0787 32.5287 34.1714 32.7166C33.2641 32.9055 32.4653 32.7371 32.3626 32.151C32.2628 31.5654 32.9156 30.937 33.8224 30.7491C34.7297 30.5603 35.547 30.882 35.6483 31.469Z" fill="#EFA460"/>
<g style="mix-blend-mode:luminosity">
<path d="M24.9171 32.2018C24.8051 31.7501 25.7397 31.5272 26.9581 31.1572C28.175 30.7897 29.2166 30.4135 29.3271 30.8662C29.4386 31.3198 28.542 31.9852 27.3236 32.3537C26.1057 32.7231 25.0271 32.6555 24.9171 32.2018Z" fill="#FABE82"/>
</g>
<path d="M19.443 27.0035C19.4343 25.058 20.6857 23.4239 22.129 23.4336C23.5713 23.4439 24.2484 24.9587 24.2561 26.9047C24.2639 28.8508 23.1833 29.2242 21.7415 29.2144C20.2993 29.2042 19.4503 28.9501 19.443 27.0035Z" fill="#B76A4F"/>
<path d="M19.6162 27.3302C19.6085 25.3841 20.8594 23.7491 22.3017 23.7588C23.7454 23.7691 24.4216 25.2858 24.4293 27.2304C24.4376 29.176 23.3565 29.5498 21.9152 29.5391C20.471 29.5294 19.624 29.2748 19.6162 27.3302Z" fill="#FFF9E9"/>
<path d="M27.7062 26.0398C27.4424 24.1161 28.2928 22.4309 29.5218 22.3652C30.7538 22.299 31.5302 23.7632 31.7936 25.6883C32.0589 27.6144 31.1871 28.0408 29.9561 28.107C28.7255 28.1728 27.9696 27.9669 27.7062 26.0398Z" fill="#B76A4F"/>
<path d="M27.8965 26.3537C27.6327 24.4285 28.4836 22.7439 29.7146 22.6782C30.9446 22.6124 31.7225 24.0752 31.9853 26.0008C32.2491 27.9274 31.3788 28.3533 30.1478 28.419C28.9163 28.4857 28.1603 28.2793 27.8965 26.3537Z" fill="#FFF9E9"/>
<path d="M28.1931 20.2269C28.879 20.1111 29.5955 20.3642 30.3655 21.071L30.4955 21.951C29.7259 21.3007 29.0372 20.9989 28.3786 21.0588L28.1931 20.2269Z" fill="#4C2E22"/>
<path d="M22.332 20.843L22.5116 21.6462C21.635 21.7576 20.7359 22.3067 19.7278 23.3099L19.4333 22.3067C20.4171 21.4597 21.3687 20.9321 22.332 20.843Z" fill="#4C2E22"/>
<path d="M21.7508 27.1301C21.7464 26.1624 22.3597 25.3812 23.119 25.3885C23.8779 25.3929 24.4976 26.1809 24.5014 27.1491C24.5049 28.1163 23.893 28.8966 23.1332 28.8907C22.3743 28.8849 21.7546 28.0978 21.7508 27.1301Z" fill="#81ADC9"/>
<path d="M29.4367 26.8678C29.1626 25.9479 29.5253 24.9889 30.2457 24.7227C30.9651 24.4584 31.7692 24.9889 32.0438 25.9099C32.3168 26.8299 31.9547 27.7908 31.2353 28.0546C30.5153 28.3203 29.7098 27.7878 29.4367 26.8678Z" fill="#81ADC9"/>
<path d="M30.6973 25.6055C30.6097 25.3115 30.7587 24.9946 31.0313 24.8944C31.3019 24.7946 31.5915 24.9508 31.6796 25.2444C31.7658 25.5364 31.6173 25.8548 31.3452 25.9545C31.0751 26.0548 30.785 25.8986 30.6973 25.6055Z" fill="#AED1E5"/>
<path d="M23.1731 26.2734C23.1721 25.9653 23.4029 25.7171 23.69 25.719C23.9763 25.721 24.2099 25.9726 24.2104 26.2802C24.2119 26.5879 23.9806 26.8352 23.693 26.8332C23.4082 26.8317 23.1741 26.5816 23.1731 26.2734Z" fill="#AED1E5"/>
<g style="mix-blend-mode:saturation">
<path d="M25.5475 29.503C25.5188 28.5675 23.9801 27.8534 22.1105 27.9074C20.2413 27.961 18.7504 28.7646 18.7786 29.7002C18.8078 30.6377 20.4024 29.9027 22.2721 29.8486C24.1408 29.7941 25.5767 30.4405 25.5475 29.503Z" fill="#FABE82"/>
</g>
<g style="mix-blend-mode:saturation">
<path d="M33.5873 28.9598C33.5591 28.0243 32.019 27.3088 30.1498 27.3633C28.2802 27.4178 26.7882 28.2205 26.8179 29.1565C26.8467 30.0925 28.4428 29.3575 30.3105 29.304C32.1796 29.2485 33.6156 29.8964 33.5873 28.9598Z" fill="#FABE82"/>
</g>
<defs>
<linearGradient id="paint0_linear_1_5669" x1="20.8381" y1="32.186" x2="18.4832" y2="45.2092" gradientUnits="userSpaceOnUse">
<stop stop-color="#C04B00"/>
<stop offset="1" stop-color="#B73400"/>
</linearGradient>
</defs>
</svg>
