<svg width="40" height="32" viewBox="0 0 40 32" fill="none" xmlns="http://www.w3.org/2000/svg">
<path d="M21.2174 24.8077C20.9505 24.7038 20.6511 25.0256 20.5248 25.2945C20.4665 25.3135 20.4121 25.3522 20.3762 25.4017C19.3578 25.7256 17.7691 26.4405 17.3156 25.0107C16.9883 23.9801 17.4745 22.5896 17.5899 21.5326C17.6082 21.3554 17.3339 21.4748 17.3034 21.5835C16.9469 22.8334 16.2252 24.6787 17.0657 25.8777C17.7223 26.8125 19.3598 26.3638 20.275 25.8797C20.2153 26.2721 20.1691 26.6747 20.1596 27.0624C20.1528 27.3217 20.1929 27.797 20.4556 27.9416C21.2431 28.3747 21.713 27.1262 21.7659 26.5702C21.8128 26.0793 21.7639 25.0209 21.2174 24.8077Z" fill="#231F20"/>
<path d="M20.736 27.5423C20.6512 27.4533 20.6349 27.2483 20.6247 27.1383C20.5704 26.5931 20.789 26.0561 20.7415 25.5102C20.8637 25.369 20.9547 25.1457 21.0144 25.1681C21.3444 25.2923 21.3566 26.0676 21.3647 26.3453C21.3715 26.5979 21.3491 26.8369 21.2853 27.0826C21.2479 27.2266 20.9893 27.8057 20.736 27.5423Z" fill="#434345"/>
<path d="M25.5204 21.652C25.3364 21.7728 25.4036 22.1048 25.5163 22.3044C25.502 22.3485 25.502 22.4008 25.5163 22.4456C25.2644 23.2298 25.0017 24.5476 23.8998 24.1925C23.1068 23.9359 22.4516 23.0078 21.8393 22.4626C21.7374 22.3716 21.6878 22.597 21.7435 22.6656C22.3681 23.4491 23.2032 24.7288 24.3329 24.7377C25.2135 24.7445 25.6656 23.5156 25.7716 22.7233C25.9902 22.9365 26.2224 23.1456 26.4613 23.3255C26.6216 23.4457 26.9386 23.6337 27.1471 23.5333C27.7717 23.2325 27.1973 22.3791 26.8728 22.0967C26.5849 21.8468 25.8985 21.4035 25.5204 21.652Z" fill="#231F20"/>
<path d="M27.0213 23.1781C26.9283 23.1924 26.7932 23.1095 26.7192 23.0674C26.3519 22.857 26.1129 22.4795 25.7483 22.2643C25.7137 22.1244 25.6159 21.9669 25.6553 21.9391C25.8807 21.7877 26.3743 22.1271 26.5515 22.2466C26.7131 22.3553 26.8536 22.4768 26.9799 22.6268C27.0532 22.7151 27.301 23.1374 27.0213 23.1781Z" fill="#434345"/>
<path d="M24.523 12.7601C23.0355 12.0656 21.4849 11.8232 19.9641 12.1036C18.3917 12.3935 16.9911 13.1953 15.7262 14.0908C14.6909 14.8233 13.9468 15.7976 13.4043 16.9232V16.9036C13.3276 17.2457 13.2387 17.5845 13.1654 17.928C13.1443 18.6857 13.2088 19.4468 13.534 20.1861C13.7954 20.7802 14.2102 21.3254 14.5246 21.897C14.8457 22.4802 15.1784 23.0749 15.5918 23.6018C16.3678 24.5903 17.5838 25.0411 18.6918 25.388C19.9077 25.7689 21.1515 25.9156 22.3383 25.6453C24.6575 25.1178 26.5645 23.2372 27.8694 21.3505C28.4981 20.4421 29.2049 19.383 29.3026 18.1969C29.3848 17.2043 29.0385 16.2939 28.3915 15.4832C27.4234 14.268 25.8707 13.3888 24.523 12.7601Z" fill="#231F20"/>
<path d="M28.5434 19.8392C27.3927 22.1231 25.3607 24.2556 22.9742 25.1681C21.9239 25.5693 20.8051 25.5863 19.655 25.3602C18.4485 25.1232 17.1063 24.6901 16.1198 23.8333C15.1503 22.9914 14.6031 21.5833 13.9358 20.5093C13.3098 19.5024 13.3098 18.425 13.375 17.3516C13.5012 17.0807 13.6309 16.8119 13.7769 16.5512C14.1455 15.8899 14.6439 15.3223 15.1904 14.8179C16.1239 13.957 17.3229 13.2828 18.5042 12.8049C19.6217 12.3527 20.8404 12.1409 22.0937 12.2882C23.3375 12.4335 24.5521 12.9868 25.6662 13.6393C26.7137 14.2523 27.7878 14.9666 28.5142 15.9863C29.4281 17.2674 29.1456 18.6443 28.5434 19.8392Z" fill="#F2C504"/>
<path d="M26.1728 23.0627C26.1844 22.6601 26.1674 22.2643 26.1532 21.9133C26.0934 20.5548 25.9359 19.1909 25.5897 17.8744C25.0947 15.987 24.1286 13.6875 22.5094 12.3534C22.3716 12.3276 22.2324 12.3046 22.0946 12.2883C21.1373 12.1762 20.2011 12.274 19.3151 12.5272C21.5508 13.8165 22.711 16.579 23.3485 18.9743C23.7342 20.4204 23.9066 21.8984 23.8272 23.3941C23.8034 23.8517 23.7715 24.3615 23.6785 24.8544C24.5828 24.4063 25.4247 23.7878 26.1728 23.0627Z" fill="#FDB515"/>
<path d="M26.337 14.0494C26.4511 14.2436 26.5597 14.4412 26.6595 14.6449C27.1884 15.7325 27.5469 16.886 27.7506 18.0775C27.9047 18.9723 27.9916 19.8936 27.9909 20.8129C28.1912 20.4931 28.3779 20.1686 28.5435 19.8386C29.1457 18.6437 29.4282 17.2668 28.5143 15.9857C27.9427 15.1846 27.1565 14.5729 26.337 14.0494Z" fill="#FDB515"/>
<path opacity="0.3" d="M25.7595 13.7588C25.0065 13.3182 24.2081 12.9264 23.386 12.6711C24.2848 13.1471 25.0914 13.7832 25.6929 14.6156C26.693 15.9992 27.1051 17.706 26.5945 19.364C26.1268 20.88 25.0255 22.2752 23.5238 22.8699C22.1537 23.4124 20.5257 23.4511 19.3151 22.5148C19.2581 22.4707 19.3151 22.3906 19.3708 22.3831C19.9662 22.2989 19.343 21.8699 19.1841 21.6037C19.1603 21.5637 19.1868 21.5114 19.2289 21.4964C19.4665 21.4102 19.6865 21.3966 19.9187 21.4299C19.6227 21.0769 19.195 20.8739 18.9071 20.5039C18.867 20.4523 18.9349 20.4 18.9777 20.3871C19.2113 20.3165 19.4258 20.3375 19.6485 20.3905C19.3728 19.8548 18.9893 19.3931 18.5982 18.9349C18.548 18.8772 18.6444 18.8154 18.6926 18.8154C18.8039 18.8154 18.8969 18.829 18.9872 18.8548C18.6939 18.4196 18.29 18.0828 17.8853 17.7461C17.8297 17.6999 17.884 17.6239 17.941 17.6144C18.0815 17.5906 18.2166 17.5893 18.3531 17.5981C18.1345 17.3177 17.848 17.1181 17.5459 16.9253C17.4766 16.8811 17.5072 16.7976 17.5846 16.7813C17.6918 16.7583 17.7977 16.7386 17.9057 16.7229C17.1922 15.8858 15.8825 15.3366 14.7446 15.4792C14.4133 15.8417 14.1132 16.2348 13.8709 16.67C13.7263 16.93 13.5966 17.1996 13.4703 17.4698C13.4051 18.5438 13.4051 19.6206 14.0311 20.6274C14.6985 21.7015 15.2457 23.1102 16.2152 23.9514C17.2017 24.8075 18.5439 25.2407 19.749 25.4783C20.8997 25.7044 22.0179 25.6868 23.0682 25.2855C25.4567 24.373 27.488 22.2412 28.6388 19.9573C29.241 18.7624 29.5234 17.3849 28.6096 16.1044C27.8811 15.0861 26.8057 14.3718 25.7595 13.7588Z" fill="#434345"/>
<path d="M21.605 25.477C21.6193 25.4016 21.6329 25.3324 21.6451 25.276C21.7775 24.6256 21.9581 23.9976 21.9845 23.3282C22.0402 21.8889 21.6912 20.3993 21.1807 19.0591C20.6783 17.7434 19.979 16.4765 19.0591 15.4038C18.5872 14.8539 18.0549 14.323 17.4161 13.9686C17.1785 13.8362 16.9388 13.7601 16.6944 13.7045C16.1533 14.0317 15.64 14.4024 15.1906 14.8179C15.1335 14.8702 15.0792 14.9231 15.0236 14.9761C16.729 15.5491 18.0312 17.4861 18.7549 18.9817C19.4481 20.4156 19.812 21.9907 19.9165 23.5773C19.9552 24.1626 19.9681 24.7885 19.9023 25.4023C20.4801 25.4987 21.049 25.5279 21.605 25.477Z" fill="#FDB515"/>
<path opacity="0.8" d="M24.2081 13.6943C21.8489 11.9454 18.2248 12.701 16.1751 14.5789C16.0665 14.678 16.1351 15.0141 16.3102 14.8993C18.5873 13.3996 21.5875 12.8443 24.0859 14.0826C24.2903 14.1844 24.3487 13.7981 24.2081 13.6943Z" fill="white"/>
<path d="M29.3352 5.93227C27.4498 6.18143 25.7016 7.29011 24.267 8.47347C23.4754 9.12523 22.6641 9.91482 22.0286 10.8056C21.8188 11.2034 21.533 11.5632 21.3538 11.9801C21.2411 12.2388 21.1311 12.5029 21.034 12.7704C20.9994 12.8871 20.9675 13.0053 20.941 13.1241C20.9145 13.1777 20.8921 13.232 20.8683 13.2863C20.8364 13.4004 20.8045 13.5131 20.7807 13.6292C20.6069 14.4351 20.6558 15.1649 21.0129 15.7563C21.0564 15.8208 21.1005 15.8859 21.1535 15.9477C22.0537 17.0055 23.6573 17.1012 24.9432 17.2282C25.2392 17.2567 25.5373 17.2791 25.838 17.2967C26.3723 17.3164 26.9094 17.3232 27.4396 17.3273C28.2339 17.3103 29.0296 17.2424 29.8131 17.1114C32.5763 16.5615 35.2764 14.9429 35.9356 12.048C36.859 7.98872 33.0326 5.44548 29.3352 5.93227ZM28.219 16.7984C26.5896 16.867 24.855 16.8174 23.252 16.5051C22.6593 16.3904 22.0972 16.165 21.6844 15.7644C21.2322 15.4528 20.9362 15.0054 20.996 14.3597C20.9946 14.0006 21.089 13.6387 21.2343 13.2843C21.3538 12.9306 21.5072 12.5904 21.6919 12.2659C21.6864 12.2659 21.6824 12.2632 21.6762 12.2632C23.0049 9.66565 25.8917 7.47749 28.5279 6.69469C31.7833 5.72723 35.6179 7.87194 35.3463 11.5042C35.089 14.9382 31.1866 16.6735 28.219 16.7984Z" fill="#231F20"/>
<path opacity="0.6" d="M35.3463 11.5036C35.6179 7.87135 31.7833 5.72664 28.5279 6.6941C25.8916 7.4769 23.0049 9.66506 21.6762 12.2626C21.683 12.2626 21.6871 12.2653 21.6918 12.2653C21.5078 12.5899 21.3537 12.9293 21.2342 13.2837C21.0883 13.6381 20.9939 14 20.9959 14.3591C20.9362 15.0055 21.2322 15.4522 21.6844 15.7638C22.0965 16.1644 22.6593 16.3898 23.252 16.5045C24.8549 16.8161 26.5896 16.8664 28.219 16.7978C31.1865 16.6736 35.089 14.9382 35.3463 11.5036Z" fill="#B9E5FB"/>
<path opacity="0.6" d="M35.3463 11.5035C35.5303 9.03497 33.8174 7.25416 31.6788 6.67029C31.7481 6.95 31.7637 7.24669 31.7515 7.52845C31.672 9.35339 30.7623 10.9937 29.452 12.2381C27.866 13.7487 25.3689 15.2763 23.0728 14.9558C22.2798 14.8465 21.438 14.5064 21.0775 13.7603C21.0272 13.9605 20.9953 14.1595 20.9967 14.3598C20.9369 15.0061 21.2329 15.4528 21.6851 15.7644C22.0972 16.165 22.66 16.3904 23.2527 16.5051C24.8557 16.8168 26.5903 16.867 28.2197 16.7984C31.1866 16.6735 35.089 14.9382 35.3463 11.5035Z" fill="#B9E5FB"/>
<path opacity="0.6" d="M30.1473 13.7922C31.1806 13.4636 32.2132 13.1323 33.1814 12.6387C33.2262 12.6149 33.2228 12.543 33.1658 12.5694C32.2506 13.0033 31.2919 13.3163 30.3265 13.615C29.6951 13.8098 29.0617 13.9965 28.4181 14.1378C29.281 12.8173 30.5858 12.1071 31.8269 11.1973C31.8772 11.1607 31.8391 11.1009 31.7882 11.1369C30.5818 11.9863 28.9279 12.7371 28.2836 14.1669C27.822 14.2634 27.3555 14.3353 26.881 14.3659C24.9637 14.4901 23.0702 13.7806 21.2412 14.5987C21.5406 14.1534 21.8882 13.7555 22.2677 13.3903C23.7844 12.6516 25.4104 12.1797 26.921 11.4132C28.3135 10.7065 29.6578 9.86734 30.9851 9.0438C31.0285 9.01665 30.9959 8.9698 30.9518 8.99492C29.5342 9.79537 28.158 10.6705 26.699 11.3949C25.9699 11.7568 25.2203 12.0718 24.4606 12.3651C23.7953 12.6217 23.1197 12.8383 22.4945 13.1791C23.2039 12.5382 24.0023 11.9876 24.7804 11.4132C25.4077 10.9509 25.9766 10.4308 26.5585 9.91486C27.2788 9.27599 28.082 8.78649 28.8777 8.2515C28.9469 8.20466 28.8946 8.12862 28.8234 8.17071C28.103 8.59639 27.4017 9.0438 26.7574 9.57811C25.9549 10.2448 25.2074 10.9509 24.3629 11.5674C23.0512 12.524 21.7069 13.467 20.9431 14.9436C20.9194 14.9878 20.9961 14.9864 21.0144 14.9559C21.0606 14.8751 21.1129 14.8004 21.1617 14.7237C21.1658 14.723 21.1672 14.725 21.1726 14.723C21.2154 14.704 21.2575 14.6877 21.3009 14.6707C21.2982 14.6829 21.3009 14.6958 21.3206 14.7026C22.4028 15.112 23.4796 15.9403 24.6623 15.9899C24.7057 15.9912 24.7512 15.9158 24.6914 15.9125C23.4809 15.8466 22.5854 14.8499 21.4163 14.6245C22.599 14.188 23.8136 14.315 25.0377 14.427C25.9264 14.8527 26.885 15.0013 27.8491 15.1765C28.8689 15.3625 29.9069 15.423 30.9443 15.4196C31.0109 15.4196 31.0835 15.3048 30.9905 15.2987C29.9578 15.2403 28.9469 15.2356 27.9231 15.0638C27.0521 14.9172 26.2258 14.725 25.3941 14.4582C26.016 14.5105 26.6379 14.5451 27.2598 14.4867C28.247 14.3951 29.207 14.0916 30.1473 13.7922Z" fill="#90B2C3"/>
<path opacity="0.6" d="M30.9875 7.05368C28.024 6.75428 24.8107 8.95263 23.2302 11.3295C23.1107 11.5088 23.3666 11.5665 23.478 11.4511C25.5317 9.29209 27.8129 7.34901 30.9366 7.18607C31.0059 7.182 31.0921 7.06387 30.9875 7.05368Z" fill="white"/>
<path opacity="0.6" d="M22.6308 12.2714C22.5446 12.4296 22.4095 12.5593 22.3552 12.7324C22.3036 12.8974 22.533 12.8709 22.5955 12.7732C22.6899 12.6252 22.7836 12.4717 22.8487 12.3081C22.9044 12.1662 22.6824 12.1777 22.6308 12.2714Z" fill="white"/>
<path d="M19.6857 2.84246C18.3931 4.49563 17.873 6.7191 17.6571 8.75994C17.5363 9.88491 17.5071 11.1341 17.6945 12.3263C17.8377 12.8016 17.8907 13.3053 18.0713 13.7731C18.1826 14.0637 18.3007 14.3556 18.4304 14.6421C18.4929 14.7616 18.5587 14.8791 18.6307 14.9931C18.6504 15.0563 18.6741 15.116 18.6972 15.1771C18.761 15.2925 18.8235 15.4059 18.8934 15.5159C19.3802 16.2838 19.9824 16.8215 20.7204 17.0122C20.8039 17.0292 20.8888 17.0462 20.9791 17.055C22.5053 17.1921 23.8421 16.0298 24.9542 15.135C25.2101 14.93 25.462 14.7168 25.7112 14.4982C26.1491 14.1003 26.5754 13.6916 26.9977 13.2843C27.6101 12.6576 28.1858 11.9896 28.7018 11.2815C30.4534 8.7131 31.3299 5.35243 29.6129 2.56275C27.2034 -1.35056 22.2229 -0.398711 19.6857 2.84246ZM27.2021 12.2652C25.9712 13.5782 24.5658 14.8791 23.062 15.8723C22.5067 16.2403 21.8895 16.4969 21.2547 16.499C20.6566 16.6028 20.0788 16.4793 19.6273 15.9239C19.3476 15.6415 19.1433 15.2837 18.9844 14.892C18.8038 14.5206 18.6633 14.1343 18.5587 13.7364C18.5533 13.7405 18.5479 13.7419 18.5431 13.7459C17.5831 10.6725 18.1663 6.71978 19.6382 4.06588C21.455 0.788723 26.1341 -0.484255 28.7256 2.58719C31.1772 5.49161 29.4425 9.87405 27.2021 12.2652Z" fill="#231F20"/>
<path opacity="0.6" d="M28.7256 2.5879C26.1348 -0.48354 21.455 0.789438 19.6382 4.06659C18.1663 6.7205 17.5831 10.6732 18.5431 13.7467C18.5485 13.7426 18.5539 13.7412 18.5587 13.7372C18.6633 14.135 18.8038 14.5213 18.9844 14.8927C19.1433 15.2844 19.3476 15.6422 19.6273 15.9246C20.0781 16.48 20.6566 16.6036 21.2547 16.4997C21.8902 16.497 22.5066 16.2403 23.062 15.873C24.5658 14.8798 25.9712 13.579 27.2021 12.2659C29.4425 9.87409 31.1771 5.49165 28.7256 2.5879Z" fill="#B9E5FB"/>
<path opacity="0.6" d="M28.7255 2.5878C26.9644 0.500115 24.2385 0.42136 22.1019 1.61287C22.3721 1.78056 22.6138 2.00189 22.8223 2.23408C24.1692 3.73246 24.7198 5.72849 24.6506 7.72045C24.5671 10.136 23.7809 13.2686 21.7238 14.7914C21.0143 15.3169 20.0889 15.6991 19.2267 15.3902C19.3421 15.5871 19.4704 15.7691 19.6273 15.9252C20.0781 16.4806 20.6565 16.6041 21.2546 16.5003C21.8901 16.4975 22.5066 16.2409 23.0619 15.8736C24.5657 14.8804 25.9711 13.5795 27.202 12.2665C29.4424 9.87399 31.1771 5.49155 28.7255 2.5878Z" fill="#B9E5FB"/>
<path opacity="0.6" d="M26.3983 8.4083C26.9577 7.35122 27.5158 6.2921 27.8966 5.15559C27.915 5.10195 27.8552 5.04764 27.8315 5.11282C27.4458 6.16107 26.9326 7.14822 26.4023 8.12994C26.0561 8.77017 25.701 9.407 25.3032 10.0153C24.9637 8.3085 25.4423 6.74019 25.7166 5.06461C25.7288 4.9974 25.6528 4.97975 25.6399 5.04764C25.3466 6.64854 24.6229 8.51693 25.2196 10.1423C24.9304 10.5747 24.6188 10.9916 24.2692 11.3833C22.8543 12.9625 20.8148 13.8662 20.0062 15.924C19.8989 15.3408 19.8643 14.7596 19.8813 14.1778C20.5059 12.4248 21.4211 10.7967 22.0185 9.0268C22.5705 7.39399 22.9812 5.69261 23.39 4.01975C23.4035 3.96408 23.3424 3.95254 23.3275 4.00617C22.8292 5.73199 22.4191 7.48565 21.8305 9.18295C21.5358 10.0323 21.1889 10.8585 20.8175 11.676C20.4916 12.3942 20.1264 13.0854 19.8976 13.837C19.9614 12.7846 20.1644 11.7343 20.3341 10.6807C20.4719 9.83132 20.5174 8.98267 20.5779 8.12587C20.6505 7.06675 20.9065 6.05991 21.119 5.02456C21.1373 4.93358 21.0382 4.91389 21.0144 5.00215C20.7768 5.89358 20.569 6.78772 20.4747 7.70698C20.3565 8.85164 20.3131 9.98612 20.123 11.1253C19.8283 12.8912 19.4997 14.6734 20.0381 16.427C20.0537 16.4793 20.1121 16.4189 20.1033 16.3816C20.0782 16.2824 20.0605 16.1833 20.0395 16.0849C20.0422 16.0815 20.0463 16.0815 20.0476 16.076C20.0673 16.0278 20.089 15.9823 20.1087 15.9355C20.1169 15.947 20.1298 15.9538 20.1515 15.945C21.3199 15.4317 22.8074 15.2525 23.7783 14.3767C23.8143 14.3448 23.7905 14.2511 23.741 14.2932C22.7362 15.1778 21.2615 15.0835 20.1644 15.8092C20.7598 14.5525 21.8142 13.7141 22.8645 12.8559C23.8944 12.5049 24.7634 11.8817 25.6582 11.2747C26.606 10.6324 27.4709 9.87817 28.285 9.075C28.3366 9.02408 28.306 8.87676 28.2279 8.94465C27.3684 9.69622 26.5707 10.4722 25.6304 11.1287C24.832 11.6855 24.0315 12.1729 23.1707 12.6047C23.7009 12.1661 24.2182 11.7133 24.6622 11.1864C25.367 10.35 25.8877 9.37101 26.3983 8.4083Z" fill="#90B2C3"/>
<path opacity="0.6" d="M21.8542 2.45013C19.2885 4.50251 18.4555 8.71793 19.0468 11.8111C19.0903 12.0446 19.3374 11.8926 19.3347 11.7161C19.2844 8.42803 19.5811 5.13458 21.9166 2.5927C21.9682 2.53567 21.9444 2.3768 21.8542 2.45013Z" fill="white"/>
<path opacity="0.6" d="M19.3012 13.0161C19.3555 13.2068 19.3488 13.4146 19.4404 13.5925C19.5266 13.7622 19.6869 13.5639 19.6604 13.439C19.6203 13.2496 19.5755 13.0554 19.5015 12.8769C19.435 12.7221 19.2707 12.902 19.3012 13.0161Z" fill="white"/>
<path d="M0.609968 13.2278C1.66705 15.7201 4.35082 16.7385 6.92054 16.7867C7.64427 16.7779 8.37004 16.7114 9.08563 16.5987C9.56155 16.5097 10.0415 16.4167 10.5188 16.3128C10.7856 16.2483 11.0491 16.1811 11.3105 16.1071C12.4456 15.786 13.8686 15.4425 14.5061 14.3474C14.5435 14.2829 14.574 14.2177 14.6032 14.1525C14.8273 13.5639 14.7533 12.9013 14.4681 12.2054C14.4281 12.1056 14.3805 12.0085 14.3344 11.9114C14.3038 11.8666 14.2746 11.8211 14.2427 11.7783C14.1986 11.6758 14.1524 11.5746 14.1022 11.4755C13.9711 11.2508 13.8306 11.0322 13.6887 10.8177C13.4592 10.4714 13.1463 10.1951 12.893 9.87123C12.1795 9.17466 11.324 8.59622 10.5086 8.13863C9.0286 7.30695 7.28241 6.5934 5.54912 6.67351C2.1518 6.83238 -0.874155 9.73138 0.609968 13.2278ZM1.05127 12.6433C0.222305 9.42654 3.31887 6.8833 6.39778 7.22751C8.89078 7.50587 11.8332 9.00493 13.4429 11.1225C13.4389 11.1238 13.4348 11.1266 13.4307 11.1286C13.6466 11.39 13.8408 11.6697 14.0051 11.9684C14.1932 12.2631 14.3364 12.5727 14.3921 12.8958C14.5496 13.4661 14.3575 13.9142 14.001 14.2679C13.6948 14.6936 13.2264 14.9869 12.7138 15.1852C11.324 15.7235 9.77541 16.0481 8.30079 16.2483C5.61837 16.6143 1.83339 15.6848 1.05127 12.6433Z" fill="#231F20"/>
<path opacity="0.6" d="M1.05151 12.6434C0.222544 9.4267 3.31911 6.88346 6.39802 7.22767C8.89102 7.50603 11.8335 9.00509 13.4432 11.1226C13.4391 11.124 13.435 11.1267 13.431 11.1288C13.6469 11.3901 13.841 11.6699 14.0053 11.9686C14.1934 12.2632 14.3366 12.5728 14.3923 12.896C14.5498 13.4663 14.3577 13.9144 14.0013 14.2681C13.6951 14.6938 13.2266 14.9871 12.714 15.1853C11.3243 15.7237 9.77565 16.0482 8.30103 16.2485C5.61861 16.6144 1.83363 15.685 1.05151 12.6434Z" fill="#B9E5FB"/>
<path opacity="0.6" d="M1.05141 12.6432C0.487901 10.4564 1.73983 8.58259 3.56409 7.71289C3.5478 7.97563 3.58107 8.24449 3.6381 8.49569C4.00268 10.121 5.08352 11.447 6.45969 12.3533C8.12645 13.4539 10.614 14.4234 12.6243 13.7655C13.3175 13.5394 14.0195 13.0988 14.2232 12.3703C14.2999 12.5421 14.3596 12.7159 14.3915 12.8958C14.549 13.4661 14.3569 13.9142 14.0005 14.2679C13.6943 14.6936 13.2258 14.9869 12.7132 15.1851C11.3235 15.7235 9.77487 16.048 8.30025 16.2483C5.61851 16.6142 1.83352 15.6848 1.05141 12.6432Z" fill="#B9E5FB"/>
<path opacity="0.6" d="M6.08762 13.8606C5.10794 13.7323 4.12621 13.6012 3.17844 13.3134C3.13363 13.2991 3.12549 13.2339 3.18116 13.2489C4.07258 13.4899 4.98166 13.6168 5.8982 13.7302C6.49497 13.8029 7.09446 13.8687 7.69462 13.8918C6.70679 12.8456 5.42159 12.4179 4.15948 11.8014C4.10924 11.7763 4.13436 11.7165 4.18596 11.7403C5.40462 12.3092 7.01028 12.7159 7.81955 13.8966C8.25067 13.9088 8.68042 13.8979 9.11085 13.8497C10.853 13.6528 12.4376 12.7105 14.2123 13.1504C13.8701 12.7981 13.4947 12.498 13.0948 12.2312C11.6147 11.8123 10.0797 11.6507 8.60098 11.206C7.23635 10.7959 5.8948 10.2582 4.57091 9.73341C4.52746 9.71576 4.5485 9.66892 4.5906 9.68453C5.99325 10.1747 7.3701 10.7382 8.79516 11.1537C9.5087 11.3615 10.2324 11.5231 10.9602 11.6643C11.6005 11.7878 12.2414 11.8734 12.8565 12.0784C12.1164 11.6174 11.3119 11.2515 10.5203 10.8618C9.88279 10.5481 9.28941 10.172 8.68246 9.80266C7.93496 9.34575 7.13384 9.03548 6.33407 8.68312C6.26346 8.65257 6.29809 8.57585 6.36869 8.60165C7.0836 8.86847 7.78492 9.15633 8.45026 9.53313C9.27787 10.0016 10.0627 10.5149 10.9209 10.9324C12.2522 11.5801 13.6101 12.2101 14.5341 13.4125C14.5619 13.4492 14.4927 13.4593 14.4716 13.4349C14.4173 13.3704 14.3589 13.3113 14.3032 13.2509C14.2992 13.2509 14.2965 13.2529 14.2924 13.2516C14.251 13.2414 14.2102 13.2346 14.1688 13.2258C14.1729 13.2366 14.1715 13.2482 14.1552 13.2584C13.2496 13.7995 12.4172 14.7167 11.3628 14.9516C11.3228 14.9604 11.2712 14.8993 11.3241 14.8871C12.4009 14.6332 13.0425 13.5938 14.0568 13.2034C12.9244 13.0017 11.8544 13.3113 10.7749 13.6087C10.0444 14.1342 9.20862 14.4214 8.37219 14.7344C7.48484 15.0657 6.56354 15.2877 5.63138 15.4513C5.57299 15.4622 5.48813 15.3705 5.57164 15.3501C6.48886 15.1315 7.39454 14.9652 8.28597 14.6454C9.04432 14.3738 9.75515 14.0676 10.4578 13.6942C9.90859 13.8416 9.35595 13.9726 8.78837 14.0201C7.88948 14.0955 6.9804 13.978 6.08762 13.8606Z" fill="#90B2C3"/>
<path opacity="0.6" d="M4.24683 7.94725C6.85796 7.20044 10.0971 8.65672 11.8983 10.536C12.0347 10.6779 11.8148 10.7709 11.6966 10.6847C9.5044 9.07834 7.14447 7.70012 4.31336 8.05724C4.2509 8.0647 4.15382 7.97305 4.24683 7.94725Z" fill="white"/>
<path opacity="0.6" d="M12.5876 11.2848C12.6907 11.4124 12.834 11.5082 12.91 11.6548C12.9827 11.794 12.7736 11.8076 12.7016 11.7302C12.593 11.612 12.4844 11.4898 12.3995 11.3527C12.3268 11.2345 12.5264 11.2087 12.5876 11.2848Z" fill="white"/>
<path d="M4.75898 3.69302C3.6666 6.47388 4.99389 9.34979 6.97973 11.373C7.55682 11.9256 8.18143 12.4328 8.83116 12.8965C9.27517 13.1945 9.72461 13.4926 10.1822 13.7791C10.4409 13.9345 10.7023 14.0853 10.963 14.2285C12.1063 14.8531 13.4933 15.6807 14.8416 15.3114C14.9211 15.289 14.9944 15.2612 15.067 15.232C15.6998 14.9414 16.1533 14.3616 16.4663 13.5937C16.5111 13.4837 16.5498 13.371 16.5885 13.2583C16.5994 13.2 16.6096 13.1422 16.6191 13.0825C16.6652 12.9691 16.7053 12.853 16.7426 12.7356C16.8132 12.4579 16.8709 12.1768 16.9246 11.8978C17.0122 11.4483 16.9789 10.988 17.0291 10.5386C17.0054 9.43805 16.7786 8.32122 16.4894 7.33068C15.9659 5.53289 15.1424 3.62105 13.714 2.34536C10.9141 -0.154434 6.29063 -0.20739 4.75898 3.69302ZM5.55875 3.57353C7.3898 0.399566 11.7946 0.788588 13.9536 3.43774C15.7025 5.58313 16.8628 9.03749 16.4955 11.9507C16.4901 11.948 16.486 11.9473 16.4812 11.9446C16.4507 12.3187 16.3855 12.6887 16.285 13.0506C16.2056 13.4281 16.0793 13.7825 15.8743 14.0805C15.5572 14.6522 15.0589 14.8558 14.5056 14.8592C13.9353 14.959 13.3399 14.828 12.7832 14.5877C11.2712 13.9379 9.80065 12.9963 8.48558 12.0159C6.08763 10.2297 3.82547 6.57572 5.55875 3.57353Z" fill="#231F20"/>
<path opacity="0.6" d="M5.55877 3.57351C7.38982 0.399554 11.7947 0.788576 13.9536 3.43773C15.7025 5.58312 16.8628 9.03747 16.4955 11.9507C16.4901 11.948 16.486 11.9473 16.4813 11.9446C16.4507 12.3187 16.3855 12.6887 16.285 13.0506C16.2056 13.4281 16.0793 13.7825 15.8743 14.0805C15.5572 14.6522 15.0589 14.8558 14.5056 14.8592C13.9353 14.959 13.3399 14.828 12.7832 14.5877C11.2712 13.9379 9.80067 12.9963 8.4856 12.0159C6.08765 10.2297 3.82548 6.5757 5.55877 3.57351Z" fill="#B9E5FB"/>
<path opacity="0.6" d="M5.55878 3.57359C6.80256 1.41598 9.23718 0.906109 11.3466 1.63188C11.132 1.82605 10.9501 2.06367 10.8001 2.30537C9.83191 3.86824 9.65946 5.7475 10.0431 7.52492C10.5068 9.67981 11.7166 12.3656 13.809 13.401C14.5307 13.7588 15.4228 13.9529 16.1452 13.5361C16.0746 13.7309 15.9877 13.9156 15.8736 14.0806C15.5566 14.6522 15.0583 14.8559 14.5049 14.8593C13.9346 14.9591 13.3392 14.8281 12.7825 14.5877C11.2705 13.938 9.8 12.9963 8.48493 12.016C6.08766 10.2297 3.82549 6.57578 5.55878 3.57359Z" fill="#B9E5FB"/>
<path opacity="0.6" d="M8.5862 8.42377C7.91271 7.56425 7.24194 6.70406 6.71645 5.74474C6.69133 5.69993 6.73614 5.64155 6.76805 5.69654C7.28267 6.57574 7.90321 7.37823 8.53664 8.1746C8.9501 8.69398 9.37171 9.20792 9.82659 9.68996C9.85714 8.10332 9.17414 6.77263 8.65681 5.31295C8.63576 5.25388 8.70162 5.22605 8.7247 5.28511C9.24611 6.67554 10.1966 8.23571 9.92232 9.79111C10.2509 10.1326 10.5985 10.4571 10.9753 10.7518C12.5002 11.9419 14.4758 12.4247 15.5343 14.1416C15.537 13.6012 15.4732 13.0737 15.3646 12.5543C14.5227 11.0811 13.4378 9.76735 12.6156 8.2744C11.8586 6.89755 11.215 5.43651 10.5788 4.00059C10.5578 3.95307 10.6107 3.93202 10.6331 3.97751C11.3582 5.4467 12.008 6.95458 12.8105 8.38371C13.2124 9.09861 13.6564 9.785 14.1221 10.4585C14.5308 11.0505 14.9694 11.6127 15.296 12.2502C15.0692 11.3167 14.7175 10.4055 14.3957 9.48696C14.1357 8.74625 13.9578 7.99197 13.7657 7.23226C13.5294 6.29399 13.1384 5.43108 12.7806 4.5349C12.7487 4.45683 12.8349 4.42288 12.8709 4.49824C13.2273 5.26067 13.5579 6.02921 13.7915 6.83984C14.0821 7.84736 14.3034 8.86031 14.6558 9.85154C15.205 11.39 15.7882 12.9359 15.5879 14.5972C15.5811 14.6468 15.5173 14.602 15.52 14.5666C15.5282 14.4736 15.5268 14.3827 15.5295 14.2903C15.5268 14.2869 15.5241 14.2876 15.5214 14.2835C15.4963 14.2435 15.4698 14.2061 15.4447 14.1674C15.4392 14.1797 15.429 14.1871 15.4073 14.1831C14.2762 13.9101 12.9116 13.9889 11.9 13.3595C11.8627 13.3364 11.8681 13.2482 11.9183 13.2787C12.9646 13.9108 14.2735 13.5883 15.3727 14.0629C14.6368 13.0309 13.5545 12.4477 12.4737 11.8469C11.494 11.6975 10.6121 11.278 9.71185 10.8767C8.75729 10.4537 7.85908 9.91468 7.00024 9.32537C6.94457 9.28803 6.95 9.15089 7.02943 9.1991C7.92154 9.73544 8.76408 10.3037 9.71321 10.7409C10.5204 11.1123 11.3161 11.4212 12.1587 11.6704C11.6122 11.3621 11.0751 11.0376 10.5911 10.6371C9.82319 10.0009 9.19723 9.20588 8.5862 8.42377Z" fill="#90B2C3"/>
<path opacity="0.6" d="M11.7044 2.34264C14.3379 3.77245 15.7643 7.42233 15.7331 10.2942C15.7304 10.5101 15.4853 10.4137 15.4588 10.2548C14.9734 7.29537 14.1763 4.38619 11.6718 2.48046C11.6161 2.43837 11.6121 2.29172 11.7044 2.34264Z" fill="white"/>
<path opacity="0.6" d="M15.697 11.4172C15.6801 11.5971 15.7181 11.7824 15.6651 11.9569C15.6149 12.1233 15.4384 11.9712 15.4425 11.8544C15.4479 11.6786 15.4567 11.4966 15.4954 11.3242C15.5287 11.1748 15.7066 11.3099 15.697 11.4172Z" fill="white"/>
<path d="M15.4826 30.723C17.8642 29.7983 20.7218 26.2075 19.7537 23.6188C19.6939 23.4586 19.4115 23.5916 19.4129 23.7308C19.4224 26.365 17.706 29.3489 15.3101 30.5411C14.9055 30.3849 14.3753 30.5268 14.0609 30.7936C13.7866 31.0258 13.6074 31.5418 13.9604 31.793C14.3664 32.0809 14.9021 31.7978 15.2416 31.5337C15.5328 31.3042 15.7467 30.9518 15.4826 30.723Z" fill="#231F20"/>
<path d="M15.0343 31.3843C14.817 31.5744 14.4348 31.7618 14.1884 31.5181C13.9473 31.2811 14.2854 30.9356 14.4878 30.8364C14.6432 30.7618 14.8381 30.7604 15.0234 30.7658C15.0289 30.7808 15.0377 30.7964 15.0553 30.8113C15.1192 30.8663 15.1864 30.9118 15.2461 30.9695C15.371 31.0944 15.1056 31.3212 15.0343 31.3843Z" fill="#434345"/>
<path d="M2.15583 22.1129C3.89048 23.9887 8.27971 25.3289 10.3334 23.4789C10.4597 23.3648 10.233 23.1509 10.1026 23.2032C7.65578 24.1788 4.25098 23.6778 2.2631 21.8861C2.25903 21.4523 1.93315 21.0117 1.56993 20.8168C1.25287 20.6471 0.707014 20.6695 0.603139 21.0904C0.483649 21.5738 0.943961 21.9676 1.31397 22.1855C1.63375 22.3729 2.04042 22.4421 2.15583 22.1129Z" fill="#231F20"/>
<path d="M1.3778 21.9391C1.12049 21.8067 0.806153 21.5202 0.941258 21.2011C1.07365 20.8902 1.5197 21.0769 1.68536 21.2296C1.81299 21.3457 1.88564 21.527 1.9481 21.7029C1.93588 21.7124 1.9257 21.7266 1.91755 21.7483C1.88971 21.8271 1.87274 21.9072 1.83947 21.9833C1.77022 22.1455 1.46267 21.9826 1.3778 21.9391Z" fill="#434345"/>
<path d="M31.0338 20.5514C30.824 20.6709 30.8749 21.0382 30.9836 21.2636C30.9652 21.3111 30.9612 21.3682 30.9741 21.4177C30.6455 22.2555 30.2673 23.6745 29.0914 23.2114C28.2441 22.8774 27.593 21.819 26.963 21.1821C26.8571 21.0762 26.7892 21.3186 26.8435 21.3967C27.4722 22.2942 28.2943 23.7471 29.5259 23.8354C30.4859 23.9039 31.0643 22.5943 31.2341 21.7382C31.4581 21.986 31.6971 22.2304 31.9463 22.4429C32.1119 22.5848 32.4432 22.8116 32.6781 22.7165C33.3795 22.432 32.8133 21.4619 32.4779 21.1312C32.1812 20.8379 31.4636 20.3077 31.0338 20.5514Z" fill="#231F20"/>
<path d="M32.5654 22.3207C32.4622 22.3296 32.3203 22.2304 32.2429 22.1788C31.8573 21.9242 31.6224 21.4958 31.2402 21.2365C31.2124 21.0817 31.1153 20.9031 31.1608 20.876C31.4181 20.7259 31.9313 21.1306 32.1167 21.2738C32.2864 21.4028 32.4297 21.5447 32.5566 21.7172C32.632 21.8176 32.873 22.2956 32.5654 22.3207Z" fill="#434345"/>
<path d="M28.1674 26.1492C27.9006 26.0453 27.6012 26.3664 27.4749 26.636C27.4165 26.6543 27.3609 26.693 27.3262 26.7426C26.3078 27.0664 24.7192 27.7813 24.2656 26.3515C23.9384 25.3209 24.4245 23.9305 24.5399 22.8734C24.5583 22.6962 24.284 22.8157 24.2534 22.9243C23.897 24.1742 23.1739 26.0195 24.0158 27.2185C24.6723 28.1534 26.3085 27.7053 27.2251 27.2205C27.1653 27.6129 27.1192 28.0155 27.1097 28.4032C27.1029 28.6619 27.1429 29.1378 27.4057 29.2824C28.1932 29.7155 28.663 28.467 28.716 27.911C28.7621 27.4194 28.7133 26.361 28.1674 26.1492Z" fill="#231F20"/>
<path d="M27.686 28.8831C27.5998 28.7942 27.5855 28.5898 27.5747 28.4799C27.5203 27.934 27.739 27.397 27.6914 26.8518C27.8136 26.7099 27.9046 26.4872 27.9643 26.5096C28.2929 26.6332 28.3052 27.4092 28.3133 27.6869C28.3215 27.9394 28.2991 28.1784 28.2352 28.4242C28.1972 28.5668 27.9379 29.1466 27.686 28.8831Z" fill="#434345"/>
<path d="M19.524 16.7869C19.4018 16.6796 19.2612 16.5988 19.1384 16.4915C19.1356 16.4881 19.1329 16.4841 19.1302 16.48C19.08 16.4542 19.0284 16.4304 18.9713 16.406C19.1214 16.3103 19.2789 16.2431 19.45 16.1826C19.5029 16.1643 19.5532 16.0733 19.5124 16.021C19.3481 15.814 19.1438 15.7848 18.9292 15.7963C18.9252 15.7929 18.9225 15.7889 18.917 15.7868C18.9028 15.7794 18.8865 15.7712 18.8722 15.7644C18.9903 15.7169 19.1227 15.6965 19.2327 15.6273C19.2816 15.596 19.3176 15.4996 19.2606 15.4562C19.1044 15.3381 18.9394 15.2559 18.7609 15.1778C18.6441 15.1283 18.5117 15.112 18.3868 15.0835C18.5232 15.019 18.6597 14.9579 18.803 14.8995C18.8546 14.8791 18.9116 14.7759 18.8478 14.7338C18.5504 14.5356 18.2401 14.3713 17.9224 14.2138C17.9611 14.1981 18.0005 14.1839 18.0229 14.1689C18.031 14.1642 18.0371 14.1554 18.0426 14.1465C18.084 14.1207 18.1105 14.0569 18.0813 14.0148C17.9367 13.8078 17.7588 13.7134 17.5653 13.6421C17.5721 13.6407 17.5789 13.6407 17.585 13.6394C17.6447 13.6285 17.7282 13.5253 17.6726 13.4635C17.3718 13.1316 16.9882 13.0691 16.5836 13.0345C16.5958 13.027 16.606 13.0182 16.6168 13.01C16.6555 12.9829 16.7112 12.8756 16.646 12.8417C16.1246 12.5735 15.5706 12.7099 15.0641 12.9062C15.1891 12.771 15.3147 12.6366 15.4396 12.5002C15.4647 12.4716 15.4824 12.418 15.4701 12.3813C15.2155 12.401 14.9623 12.4255 14.7186 12.4981C14.7145 12.4995 14.7104 12.4981 14.7064 12.4995C14.5325 12.5728 14.3669 12.6665 14.2026 12.7738C14.2121 12.7446 14.2209 12.7147 14.2264 12.6841C14.2345 12.6563 14.2345 12.6237 14.2264 12.5952C14.2067 12.6027 14.1877 12.6095 14.168 12.6176C13.9799 12.6964 13.7884 12.7697 13.6045 12.8607C13.5637 12.8878 13.521 12.915 13.4768 12.9408C13.3417 13.0209 13.1598 13.2008 12.99 13.2796C13.0362 13.1784 13.0987 13.0888 13.0946 12.9591C13.0946 12.9449 13.0905 12.9313 13.0851 12.9218C12.8359 12.9971 12.6037 13.1187 12.3783 13.2551C12.1658 13.4357 11.9805 13.6435 11.7687 13.8397C11.7782 13.7331 11.7883 13.6258 11.7883 13.5192C11.7883 13.4989 11.7788 13.4819 11.7659 13.469C11.7184 13.5002 11.6702 13.5301 11.6254 13.5654C11.4713 13.6849 11.3246 13.8125 11.1827 13.9449C11.03 14.1635 10.9044 14.414 10.7958 14.6489C10.7917 14.5023 10.8012 14.3557 10.7414 14.2226C10.7163 14.1656 10.6579 14.1771 10.622 14.2144C10.3158 14.5288 10.3674 14.9674 10.1949 15.319C10.1841 15.3197 10.1725 15.3218 10.1576 15.3285C10.1257 15.3435 9.91724 14.9945 9.91113 14.9782C9.86088 14.8567 9.73053 14.9918 9.73325 15.076C9.74004 15.3272 9.72782 15.5967 9.66808 15.8459C9.6124 15.7542 9.56352 15.6599 9.49698 15.573C9.46643 15.5322 9.42027 15.5689 9.39854 15.5981C9.25529 15.7936 9.20233 16.0163 9.17042 16.256C9.1582 16.3415 9.16092 16.4284 9.16499 16.5146C9.17178 16.6436 9.00884 16.5377 8.95792 16.5275C8.90361 16.516 8.8622 16.5886 8.87577 16.6368C8.93009 16.8412 9.0455 17.0313 9.09167 17.235C9.09438 17.2465 9.09982 17.2506 9.1066 17.2533C8.88528 17.5683 8.5723 17.7937 8.50848 18.2079C8.50033 18.2635 8.53631 18.2968 8.58655 18.2832C8.79226 18.2303 8.96607 18.0945 9.15821 18.0049C9.39175 17.8969 9.64363 17.8338 9.89551 17.7883C9.516 18.2642 9.036 19.0456 9.23628 19.6105C9.25325 19.6614 9.30281 19.6587 9.34083 19.6356C9.63277 19.4571 9.89347 19.121 10.2309 19.0198C10.0476 19.5895 9.56148 21.3282 10.3585 20.7484C10.6328 20.5481 10.8691 20.3247 11.1739 20.1699C11.3464 20.0824 11.2418 20.4089 11.2391 20.4191C11.1956 20.6207 11.1651 20.821 11.1434 21.0267C11.102 21.4178 11.0904 22.0444 11.3606 22.3798C11.3511 22.4131 11.3552 22.4464 11.3939 22.4382C11.398 22.4375 11.402 22.4355 11.4048 22.4355C11.4075 22.4375 11.4088 22.4396 11.4102 22.4416C11.4489 22.4776 11.4937 22.4484 11.5229 22.4029C11.8067 22.3045 12.0599 22.1001 12.3423 21.9881C12.5277 21.9134 12.3851 22.166 12.358 22.2237C12.2649 22.4274 12.1774 22.6317 12.102 22.8429C11.861 23.5129 11.6207 24.4614 11.7456 25.1783C11.7524 25.2123 11.7625 25.2347 11.7958 25.2456C11.9499 25.2992 12.0171 25.1892 12.0993 25.0663C12.252 24.8416 12.3967 24.6766 12.6098 24.5116C12.6879 24.4499 13.1774 24.2224 13.1482 24.2849C12.9717 24.6495 12.4096 25.4438 12.6947 25.8756C12.709 25.898 12.7375 25.9068 12.7612 25.9041C12.8658 25.8953 12.9493 25.845 13.0314 25.7867C12.9799 25.9856 12.9052 26.1641 12.969 26.3923C12.9758 26.4167 12.9968 26.4364 13.0206 26.4418C13.0247 26.4432 13.0287 26.4432 13.0328 26.4445C13.0036 26.5749 12.9479 26.7052 12.9242 26.8308C12.9133 26.8913 12.9656 26.9116 13.009 26.8872C13.1367 26.8173 13.2331 26.7052 13.3112 26.5817C13.4103 26.784 13.6717 26.9754 13.8163 27.0399C13.8828 27.0691 13.9582 27.0053 13.9636 26.9347C13.9731 26.8118 13.9779 26.6883 13.9819 26.5647C14.223 26.6835 14.4314 26.8403 14.7125 26.8804C14.779 26.8899 14.8421 26.824 14.8489 26.7582C14.8618 26.6299 14.8754 26.5029 14.8924 26.376C15.0607 26.49 15.2427 26.5844 15.3846 26.7385C15.4559 26.8145 15.5374 26.7141 15.5557 26.6441C15.6256 26.3739 15.6222 26.1071 15.6528 25.8369C15.7519 25.8987 15.8917 26.0141 15.9406 26.0331C16.1687 26.1186 16.3887 26.1343 16.6263 26.1132C16.6433 26.1119 16.6596 26.1017 16.6752 26.0861C16.7506 26.1791 16.8409 26.2605 16.9407 26.2327C16.9739 26.2225 17.0004 26.1798 17.0059 26.1458C17.0446 25.8892 17.0724 25.6061 17.067 25.3331C17.2659 25.621 17.5972 26.0453 17.7696 25.8946C17.8056 25.8641 17.8267 25.8301 17.8403 25.7941C17.8484 25.7113 17.8559 25.6291 17.8586 25.5456C17.864 25.4166 17.8518 25.2876 17.8667 25.1593C17.8681 25.1519 17.8708 25.1458 17.8735 25.1396C17.8613 25.0853 17.8511 25.031 17.8362 24.9781C17.8307 24.9353 17.8226 24.8932 17.8151 24.8518C17.9122 24.9645 18.0127 25.0738 18.1335 25.1295C18.1532 25.1383 18.1709 25.1376 18.1879 25.1322C18.2795 24.9787 18.3481 24.8131 18.3983 24.6393C18.4194 24.496 18.4302 24.3501 18.4472 24.2278C18.4988 23.8443 18.4391 23.4817 18.3488 23.1165C18.5728 23.2794 18.7385 23.5238 18.9028 23.7445C18.9184 23.7648 18.9387 23.7669 18.9584 23.7601C19.0487 23.4294 19.0711 23.1022 19.0128 22.7566C18.9516 22.6161 18.8668 22.4857 18.8125 22.3466C18.97 22.4233 19.1058 22.521 19.2687 22.5916C19.2911 22.6012 19.3101 22.5971 19.3284 22.5869C19.4215 22.3825 19.359 22.1123 19.3257 21.872C19.2517 21.686 19.1533 21.4999 19.0711 21.3526C19.0806 21.3587 19.0895 21.3642 19.0976 21.3696C19.1587 21.409 19.213 21.4741 19.2796 21.502C19.3101 21.5156 19.3434 21.4972 19.3644 21.4694C19.3509 21.356 19.3339 21.244 19.3169 21.1293C19.3115 21.0987 19.3074 21.0607 19.3074 21.0227C19.2796 20.967 19.249 20.9127 19.2157 20.8584C19.3033 20.8828 19.3814 20.8767 19.4187 20.781C19.4147 20.7226 19.4106 20.6649 19.3977 20.6085C19.3685 20.4816 19.3393 20.3553 19.3142 20.2276C19.2626 20.1278 19.2001 20.0314 19.1431 19.9466C19.1458 19.9432 19.1485 19.9425 19.1526 19.9391C19.2028 19.8828 19.5348 20.246 19.6509 19.9357C19.6971 19.8101 19.6177 19.5949 19.5939 19.4808C19.5342 19.1984 19.3909 19.1047 19.2585 18.937C19.4086 18.9811 19.5409 19.0626 19.6971 19.119C19.7419 19.1353 19.7806 19.1047 19.8057 19.0619C19.8071 18.9764 19.8017 18.8915 19.7765 18.8155C19.7738 18.8067 19.7711 18.7972 19.7684 18.789C19.7019 18.6417 19.6197 18.5276 19.5308 18.4102C19.6224 18.4373 19.7148 18.4597 19.8051 18.4692C19.8397 18.4726 19.8689 18.4563 19.8926 18.4312C19.8804 18.2975 19.8186 18.1522 19.7786 18.0422C19.731 17.9146 19.6815 17.7896 19.6272 17.6668C19.5287 17.5208 19.4147 17.3857 19.2823 17.2662C19.4378 17.2662 19.5912 17.2608 19.7175 17.1542C19.7426 17.1318 19.7718 17.089 19.7759 17.0476C19.7161 16.9451 19.6088 16.8602 19.524 16.7869Z" fill="#231F20"/>
<path d="M19.2323 17.0699L19.2309 17.0712C19.1318 17.1221 19.0266 17.1561 18.922 17.1907C18.9152 17.2213 18.922 17.2525 18.9526 17.2735C19.2988 17.522 19.5453 17.8323 19.6967 18.2261C19.5534 18.1887 19.4115 18.1351 19.2778 18.0848C19.1888 18.0516 19.1202 18.2064 19.161 18.2722C19.2791 18.4603 19.4142 18.6103 19.5215 18.7889C19.3823 18.7257 19.2526 18.6755 19.0625 18.6857C19.032 18.6877 19.0001 18.7122 18.9777 18.7434C19.1861 19.0557 19.4231 19.347 19.5038 19.7258C19.5147 19.7774 19.4787 19.8154 19.4319 19.8304C19.4054 19.8541 19.3667 19.8684 19.3328 19.8562C19.2425 19.827 19.1522 19.8066 19.0625 19.7808C19.0585 19.7855 19.0544 19.7903 19.0503 19.795C19.049 19.7957 19.0476 19.7971 19.0476 19.7984C19.0462 19.7978 19.0462 19.7964 19.0435 19.7957C19.0381 19.7944 19.0327 19.7937 19.0279 19.793C19.0558 19.9675 19.1006 20.1406 19.1562 20.3076C19.2146 20.4292 19.2621 20.5534 19.2676 20.6518C19.2173 20.6356 19.1657 20.605 19.1162 20.5792C19.0843 20.5874 19.0524 20.5772 19.0327 20.5412C18.9546 20.5181 18.8867 20.641 18.9091 20.7068C18.9383 20.7924 18.9784 20.8603 19.03 20.9356C19.0938 21.0314 19.1372 21.1271 19.1773 21.2276C19.163 21.2187 19.1467 21.2113 19.1325 21.2031C19.0795 21.1753 19.0225 21.1604 18.9655 21.161C18.9655 21.161 18.9655 21.1597 18.9641 21.159C18.9519 21.138 18.9363 21.1386 18.9206 21.1495C19.0028 21.3219 19.0429 21.5338 19.0734 21.732C19.161 21.9615 19.2363 22.1944 19.2805 22.4435C19.2486 22.2609 18.8799 22.1611 18.7238 22.1088C18.6681 22.0898 18.6111 22.1754 18.6178 22.2256C18.6627 22.6207 19.123 23.1129 18.9627 23.5454C18.7638 23.2827 18.5819 23.005 18.273 22.8617C18.2044 22.8298 18.1419 22.9194 18.1589 22.9853C18.3062 23.5542 18.3429 24.0417 18.2315 24.6188C18.184 24.8612 18.1942 24.9576 18.0129 24.7451C17.9138 24.6283 17.8086 24.5271 17.6932 24.4287C17.6837 24.4212 17.6762 24.4165 17.6667 24.4144C17.704 24.7654 17.6918 25.1198 17.7101 25.4722C17.7101 25.4871 17.7074 25.5007 17.7033 25.515C17.7128 25.648 17.723 25.7492 17.7352 25.7499C17.664 25.7451 17.5723 25.6704 17.4888 25.5883C17.4874 25.5876 17.4847 25.5869 17.482 25.5856C17.3415 25.4661 17.1955 25.3446 17.0801 25.1979C17.0312 25.1368 16.981 25.0648 16.9239 25.0051C16.9097 25.0261 16.9002 25.0513 16.9029 25.0703C16.9436 25.3873 16.9171 25.7784 16.8764 26.0961C16.8934 25.9651 16.6619 25.8001 16.5872 25.7207C16.484 25.6114 16.3699 25.479 16.3394 25.3255C16.3299 25.2726 16.264 25.3323 16.2654 25.367C16.2735 25.5767 16.4032 25.7465 16.5336 25.902C16.3319 25.887 16.1425 25.8653 15.949 25.7648C15.8472 25.7119 15.7222 25.5476 15.6 25.572C15.5403 25.5835 15.4982 25.6345 15.486 25.6956C15.4425 25.9474 15.4432 26.2041 15.4106 26.458C15.1893 26.295 14.9238 26.2061 14.7134 26.0194C14.6631 25.9753 14.5851 26.09 14.6231 26.1369C14.6658 26.1891 14.7134 26.2339 14.7623 26.2747C14.7052 26.3894 14.6842 26.5069 14.6747 26.6325C14.4119 26.5619 14.196 26.3915 13.9414 26.2917C13.8647 26.2618 13.8104 26.3799 13.8077 26.4376C13.8023 26.5483 13.8009 26.6589 13.7982 26.7696C13.6339 26.6589 13.3861 26.4573 13.4241 26.3826C13.4268 26.3752 13.4309 26.3677 13.435 26.3602C13.4798 26.2584 13.3582 26.2238 13.3087 26.3059C13.3033 26.3134 13.3019 26.3215 13.2978 26.3297C13.2489 26.4546 13.1824 26.5741 13.088 26.6671C13.1118 26.5816 13.1383 26.4974 13.1532 26.4139C13.2062 26.3589 13.2265 26.2625 13.1586 26.2265C13.1559 26.2007 13.1518 26.1749 13.1444 26.1484C13.1668 26.0024 13.2693 25.6596 13.2768 25.5516C13.2849 25.4613 13.2197 25.4118 13.1417 25.4613C13.0928 25.4926 12.8246 25.756 12.8538 25.5292C12.8898 25.257 12.9706 24.9705 13.0989 24.7322C13.2007 24.5421 13.3786 24.3547 13.3745 24.1252C13.3732 24.0872 13.3521 24.0655 13.3202 24.0526C13.0269 23.9317 12.6494 24.2569 12.4369 24.4246C12.3093 24.5244 12.1878 24.6521 12.0934 24.7865C11.8402 25.1504 11.8972 24.8897 11.9278 24.557C11.9861 23.9249 12.0975 23.3119 12.3086 22.7158C12.3921 22.4815 12.7703 22.0477 12.6162 21.787C12.6053 21.7694 12.5843 21.7653 12.5673 21.766C12.179 21.7748 11.8687 22.0851 11.5367 22.2616C11.2067 21.7517 11.2848 20.8888 11.441 20.3423C11.4552 20.2907 11.5734 19.8575 11.3683 19.9003C10.9861 19.9818 10.6921 20.2479 10.3873 20.4787C9.99215 20.7774 10.094 20.3246 10.1286 20.0483C10.1775 19.6559 10.3065 19.2777 10.4389 18.9091C10.4559 18.8615 10.4443 18.7814 10.3764 18.7902C10.0105 18.8398 9.7362 19.1297 9.46395 19.366C9.31662 19.5004 9.2915 19.4576 9.38859 19.2356C9.41235 19.0387 9.47752 18.85 9.54406 18.666C9.67034 18.3136 9.90049 17.9986 10.1422 17.725C10.1755 17.6863 10.2047 17.5566 10.113 17.5709C9.73076 17.6306 9.3655 17.7332 9.01382 17.8981C9.02604 17.8927 8.67572 18.0801 8.7117 18.0041C8.83934 17.7366 9.04302 17.5519 9.18763 17.3021C9.21139 17.2606 9.19441 17.2308 9.16658 17.2253C9.17201 17.2179 9.17744 17.2097 9.1788 17.2036C9.19985 17.0515 9.11634 16.8804 9.05116 16.7216C9.12788 16.7576 9.18763 16.7772 9.26367 16.6713C9.29965 16.6204 9.29014 16.526 9.28878 16.4677C9.28878 16.2165 9.31391 15.9707 9.43475 15.7548C9.49993 15.8729 9.55017 15.9965 9.62282 16.1112C9.66423 16.1757 9.73823 16.0976 9.75656 16.0576C9.85365 15.841 9.88013 15.6041 9.89574 15.3664C9.9487 15.4337 10.0084 15.4954 10.075 15.5477C10.092 15.5613 10.1239 15.5613 10.1429 15.5511C10.1537 15.5464 10.1626 15.5409 10.1734 15.5362C10.1999 15.5219 10.2196 15.49 10.2345 15.4567C10.4654 15.1913 10.4212 14.7622 10.6242 14.4519C10.6521 14.6244 10.6202 14.8226 10.6677 14.9944C10.6955 15.0942 10.8001 15.0012 10.8231 14.9543C10.9942 14.6067 11.1572 14.2944 11.4036 13.993C11.5734 13.7846 11.5774 13.8518 11.5747 14.088C11.5747 14.1559 11.6501 14.1797 11.6969 14.141C11.9651 13.9183 12.1491 13.6298 12.4437 13.4274C12.5008 13.3881 12.8124 13.2482 12.8334 13.2129C12.7832 13.2984 12.7669 13.35 12.7554 13.4465C12.7486 13.5001 12.7723 13.5578 12.8334 13.5524C12.9713 13.5388 13.0459 13.4858 13.1573 13.3942C13.3935 13.2007 13.6984 13.0065 13.9835 12.8605C13.9767 12.8877 13.9781 12.9074 13.9835 12.925C13.9795 12.9271 13.9767 12.9298 13.9727 12.9332C13.9143 12.9732 13.9279 13.0893 13.9951 13.0588C13.9964 13.0588 13.9951 13.0601 13.9951 13.0601C14.3983 12.849 14.7548 12.6168 15.2002 12.5516C15.0528 12.7166 14.9021 12.8782 14.7575 13.0452C14.7174 13.0914 14.71 13.2217 14.8023 13.1844C15.2932 12.9855 15.875 12.7621 16.408 12.9631C16.3706 12.9909 16.334 13.0187 16.2966 13.0534C16.2729 13.0771 16.2464 13.1518 16.2674 13.1912C16.3665 13.1946 16.4677 13.2014 16.5648 13.2238C16.5886 13.2299 16.6123 13.238 16.6361 13.2448C16.8893 13.2733 17.1385 13.3249 17.3523 13.4682C17.2715 13.4723 17.1894 13.4763 17.1072 13.4919C17.0977 13.4933 17.0889 13.4987 17.0808 13.5035C17.074 13.5191 17.0652 13.532 17.0502 13.5401C17.2356 13.6033 17.4039 13.7262 17.5452 13.8687C17.6687 13.921 17.7855 13.9842 17.9002 14.0833C17.8296 14.107 17.7706 14.124 17.7162 14.2035C17.6966 14.2306 17.6843 14.2965 17.723 14.3162C18.0252 14.4703 18.3252 14.6291 18.6117 14.8111C18.5534 14.8362 18.495 14.8613 18.4352 14.8878C18.4298 14.8953 18.423 14.9034 18.4128 14.9102C18.3055 14.9808 18.1806 15.0412 18.1025 15.1492C18.0958 15.1594 18.0883 15.1689 18.0815 15.1791C18.0856 15.1852 18.0924 15.192 18.0998 15.196C18.2207 15.2687 18.3347 15.2612 18.4712 15.2802C18.6409 15.3047 18.8521 15.4262 19.0204 15.5423C18.9702 15.5606 18.92 15.5776 18.869 15.5959C18.8663 15.598 18.865 15.6007 18.8623 15.6034C18.7665 15.6767 18.6593 15.7568 18.5995 15.8655C18.5812 15.898 18.5649 15.9333 18.5479 15.968C18.7984 15.972 19.0707 15.9143 19.2771 16.0664C19.0917 16.1397 18.922 16.2294 18.7584 16.3631C18.7095 16.4032 18.6654 16.5084 18.7489 16.5403C19.0761 16.6659 19.3083 16.8078 19.5378 17.0536C19.4434 17.0753 19.3361 17.0719 19.2323 17.0699Z" fill="#5C5D60"/>
<path opacity="0.3" d="M13.9706 12.9312C13.9746 12.9285 13.9774 12.9258 13.9814 12.923C13.976 12.9054 13.9746 12.8857 13.9814 12.8585C13.6963 13.0045 13.3915 13.1987 13.1552 13.3922C13.0438 13.4838 12.9698 13.5375 12.8313 13.5504C12.7702 13.5558 12.7465 13.4981 12.7533 13.4444C12.7655 13.348 12.7811 13.2964 12.8313 13.2109C12.8103 13.2469 12.4987 13.3867 12.4416 13.4254C12.426 13.437 12.4124 13.4506 12.3968 13.4621C12.2882 13.6916 12.2088 13.9326 12.1674 14.1682C12.8673 13.5171 13.735 13.0554 14.7187 13.1301C14.7215 13.1301 14.7242 13.1321 14.7282 13.1328C14.7269 13.1009 14.7378 13.0636 14.7561 13.0425C14.9007 12.8762 15.0521 12.7146 15.1987 12.549C14.7534 12.6141 14.3963 12.8463 13.9937 13.0575V13.0561C13.9258 13.0873 13.9122 12.9719 13.9706 12.9312Z" fill="#5C5D60"/>
<path opacity="0.3" d="M19.2308 17.0713L19.2322 17.07C19.3354 17.072 19.4433 17.0761 19.5356 17.0523C19.3062 16.8072 19.074 16.6646 18.7467 16.539C18.6632 16.5071 18.7067 16.4026 18.7562 16.3618C18.9192 16.2281 19.0889 16.1385 19.2749 16.0651C19.0679 15.9131 18.7963 15.9708 18.5458 15.9667C18.5627 15.9314 18.579 15.8961 18.5974 15.8642C18.6571 15.7556 18.7644 15.6754 18.8601 15.6021C18.8628 15.5994 18.8642 15.5967 18.8669 15.5947C18.9171 15.5763 18.9681 15.5594 19.0183 15.541C18.8499 15.4249 18.6388 15.3027 18.4691 15.279C18.3326 15.2599 18.2185 15.2674 18.0977 15.1948C18.0895 15.19 18.0834 15.1839 18.0794 15.1778C18.0861 15.1676 18.0936 15.1581 18.1004 15.1479C18.1785 15.04 18.3034 14.9796 18.4107 14.9089C18.4215 14.9022 18.4276 14.894 18.4331 14.8865C18.4928 14.8601 18.5512 14.8349 18.6096 14.8098C18.3231 14.6279 18.0237 14.469 17.7209 14.3149C17.6822 14.2952 17.6944 14.2293 17.7141 14.2022C17.7684 14.1234 17.8281 14.1058 17.8981 14.082C17.7827 13.9829 17.6659 13.9198 17.543 13.8675C17.4025 13.7249 17.2341 13.6013 17.0481 13.5389C17.0623 13.5307 17.0718 13.5178 17.0786 13.5022C17.0868 13.4975 17.0956 13.492 17.1051 13.4907C17.1872 13.4744 17.2694 13.471 17.3502 13.4669C17.137 13.3237 16.8872 13.2721 16.6339 13.2435C16.6102 13.2368 16.5864 13.2286 16.5626 13.2225C16.4656 13.2001 16.3651 13.1933 16.2653 13.1899C16.2442 13.1505 16.2707 13.0765 16.2945 13.0521C16.3318 13.0175 16.3685 12.9896 16.4058 12.9618C15.8729 12.7608 15.2903 12.9842 14.8002 13.1831C14.7961 13.1845 14.7947 13.1845 14.7907 13.1852C14.8171 13.2279 14.8226 13.2836 14.7771 13.3101C14.5014 13.4723 14.2509 13.6611 14.0146 13.8688C14.8076 13.6475 15.5782 13.5484 16.4078 13.7684C16.4744 13.786 16.5178 13.9374 16.4289 13.953C15.9781 14.0331 15.5443 14.1526 15.1505 14.374C16.0935 14.3203 16.9523 14.3794 17.7786 14.9429C17.8383 14.9836 17.8553 15.1174 17.7603 15.1214C17.2884 15.1418 16.8267 15.1581 16.3814 15.2891C16.9544 15.3686 17.5057 15.5145 17.9436 15.9307C18.002 15.9857 17.9795 16.1079 17.8865 16.0909C17.433 16.0081 16.9931 16.0176 16.5484 16.0726C17.3162 16.3231 18.0121 16.7128 18.4541 17.4305C18.4792 17.4726 18.4779 17.5846 18.4025 17.5751C18.0698 17.5309 17.7446 17.4501 17.4174 17.3856C17.8512 17.6158 18.226 17.9553 18.4887 18.3681C18.5274 18.4298 18.4982 18.5228 18.4161 18.5086C18.0196 18.4387 17.6204 18.3932 17.2212 18.3592C17.7358 18.6193 18.1703 19.0022 18.4521 19.5283C18.4867 19.5949 18.4507 19.713 18.3604 19.6594C18.042 19.4713 17.6951 19.4183 17.3393 19.3898C17.8933 19.7021 18.3299 20.2079 18.5553 20.8108C18.5885 20.897 18.5064 20.9636 18.4358 20.9038C18.1085 20.6302 17.7107 20.5141 17.3047 20.4326C17.9361 20.8794 18.4412 21.5101 18.575 22.2868C18.5885 22.3621 18.5037 22.4144 18.4487 22.354C18.2083 22.0892 17.9551 21.8923 17.6571 21.747C17.9924 22.094 18.2565 22.5135 18.4446 22.9684C18.6544 23.1212 18.8024 23.3384 18.9606 23.5475C19.1208 23.1144 18.6612 22.6229 18.6157 22.2277C18.6089 22.1775 18.6659 22.0919 18.7216 22.1109C18.8778 22.1632 19.2464 22.2637 19.2783 22.4457C19.2349 22.1965 19.1588 21.9636 19.0713 21.7341C19.0407 21.5352 19.0006 21.3241 18.9185 21.1516C18.9341 21.1408 18.9504 21.1401 18.9619 21.1611C18.9633 21.1618 18.9633 21.1632 18.9633 21.1632C19.0203 21.1632 19.0774 21.1774 19.1303 21.2053C19.1446 21.2134 19.1609 21.2209 19.1751 21.2297C19.1351 21.1299 19.0916 21.0335 19.0278 20.9378C18.9762 20.8624 18.9361 20.7945 18.907 20.709C18.8845 20.6431 18.9518 20.5202 19.0305 20.5433C19.0502 20.5793 19.0821 20.5888 19.114 20.5813C19.1629 20.6071 19.2145 20.6377 19.2654 20.654C19.26 20.5555 19.2125 20.4313 19.1541 20.3098C19.0984 20.1427 19.0536 19.9703 19.0258 19.7951C19.0312 19.7958 19.0366 19.7965 19.0414 19.7979C19.0441 19.7985 19.0441 19.7999 19.0455 19.8006C19.0455 19.7992 19.0468 19.7985 19.0482 19.7972C19.0522 19.7924 19.0563 19.7877 19.0604 19.7829C19.1507 19.8087 19.241 19.8291 19.3306 19.8583C19.3652 19.8705 19.4039 19.8562 19.4297 19.8325C19.4759 19.8175 19.5119 19.7795 19.5017 19.7279C19.4209 19.3491 19.1833 19.0578 18.9755 18.7455C18.9979 18.7143 19.0298 18.6899 19.0604 18.6878C19.2498 18.6776 19.3802 18.7279 19.5193 18.791C19.4121 18.6125 19.277 18.4624 19.1588 18.2744C19.1174 18.2078 19.1867 18.0537 19.2756 18.087C19.4094 18.1365 19.5513 18.1909 19.6945 18.2282C19.5431 17.8344 19.2967 17.5242 18.9504 17.2757C18.9199 17.2546 18.9131 17.2234 18.9199 17.1928C19.0271 17.1562 19.1317 17.1215 19.2308 17.0713Z" fill="#5C5D60"/>
<path opacity="0.4" d="M16.2645 25.3658C16.2632 25.3312 16.3297 25.2714 16.3385 25.3244C16.3691 25.4778 16.4831 25.6102 16.5863 25.7195C16.625 25.7616 16.7072 25.8261 16.7744 25.8981C16.7954 25.211 16.623 24.5192 16.5585 23.8138C16.5517 23.7343 16.642 23.7377 16.6868 23.7683C16.8525 23.8803 16.9652 24.0215 17.05 24.1804C16.9821 23.7588 16.8314 23.3657 16.6467 22.9583C16.6067 22.8721 16.6902 22.8124 16.7635 22.8667C17.014 23.0514 17.2571 23.2448 17.4968 23.4417C17.4357 22.9448 17.2544 22.4892 16.9441 22.0873C16.8701 21.9902 16.9903 21.8958 17.065 21.9916C17.0745 22.0024 17.0806 22.0126 17.0887 22.0235C16.8776 21.6148 16.5673 21.2658 16.2177 20.9345C16.1593 20.8788 16.1593 20.7688 16.2604 20.7797C16.6637 20.8245 17.0283 20.9372 17.3759 21.1266C17.0724 20.4531 16.5442 19.9426 15.8606 19.6371C15.7798 19.6011 15.7716 19.4476 15.883 19.4687C16.3351 19.5583 16.7832 19.6126 17.1892 19.8047C16.6563 19.1374 15.9624 18.5874 15.0968 18.4517C15.0146 18.4381 14.9705 18.265 15.0757 18.2731C15.6114 18.3159 16.1342 18.3233 16.642 18.4727C16.1885 17.9927 15.6433 17.603 14.9834 17.4693C14.904 17.4536 14.8537 17.2887 14.9623 17.2907C15.405 17.2988 15.8219 17.2649 16.238 17.3667C15.7051 16.8752 15.0459 16.6315 14.3113 16.5473C14.2332 16.5378 14.1904 16.4081 14.2685 16.3728C14.7946 16.1338 15.3609 15.9885 15.9339 16.0449C15.4512 15.5907 14.758 15.4807 14.1069 15.533C14.0315 15.5384 13.9569 15.4189 14.0248 15.366C14.4369 15.0435 14.9053 14.9729 15.3935 14.8574C14.7315 14.4114 13.7851 14.5648 13.0851 14.8493C13.0138 14.8785 12.9195 14.7644 12.9697 14.7013C13.2005 14.4046 13.4341 14.1262 13.7179 13.8886C12.9303 13.8696 12.2209 14.444 11.6893 14.9776C11.6322 15.0353 11.5419 14.9382 11.5433 14.8805C11.5528 14.6422 11.582 14.3978 11.6309 14.1554C11.6003 14.1487 11.5752 14.1269 11.5752 14.0875C11.5779 13.852 11.5738 13.7848 11.4041 13.9925C11.1577 14.2939 10.994 14.6062 10.8236 14.9539C10.8012 15.0007 10.696 15.0937 10.6682 14.9939C10.6206 14.8221 10.6525 14.6239 10.6247 14.4515C10.4217 14.7624 10.4658 15.1908 10.235 15.4563C10.2208 15.4895 10.2004 15.5214 10.1739 15.5357L10.1434 15.5506C10.125 15.5608 10.0931 15.5608 10.0755 15.5472C10.0089 15.495 9.94919 15.4332 9.89623 15.366C9.88062 15.6036 9.85346 15.8398 9.75705 16.0571C9.73872 16.0978 9.66404 16.1752 9.6233 16.1107C9.55066 15.996 9.49974 15.8718 9.43524 15.7543C9.31439 15.9695 9.28927 16.216 9.28927 16.4672C9.29063 16.5256 9.30014 16.6199 9.26416 16.6708C9.1888 16.7768 9.12905 16.7571 9.05165 16.7211C9.11683 16.8793 9.20034 17.051 9.17929 17.2031C9.17793 17.2092 9.1725 17.2181 9.16707 17.2248C9.1949 17.2303 9.21188 17.2602 9.18812 17.3016C9.04351 17.5514 8.83915 17.7361 8.71219 18.0036C8.67621 18.0796 9.02653 17.8922 9.01431 17.8977C9.36599 17.732 9.73193 17.6302 10.1135 17.5704C10.2051 17.5562 10.1759 17.6858 10.1427 17.7245C9.90098 17.9975 9.67083 18.3132 9.54455 18.6655C9.47801 18.8495 9.41352 19.0382 9.38908 19.2351C9.29199 19.4571 9.31779 19.5006 9.46444 19.3655C9.736 19.1299 10.011 18.84 10.3769 18.7898C10.4448 18.7803 10.4563 18.8604 10.4394 18.9086C10.307 19.2772 10.178 19.6554 10.1291 20.0478C10.0945 20.3234 9.99264 20.7763 10.3878 20.4782C10.6926 20.2467 10.9873 19.9806 11.3688 19.8998C11.5745 19.8563 11.4564 20.2902 11.4415 20.3418C11.2853 20.8876 11.2065 21.7505 11.5372 22.2611C11.8685 22.0839 12.1788 21.7743 12.5678 21.7655C12.5848 21.7648 12.6065 21.7689 12.6167 21.7865C12.7708 22.0472 12.3926 22.4804 12.3091 22.7153C12.098 23.3114 11.9866 23.9244 11.9282 24.5565C11.8977 24.8892 11.8407 25.1499 12.0939 24.786C12.1883 24.6516 12.3098 24.5239 12.4374 24.4241C12.6499 24.2564 13.0274 23.9312 13.3207 24.0521C13.3526 24.065 13.3737 24.0874 13.375 24.1247C13.3791 24.3535 13.2012 24.5409 13.0994 24.7317C12.9711 24.97 12.8896 25.2558 12.8543 25.5287C12.8251 25.7555 13.0933 25.4921 13.1422 25.4608C13.2202 25.412 13.2854 25.4608 13.2773 25.5511C13.2691 25.6591 13.1673 26.0013 13.1449 26.1479C13.153 26.1744 13.1571 26.2002 13.1591 26.226C13.227 26.2626 13.2067 26.3584 13.1537 26.4134C13.1394 26.4976 13.113 26.5811 13.0885 26.6666C13.1829 26.5736 13.2487 26.4541 13.2983 26.3285C13.3024 26.3204 13.3037 26.3136 13.3092 26.3054C13.3581 26.2226 13.4803 26.2579 13.4354 26.3597C13.4314 26.3672 13.4273 26.3747 13.4246 26.3821C13.3859 26.4568 13.6344 26.6585 13.7987 26.7691C13.8014 26.6585 13.8027 26.5478 13.8082 26.4371C13.8109 26.3794 13.8652 26.2613 13.9419 26.2912C14.1965 26.3903 14.4124 26.5614 14.6752 26.632C14.6847 26.5064 14.7057 26.3889 14.7627 26.2742C14.7139 26.2328 14.6657 26.1886 14.6236 26.1364C14.5849 26.0895 14.6636 25.9755 14.7139 26.0189C14.925 26.2049 15.1898 26.2939 15.4111 26.4575C15.4444 26.2036 15.443 25.947 15.4865 25.6951C15.4987 25.634 15.5408 25.583 15.6005 25.5715C15.7227 25.5471 15.847 25.7114 15.9495 25.7643C16.143 25.8648 16.3324 25.8865 16.534 25.9015C16.4023 25.746 16.2727 25.5756 16.2645 25.3658Z" fill="#5C5D60"/>
<path d="M16.0528 23.1463C16.1125 20.6295 13.7268 19.5582 11.7606 19.0585C10.489 18.7353 9.30631 18.8243 8.07678 19.3192C7.15481 19.6906 6.49625 20.2948 5.93274 21.0722C5.48058 21.5915 5.11329 22.1883 4.87159 22.8435C4.13428 24.8415 5.3448 26.7181 6.99865 27.5966C8.56357 28.429 10.5895 28.6537 12.2976 28.175C14.4111 27.5823 15.9984 25.4234 16.0528 23.1463Z" fill="#231F20"/>
<path d="M13.9352 27.0209C12.2908 28.4412 9.79034 28.3251 7.89615 27.6482C5.78267 26.8912 4.23337 24.7702 5.29724 22.4015C5.74125 21.413 6.55935 20.6016 7.42837 20.0218C8.45898 19.3334 9.57105 19.1678 10.7632 19.1766C10.7789 19.1766 10.7979 19.1603 10.808 19.142C11.8224 19.2553 12.8726 19.6389 13.7091 20.0741C14.9596 20.7252 15.7845 21.8943 15.7431 23.3927C15.7065 24.7763 14.9427 26.1512 13.9352 27.0209Z" fill="#5B5E7B"/>
<path d="M12.5249 23.6195C12.4204 23.5522 12.2636 23.631 12.1712 23.6819C12.0171 23.7668 11.8902 23.9155 11.7272 23.9793C11.6675 24.0037 11.6437 24.1361 11.7326 24.1286C11.9553 24.1103 12.1122 23.9073 12.3294 23.8659C12.3376 23.8645 12.3437 23.8652 12.3518 23.8652C11.8827 24.8436 11.3137 25.5001 10.3123 25.9855C9.32858 26.4621 6.81589 26.5313 6.95236 24.7594C6.95915 24.6738 6.86206 24.7207 6.85323 24.7797C6.64209 26.0643 7.72022 26.551 8.79156 26.5653C9.68909 26.847 10.6097 27.3366 11.4862 26.7961C12.3253 26.2788 12.3851 24.997 12.4353 24.1239C12.4564 24.0675 12.4781 24.0112 12.4964 23.9542C12.6091 24.1062 12.6702 24.4043 12.7218 24.4953C12.7748 24.589 12.8793 24.4878 12.8848 24.4138C12.9031 24.1402 12.7666 23.7729 12.5249 23.6195Z" fill="#231F20"/>
<path d="M9.19019 26.5503C9.27777 26.5421 9.36399 26.5313 9.44885 26.517C9.74622 26.4668 10.0388 26.3771 10.3199 26.2556C10.3878 26.388 10.4937 26.4912 10.6023 26.5998C10.6859 26.6833 10.7721 26.7662 10.8692 26.8307C10.3627 26.889 9.72721 26.7071 9.19019 26.5503Z" fill="white"/>
<path d="M11.4062 26.627C11.3308 26.6874 11.2459 26.7316 11.1543 26.7655C10.9357 26.5829 10.6967 26.3901 10.5114 26.1681C10.9119 25.9705 11.2819 25.705 11.599 25.39C11.6424 25.464 11.6838 25.5394 11.73 25.612C11.7938 25.7132 11.8509 25.8218 11.9276 25.9148C11.821 26.1789 11.6608 26.422 11.4062 26.627Z" fill="white"/>
<path d="M12.0188 25.6384C11.9366 25.5047 11.8225 25.3811 11.7207 25.2616C11.8904 25.0776 12.0432 24.8794 12.1715 24.6669C12.1355 24.9975 12.1023 25.3288 12.0188 25.6384Z" fill="white"/>
<path d="M10.4756 18.2662C10.4491 20.1278 9.30984 21.6214 7.92959 21.6024C6.54935 21.5834 5.45153 20.0592 5.47801 18.1969C5.50313 16.3347 6.64372 14.841 8.02261 14.86C9.40285 14.8797 10.5007 16.4046 10.4756 18.2662Z" fill="#231F20"/>
<path d="M10.2553 18.1455C10.2316 19.8659 9.18129 21.2461 7.90832 21.2292C6.63534 21.2115 5.62374 19.8028 5.6475 18.0824C5.67127 16.3613 6.72156 14.9811 7.99454 14.9987C9.26616 15.0157 10.2791 16.4244 10.2553 18.1455Z" fill="#DADBD7"/>
<path d="M15.6894 18.5717C15.5319 20.5338 14.2243 22.0294 12.7694 21.9126C11.3158 21.7959 10.2649 20.1108 10.4224 18.1487C10.5785 16.1866 11.8861 14.6903 13.341 14.8071C14.7939 14.9238 15.8456 16.6089 15.6894 18.5717Z" fill="#231F20"/>
<path d="M15.4656 18.4279C15.3196 20.2413 14.1145 21.6242 12.7737 21.5163C11.4328 21.409 10.464 19.8516 10.6093 18.0388C10.7539 16.2248 11.959 14.8432 13.2998 14.9504C14.6421 15.0577 15.6109 16.6145 15.4656 18.4279Z" fill="#DADBD7"/>
<path d="M10.2568 17.9662C10.2344 19.5888 9.18411 20.8903 7.91114 20.8726C6.63952 20.8557 5.62521 19.5263 5.64897 17.9037C5.67137 16.2811 6.72167 14.9796 7.99464 14.9972C9.26626 15.0142 10.2792 16.3435 10.2568 17.9662Z" fill="#FFFEF9"/>
<path d="M15.4628 18.2723C15.3155 20.0056 14.1117 21.3275 12.7695 21.2256C11.43 21.1238 10.4625 19.6356 10.6078 17.9023C10.7552 16.169 11.9589 14.8472 13.2998 14.9497C14.6406 15.0515 15.6094 16.539 15.4628 18.2723Z" fill="#FFFEF9"/>
<path d="M14.1973 18.4855C14.2584 19.4088 13.756 20.1937 13.073 20.2392C12.39 20.2853 11.7864 19.5738 11.7246 18.6512C11.6635 17.7278 12.1673 16.943 12.8489 16.8975C13.5319 16.8513 14.1355 17.5622 14.1973 18.4855Z" fill="#231F20"/>
<path d="M12.6417 17.6781C12.6669 18.0556 12.4611 18.3767 12.1814 18.3951C11.9031 18.4134 11.6553 18.1235 11.6308 17.7454C11.6043 17.3679 11.8114 17.0467 12.0898 17.0284C12.3702 17.0101 12.6166 17.3 12.6417 17.6781Z" fill="white"/>
<path d="M9.18888 18.6017C9.15561 19.5264 8.57513 20.2562 7.89078 20.2311C7.20778 20.2073 6.68026 19.4381 6.71353 18.5134C6.74679 17.5894 7.32727 16.8596 8.01027 16.884C8.69462 16.9078 9.22214 17.677 9.18888 18.6017Z" fill="#231F20"/>
<path d="M7.72511 17.6394C7.71085 18.0176 7.47322 18.3156 7.19351 18.3054C6.91515 18.2953 6.69857 17.9809 6.71215 17.6034C6.72573 17.2253 6.96403 16.9272 7.24239 16.9367C7.52211 16.9469 7.73869 17.2613 7.72511 17.6394Z" fill="white"/>
<path opacity="0.4" d="M12.8891 17.1248C13.8933 17.1384 14.801 17.6931 15.4656 18.4263C15.6103 16.6136 14.6408 15.0575 13.3006 14.9503C11.9597 14.8423 10.7546 16.2246 10.61 18.0387C10.6019 18.1351 10.5978 18.2301 10.5978 18.3259C11.1559 17.596 11.8253 17.1106 12.8891 17.1248Z" fill="white"/>
<path opacity="0.4" d="M7.95863 16.8881C8.87382 17.0151 9.86708 17.5297 10.2418 18.4008C10.2486 18.3166 10.2541 18.2317 10.2554 18.1455C10.2792 16.4251 9.26624 15.0164 7.99462 14.9987C6.7746 14.9817 5.76164 16.2493 5.65845 17.8692C6.243 17.2161 7.06993 16.7653 7.95863 16.8881Z" fill="white"/>
<path d="M15.0357 14.6048C14.8551 13.8852 14.1232 13.5315 13.4273 13.5532C12.6731 13.577 12.1028 14.0984 11.7314 14.7101C11.6913 14.7746 11.7647 14.8133 11.8122 14.763C12.2684 14.2817 12.7858 13.9619 13.4633 13.9578C14.0601 13.9544 14.4077 14.3964 14.7838 14.7807C14.8762 14.8757 15.0635 14.7135 15.0357 14.6048Z" fill="#231F20"/>
<path d="M6.0474 14.4548C6.26601 13.746 7.01554 13.4316 7.71008 13.49C8.46165 13.5531 9.0041 14.1044 9.34221 14.7345C9.37819 14.801 9.30351 14.8349 9.2587 14.7827C8.82894 14.2782 8.32926 13.9313 7.65305 13.8912C7.05628 13.8559 6.68626 14.2789 6.28977 14.6428C6.19201 14.7331 6.01481 14.562 6.0474 14.4548Z" fill="#231F20"/>
<path d="M37.7687 7.23253C37.7741 7.16396 37.6757 7.15445 37.6282 7.20605C37.6309 7.20673 37.6336 7.20673 37.6363 7.20741C37.6153 7.21556 37.5962 7.22778 37.5833 7.24339C37.5793 7.24747 37.5752 7.25154 37.5711 7.25561C37.5263 7.30517 37.5141 7.41652 37.6003 7.4138C37.8216 7.56995 37.9846 7.7037 38.1 7.96305C38.25 8.29844 38.0165 8.64129 38.0029 8.96989C37.9961 9.1274 38.1794 9.09074 38.2405 8.99094C38.6296 8.35411 38.4422 7.53669 37.7687 7.23253Z" fill="#66676A"/>
<path d="M39.2195 7.63568C39.0817 7.28264 38.969 6.95336 38.6615 6.7137C38.3553 6.47472 37.9601 6.38171 37.5833 6.32807C37.4985 6.31585 37.4109 6.472 37.5181 6.49509C37.8658 6.56909 38.1984 6.68111 38.4863 6.89362C38.7911 7.1197 38.8312 7.47545 39.0009 7.78708C39.0708 7.91403 39.2643 7.74838 39.2195 7.63568Z" fill="#66676A"/>
<path d="M3.93816 1.52142C4.01488 1.43044 3.91983 1.33268 3.83768 1.42365C3.32578 1.99259 2.77585 2.91185 3.20493 3.68582C3.26603 3.79784 3.41336 3.6607 3.40793 3.57244C3.38688 3.22551 3.30473 2.91999 3.36719 2.56763C3.43712 2.16979 3.68357 1.82286 3.93816 1.52142Z" fill="#66676A"/>
<path d="M3.37454 1.12278C3.25641 1.3285 3.00317 1.42898 2.84973 1.60618C2.72006 1.75622 2.62705 1.9212 2.54897 2.10247C2.36566 2.52747 2.37381 3.02716 2.47972 3.46846C2.51434 3.609 2.71327 3.48611 2.69562 3.37545C2.62501 2.90631 2.62908 2.44532 2.81103 2.00063C2.95972 1.63877 3.33584 1.4894 3.50082 1.15266C3.54427 1.06372 3.41188 1.05693 3.37454 1.12278Z" fill="#66676A"/>
</svg>
