<svg width="75" height="77" viewBox="0 0 75 77" fill="none" xmlns="http://www.w3.org/2000/svg">
<g filter="url(#filter0_d_1_196)">
<path d="M60.3597 36.8379C60.3597 57.1338 33.2743 66.2629 19.1342 51.1893C6.1135 37.3464 16.3949 14.9927 36.8526 14.9927C49.628 14.9927 60.3597 24.5901 60.3597 36.8379Z" fill="#FFC200"/>
<path d="M19.134 51.1893C14.7044 46.4798 12.8943 40.4304 13.4379 35.0648C14.4079 46.0937 24.3692 55.0691 36.8524 55.0691C49.1774 55.0691 59.2908 46.2531 60.2792 35.0339C62.2537 56.1039 33.9166 66.9474 19.134 51.1893Z" fill="#FFAC00"/>
<path d="M43.9631 11.0883C43.9631 11.0883 38.7057 10.4581 35.765 11.0883C37.0839 5.87282 39.5891 -0.0197175 42.0974 4.7682C43.3577 7.16525 43.9631 11.0883 43.9631 11.0883Z" fill="#FFC200"/>
<path d="M55.8494 19.7125C55.8494 19.7125 52.7975 15.0852 49.8568 14.4551C59.2461 8.89862 64.4343 11.1276 55.8494 19.7125Z" fill="#FFC200"/>
<path d="M62.1574 32.1241C61.9597 30.967 60.957 25.4853 60.2299 24.5499C72.9163 25.4031 73.0744 30.4604 62.1574 32.1241Z" fill="#FFC200"/>
<path d="M62.6824 44.3192C62.8795 43.243 63.9285 37.3962 63.7327 36.325C65.2753 36.6759 70.7088 38.1215 70.9918 39.6919C71.3069 41.4774 62.6824 44.3192 62.6824 44.3192Z" fill="#FFC200"/>
<path d="M65.1476 57.0461C64.2642 59.0416 55.0405 55.6746 55.0405 55.6746C56.1136 54.6497 59.8315 50.9435 60.2299 49.4719C61.5897 50.7891 65.9143 55.299 65.1476 57.0461Z" fill="#FFC200"/>
<path d="M43.963 62.1985C45.8609 61.6709 49.1154 60.3513 49.8568 58.6832C54.7059 69.4792 48.3698 70.729 43.963 62.1985Z" fill="#FFC200"/>
<path d="M35.7647 63.2303C35.7647 63.2303 33.1329 71.447 31.0324 71.1319C28.9257 70.8168 27.6654 61.2472 27.6654 61.2472C29.0098 61.9447 34.3864 63.0005 35.7647 63.2303Z" fill="#FFC200"/>
<path d="M20.2029 57.256C20.2029 57.256 13.784 62.0933 12.3136 60.7218C11.0033 59.5171 13.7815 52.9709 14.5192 51.3622C18.4712 55.4489 12.2482 49.0078 20.2029 57.256Z" fill="#FFC200"/>
<path d="M11.4731 41.1624C9.56661 41.1902 4.00398 40.8726 4.00398 38.9569C3.79393 36.6401 11.9674 33.8044 11.9674 33.8044C10.9486 34.9752 11.2915 39.6062 11.4731 41.1624Z" fill="#FFC200"/>
<path d="M17.6761 20.1326C17.6761 20.1326 14.0991 24.3398 14.0991 26.0202C2.97502 19.6155 4.95753 16.1868 17.6761 20.1326Z" fill="#FFC200"/>
<path d="M28.9259 11.4712C28.9259 11.4712 22.5132 13.6335 21.883 14.9926C19.3581 2.69169 24.0595 1.21825 28.9259 11.4712Z" fill="#FFC200"/>
<path d="M46.7003 36.8379C46.7003 38.2508 43.3167 42.6081 39.2065 42.6081C34.9739 42.6081 31.3234 38.7536 31.3234 37.4865C31.3234 36.288 35.1105 37.4865 39.4412 37.4865C43.7782 37.4865 46.7003 35.6455 46.7003 36.8379Z" fill="#442C1E"/>
<path d="M44.6302 40.1184C42.1701 42.5445 39.2084 43.3316 35.9069 41.873C36.4382 40.557 37.6553 38.6048 39.8361 40.3223C39.8361 40.3223 41.8069 37.1283 44.6302 40.1184Z" fill="#BE1622"/>
<path d="M29.1045 33.7675C28.4812 32.6468 27.9937 31.3402 26.7075 30.6921C23.8168 29.7623 24.2116 34.7726 24.1183 34.7726C24.0905 35.0815 24.3043 35.37 24.6218 35.4114C25.622 35.5443 25.2155 33.2739 26.0526 32.236C26.6815 32.847 26.9293 33.8639 27.2777 34.6837C27.8998 35.8735 29.6846 34.9777 29.1045 33.7675Z" fill="#442C1E"/>
<path d="M50.4548 29.2976C50.0236 28.0355 48.7355 26.7919 47.4968 28.0188C46.3804 29.2729 46.2705 31.1177 46.1457 31.1177C45.9393 31.843 47.0056 32.1828 47.2546 31.4692C47.5425 30.6877 47.9113 29.5645 48.5291 29.0382C49.4836 30.2843 48.8689 32.6109 50.4054 32.184C51.6861 31.7311 50.713 30.2083 50.4548 29.2976Z" fill="#442C1E"/>
<path opacity="0.4" d="M23.849 38.6645C22.6777 40.1059 21.9895 39.5733 23.1738 38.1159C24.3457 36.6746 25.0334 37.2072 23.849 38.6645Z" fill="#FF8500"/>
<path opacity="0.4" d="M25.6954 38.4849C24.5241 39.9262 23.8359 39.3936 25.0202 37.9363C26.1921 36.4949 26.8804 37.0275 25.6954 38.4849Z" fill="#FF8500"/>
<path opacity="0.4" d="M27.6736 38.2828C26.4726 39.76 25.7677 39.2145 26.9817 37.7206C28.182 36.2435 28.8876 36.789 27.6736 38.2828Z" fill="#FF8500"/>
<path opacity="0.4" d="M50.631 35.9668C49.4306 37.4439 48.7251 36.8984 49.9391 35.4046C51.1395 33.9275 51.845 34.473 50.631 35.9668Z" fill="#FF8500"/>
<path opacity="0.4" d="M52.523 35.7835C51.3227 37.2606 50.6171 36.7151 51.8311 35.2213C53.0321 33.7435 53.7376 34.2896 52.523 35.7835Z" fill="#FF8500"/>
<path opacity="0.4" d="M54.4162 35.5993C53.2152 37.077 52.5103 36.5309 53.7242 35.0371C54.9252 33.5593 55.6301 34.1054 54.4162 35.5993Z" fill="#FF8500"/>
<path opacity="0.4" d="M44.6304 19.8701C44.6304 20.7746 42.7041 20.7746 42.7041 19.8701C42.7035 18.9657 44.6304 18.9663 44.6304 19.8701Z" fill="#FF8500"/>
<path opacity="0.4" d="M46.6999 19.6867C46.6999 20.8346 45.6478 20.8352 45.6478 19.6867C45.6478 18.5388 46.6999 18.5382 46.6999 19.6867Z" fill="#FF8500"/>
<path opacity="0.4" d="M45.4904 22.1579C45.4904 22.8875 44.3864 22.8887 44.3864 22.1579C44.3864 21.4276 45.4904 21.4264 45.4904 22.1579Z" fill="#FF8500"/>
<path opacity="0.4" d="M27.0761 53.2899C27.0761 54.3748 25.4347 54.3766 25.4347 53.2899C25.4347 52.2051 27.0761 52.2032 27.0761 53.2899Z" fill="#FF8500"/>
<path opacity="0.4" d="M30.4532 51.9169C30.4532 52.6478 28.7178 52.6472 28.7178 51.9169C28.7178 51.1861 30.4532 51.1867 30.4532 51.9169Z" fill="#FF8500"/>
<path opacity="0.4" d="M33.0056 55.9396C33.0056 57.0516 31.3234 57.0535 31.3234 55.9396C31.3234 54.8269 33.0056 54.8257 33.0056 55.9396Z" fill="#FF8500"/>
<path opacity="0.4" d="M19.1342 51.1894C21.8722 50.1583 21.1334 46.0616 18.1951 46.0616C17.3426 46.0616 16.5827 46.4632 16.0946 47.0934L19.1342 51.1894Z" fill="#FF8500"/>
<path opacity="0.4" d="M24.6959 48.6971C24.6959 49.4799 23.5116 49.4811 23.5116 48.6971C23.5116 47.9144 24.6959 47.9132 24.6959 48.6971Z" fill="#FF8500"/>
<path opacity="0.4" d="M18.5172 41.5857C18.5172 42.1417 17.6764 42.1423 17.6764 41.5857C17.6764 41.0303 18.5172 41.0291 18.5172 41.5857Z" fill="#FF8500"/>
<path opacity="0.4" d="M16.0831 36.684C16.0831 38.4898 13.3512 38.4923 13.3512 36.684C13.3512 34.8776 16.0831 34.8751 16.0831 36.684Z" fill="#FF8500"/>
<path opacity="0.4" d="M45.4903 53.3104C45.4903 55.1526 42.7035 55.1551 42.7035 53.3104C42.7035 51.4681 45.4903 51.4656 45.4903 53.3104Z" fill="#FF8500"/>
<path opacity="0.4" d="M35.5429 18.162C33.9613 18.162 32.7893 16.7145 33.0284 15.2831C34.8818 14.997 36.7846 14.9451 38.0017 15.0236C38.4008 16.5724 37.2084 18.162 35.5429 18.162Z" fill="#FF8500"/>
<path opacity="0.4" d="M54.5863 23.4614C54.5863 25.0541 52.1776 25.056 52.1776 23.4614C52.1776 21.8688 54.5863 21.8669 54.5863 23.4614Z" fill="#FF8500"/>
<path opacity="0.4" d="M59.0372 29.6036C58.6066 30.277 57.5298 29.9737 57.5298 29.1588C57.5298 28.6287 58.0228 28.2445 58.5245 28.3557L59.0372 29.6036Z" fill="#FF8500"/>
<path d="M16.365 29.8588C16.3947 29.7853 19.428 22.462 28.2607 17.8884C28.6221 17.7 28.9087 18.2486 28.5449 18.437C19.9248 22.9012 16.9667 30.0195 16.9377 30.0905C16.7851 30.4686 16.2118 30.2382 16.365 29.8588Z" fill="white"/>
<path d="M22.8816 24.9749C22.6252 24.9749 22.4776 24.6747 22.6419 24.4714C26.1034 20.2068 31.8254 17.6646 32.0194 18.7661C32.0491 18.9341 31.9366 19.0941 31.7686 19.1238C26.7367 20.0091 23.3437 24.9749 22.8816 24.9749Z" fill="white"/>
<path d="M56.3209 47.7304C56.0855 47.7304 55.9354 47.4752 56.0528 47.2683C56.0886 47.2052 59.6385 40.8704 58.731 34.2927C58.6747 33.8905 59.2863 33.7991 59.3426 34.2081C60.2118 40.504 56.8658 47.7304 56.3209 47.7304Z" fill="white"/>
<path opacity="0.4" d="M29.211 38.2106C29.211 40.0862 21.5064 40.088 21.5064 38.2106C21.5064 37.4266 24.087 36.3269 26.2147 36.3269C28.3417 36.3275 29.211 37.4266 29.211 38.2106Z" fill="#FF8500"/>
<path opacity="0.4" d="M56.0302 35.9182C56.0302 37.7938 48.3257 37.7957 48.3257 35.9182C48.3257 35.1342 50.9062 34.0345 53.0339 34.0345C55.161 34.0345 56.0302 35.1342 56.0302 35.9182Z" fill="#FF8500"/>
<g style="mix-blend-mode:overlay">
<path d="M28.926 11.4711C28.926 11.4711 22.5133 13.6334 21.8831 14.9925C21.8831 14.9925 21.6422 13.8187 21.4507 12.2681C22.0499 12.7419 22.682 12.5306 23.3659 12.231C25.0042 11.5298 27.3457 10.3183 26.5104 8.74044C25.6702 7.07856 24.2061 5.82444 22.6554 4.76801C25.2872 3.80425 28.926 11.4711 28.926 11.4711Z" fill="#1D1D1B"/>
</g>
<g style="mix-blend-mode:overlay">
<path d="M43.9631 11.0881C43.9631 11.0881 38.7057 10.458 35.765 11.0881C35.765 11.0881 36.0306 10.0379 36.4816 8.69107C36.5866 9.09264 36.7164 9.45096 36.9017 9.61159C38.6921 11.1437 43.2211 9.79013 42.0974 4.76807C43.3577 7.16511 43.9631 11.0881 43.9631 11.0881Z" fill="#1D1D1B"/>
</g>
<g style="mix-blend-mode:overlay">
<path d="M55.8494 19.7126C55.8494 19.7126 52.7975 15.0853 49.8568 14.4552C49.8568 14.4552 50.1595 14.276 50.6661 14.0165C51.0924 14.2346 52.9328 15.6778 55.8371 14.9556C57.4928 14.5417 58.9569 13.4482 59.8589 11.9963C61.7432 13.8188 55.8494 19.7126 55.8494 19.7126Z" fill="#1D1D1B"/>
</g>
<g style="mix-blend-mode:overlay">
<path d="M62.1574 32.1242C61.1405 26.1661 60.9107 29.1291 63.2818 30.0854C65.1901 30.849 67.6249 29.8358 68.7184 27.2992C68.811 27.0891 68.8975 26.8667 69.0087 26.6628C69.5833 27.0459 69.9663 27.4969 70.0466 28.022C70.4667 30.8577 62.1574 32.1242 62.1574 32.1242Z" fill="#1D1D1B"/>
</g>
<g style="mix-blend-mode:overlay">
<path d="M62.6824 44.3194C63.4819 39.9522 63.1859 40.4792 63.4547 41.076C63.7562 41.779 64.0669 42.1417 65.166 42.0336C67.2356 41.8235 69.1137 40.452 70.0466 38.611C70.5655 38.9507 70.9238 39.3152 70.9918 39.6921C71.3069 41.4775 62.6824 44.3194 62.6824 44.3194Z" fill="#1D1D1B"/>
</g>
<g style="mix-blend-mode:overlay">
<path d="M65.1476 57.0458C64.2642 59.0413 55.0405 55.6743 55.0405 55.6743C55.0405 55.6743 56.2761 54.4944 57.5487 53.1105C57.0063 54.9707 62.2112 57.254 62.9174 54.8836C63.1639 54.0724 61.9839 51.6445 61.6015 50.8802C63.251 52.6657 65.7469 55.6805 65.1476 57.0458Z" fill="#1D1D1B"/>
</g>
<g style="mix-blend-mode:overlay">
<path d="M43.963 62.1983C44.4078 62.0748 44.8156 61.945 45.1986 61.8153C45.4908 62.6901 46.816 64.9203 48.0466 65.6333C48.8189 66.0905 49.8383 66.2202 50.6167 65.763C51.0306 65.1514 51.3148 64.4533 51.4569 63.7243C52.5467 69.8232 47.3856 68.8236 43.963 62.1983Z" fill="#1D1D1B"/>
</g>
<g style="mix-blend-mode:overlay">
<path d="M35.7647 63.2303C35.7647 63.2303 33.1329 71.447 31.0324 71.1319C28.9257 70.8168 27.6654 61.2472 27.6654 61.2472C27.8322 61.3337 28.0546 61.4202 28.3079 61.5067C28.3883 61.8712 28.4253 62.2666 28.4747 62.4457C28.8831 64.065 30.3448 68.1257 32.0888 67.9009C33.5438 67.7025 34.8912 64.8094 35.4558 63.1747C35.6535 63.2118 35.7647 63.2303 35.7647 63.2303Z" fill="#1D1D1B"/>
</g>
<g style="mix-blend-mode:overlay">
<path d="M20.2028 57.256C20.2028 57.256 13.7839 62.0934 12.3135 60.7219C11.9305 60.3697 11.8996 59.5666 12.054 58.5781C13.5862 61.1716 17.7798 57.227 16.5145 53.4319L20.2028 57.256Z" fill="#1D1D1B"/>
</g>
<g style="mix-blend-mode:overlay">
<path d="M11.4733 41.1626C11.4733 41.1626 4.22653 41.2676 4.00412 38.9633C4.36862 38.9694 4.87521 39.3648 5.21499 39.4637C6.57971 39.8461 8.35772 39.5162 9.70637 38.4011C12.3895 36.1986 10.7041 34.5608 11.4733 41.1626Z" fill="#1D1D1B"/>
</g>
<g style="mix-blend-mode:overlay">
<path d="M17.6759 20.1327C17.6759 20.1327 14.0988 24.3399 14.0988 26.0203C14.0988 26.0203 6.10456 21.4177 6.8768 19.3419C7.74357 20.58 8.69869 21.5425 10.8987 22.4803C13.1122 23.4076 14.9903 23.4076 16.533 21.1891C17.4745 19.8213 16.8616 19.88 17.6759 20.1327Z" fill="#1D1D1B"/>
</g>
</g>
<defs>
<filter id="filter0_d_1_196" x="0" y="0" width="75.0002" height="76.1407" filterUnits="userSpaceOnUse" color-interpolation-filters="sRGB">
<feFlood flood-opacity="0" result="BackgroundImageFix"/>
<feColorMatrix in="SourceAlpha" type="matrix" values="0 0 0 0 0 0 0 0 0 0 0 0 0 0 0 0 0 0 127 0" result="hardAlpha"/>
<feOffset dy="1"/>
<feGaussianBlur stdDeviation="2"/>
<feComposite in2="hardAlpha" operator="out"/>
<feColorMatrix type="matrix" values="0 0 0 0 0 0 0 0 0 0 0 0 0 0 0 0 0 0 0.25 0"/>
<feBlend mode="normal" in2="BackgroundImageFix" result="effect1_dropShadow_1_196"/>
<feBlend mode="normal" in="SourceGraphic" in2="effect1_dropShadow_1_196" result="shape"/>
</filter>
</defs>
</svg>
