<svg width="52" height="56" viewBox="0 0 52 56" fill="none" xmlns="http://www.w3.org/2000/svg">
<path d="M2.50002 33.0066C2.50002 33.0066 1.43479 28.6575 2.23813 23.3911C1.88386 24.2803 0.218262 24.5995 0.218262 24.5995C0.218262 24.5995 0.34641 16.2283 4.27687 10.923C4.80186 10.2142 3.77031 7.42541 5.3014 6.12437C5.20562 7.27483 5.82683 9.51923 7.06585 8.16235C8.30509 6.80536 13.7428 3.2759 17.5883 4.33022C16.8783 2.60012 14.0962 2.38699 14.0962 2.38699C14.0962 2.38699 16.5408 1.04807 18.9514 3.42232C19.9422 1.1675 22.8124 0.866211 22.8124 0.866211C22.8124 0.866211 21.5108 1.99906 22.3088 3.21462C24.6559 1.85659 33.5129 -0.487074 40.9939 6.36403C41.0992 4.57718 40.5409 3.72649 40.5409 3.72649C40.5409 3.72649 43.2705 5.41755 42.5891 7.62546C44.2982 6.46457 46.0184 8.1751 46.0184 8.1751C46.0184 8.1751 43.0415 7.92455 43.9987 9.3829C48.6331 12.2885 51.9934 16.757 51.7328 24.1458C51.3508 23.4356 50.5709 23.2865 50.5709 23.2865C50.5709 23.2865 50.7074 28.9453 48.9198 33.492C43.8894 34.6545 2.50002 33.0066 2.50002 33.0066Z" fill="#8C4647"/>
<path d="M6.271 35.923C6.27319 47.8928 15.1211 55.8591 26.0389 55.8571C36.9555 55.8552 45.8022 47.8856 45.8 35.9145C45.798 23.9455 36.9488 14.6751 26.0314 14.6774C15.1143 14.6789 6.26858 23.9542 6.271 35.923Z" fill="#FCC7A5"/>
<path d="M15.7655 30.5644C17.6915 29.3731 16.2994 27.3054 15.3082 28.3855C14.247 29.5472 12.9587 30.1123 12.933 30.3653C12.8744 30.9242 14.6827 31.2356 15.7655 30.5644Z" fill="#6E3233"/>
<path d="M35.5265 30.613C33.4537 29.7382 34.5384 27.4746 35.6712 28.3868C36.8843 29.3685 38.2377 29.724 38.2987 29.9699C38.4356 30.5131 36.6921 31.1062 35.5265 30.613Z" fill="#6E3233"/>
<path d="M23.9983 39.245C23.9736 39.2448 23.9483 39.2391 23.9243 39.2278C23.8287 39.1828 23.7858 39.0653 23.8285 38.9646C24.2368 37.9976 25.006 37.4035 25.836 37.4137C26.6661 37.4239 27.4222 38.0368 27.8093 39.013C27.8494 39.1146 27.8042 39.2316 27.7082 39.2739C27.612 39.3164 27.5016 39.2687 27.4609 39.1671C27.1331 38.3397 26.509 37.8207 25.8316 37.8124C25.1547 37.8042 24.5193 38.3079 24.1733 39.1272C24.1419 39.2016 24.0718 39.246 23.9983 39.245Z" fill="#CE7755"/>
<path d="M8.9113 42.6159C9.12261 44.6358 11.0431 45.9175 13.5504 45.878C15.97 45.84 18.2984 43.7578 17.7513 41.9035C17.2311 40.1399 15.9523 40.8577 13.0985 39.9725C10.3378 39.1168 8.7001 40.5981 8.9113 42.6159Z" fill="#F9B09B"/>
<path d="M10.5501 41.4565C10.5696 41.6407 10.7687 41.7681 10.9943 41.7417C11.2196 41.7142 11.3873 41.5452 11.3691 41.3613C11.3489 41.1791 11.1506 41.0501 10.9249 41.0753C10.6992 41.103 10.5325 41.2734 10.5501 41.4565Z" fill="#FCD3C5"/>
<path d="M43.0157 42.4729C42.805 44.4936 40.8859 45.7752 38.378 45.7374C35.9598 45.6989 33.6294 43.6186 34.1756 41.7646C34.695 40.0001 35.9739 40.7174 38.8277 39.8307C41.5885 38.9744 43.2268 40.4558 43.0157 42.4729Z" fill="#F9B09B"/>
<path d="M41.3768 41.3141C41.3573 41.4986 41.1589 41.6262 40.9326 41.5996C40.7075 41.5724 40.54 41.4027 40.5591 41.2195C40.5782 41.0367 40.7763 40.9079 41.0027 40.9332C41.228 40.9608 41.395 41.1311 41.3768 41.3141Z" fill="#FCD3C5"/>
<path d="M37.2984 6.05555C24.8877 -0.00406885 16.8746 6.45946 16.8746 6.45946C16.8746 6.45946 12.0859 4.89732 6.74943 11.1236C0.556083 18.3505 0.307687 32.2602 3.98514 37.195C9.00782 35.5347 9.13904 24.5975 9.13904 24.5975C10.841 25.6316 16.0856 26.3516 17.81 25.69C15.1743 23.06 15.939 19.5266 15.939 19.5266C15.939 19.5266 18.9095 26.3255 23.1492 25.8608C21.1872 23.218 22.3416 18.0542 22.3416 18.0542C22.3416 18.0542 26.6336 25.1104 22.8207 29.3407C28.6318 28.3265 30.6584 19.6458 30.6584 19.6458C30.6584 19.6458 32.9046 22.2007 30.4016 25.8313C33.7671 26.5074 36.0921 18.7423 36.0921 18.7423C36.0921 18.7423 38.0548 23.4697 34.5484 25.9164C38.3173 26.637 40.1239 26.2741 42.5092 24.8884C42.233 30.1588 44.5077 34.3567 45.6091 36.342C53.4965 28.1237 49.1774 11.8563 37.2984 6.05555Z" fill="#8C4647"/>
<path d="M2.63037 23.5358C2.63037 23.5358 1.91744 28.8412 3.33947 33.6476C4.75875 34.617 6.50345 34.4626 6.50345 34.4626C6.50345 34.4626 8.47746 29.1194 8.41723 24.8528C6.44903 30.5453 4.05262 29.8774 2.63037 23.5358Z" fill="#6E3233"/>
<path d="M49.7239 23.2742C49.7239 23.2742 50.1643 28.612 48.499 33.3308C47.0325 34.2177 45.2982 33.9644 45.2982 33.9644C45.2982 33.9644 43.5999 28.5165 43.8779 24.2591C45.553 30.0554 47.9798 29.5256 49.7239 23.2742Z" fill="#6E3233"/>
<path d="M31.8159 16.9393C35.6163 16.6779 27.8787 8.66772 27.8787 8.66772C27.8787 8.66772 37.674 17.7732 41.8144 16.0564C45.9548 14.3393 29.9062 7.32556 29.9062 7.32556C29.9062 7.32556 37.8732 10.5344 39.229 10.5221C41.2541 10.5039 37.4808 6.35209 29.4073 5.01085C21.3335 3.66949 19.9616 7.30888 20.5972 8.86974C22.5929 13.7699 29.8686 17.0734 31.8159 16.9393ZM13.3631 17.7949C10.5287 18.9603 13.5673 10.4041 13.5673 10.4041C13.5673 10.4041 9.38951 20.4866 5.84371 20.7199C2.2977 20.9531 11.6708 10.1554 11.6708 10.1554C11.6708 10.1554 6.93012 15.318 5.94487 15.7924C4.47358 16.5011 5.87674 12.151 11.2915 8.30215C16.7068 4.45299 18.8635 6.59823 18.9022 7.95465C19.025 12.2127 14.8151 17.1976 13.3631 17.7949Z" fill="#985355"/>
<path d="M7.76992 35.1502C7.76992 35.1502 7.50375 32.3036 4.72509 31.8092C1.79469 31.2899 0.521547 35.5798 2.03705 38.4773C3.55289 41.3691 6.8245 41.9649 7.89083 39.7718L7.76992 35.1502Z" fill="#FCC7A5"/>
<path d="M4.12353 33.0318C6.04718 32.6997 7.46943 36.9243 4.81485 38.968C5.99649 36.0811 5.02572 35.0292 3.61182 36.3698C3.6557 35.4121 4.14986 34.8294 5.29892 34.9859C5.2468 33.7149 4.12353 33.0318 4.12353 33.0318Z" fill="#DE9168"/>
<path d="M44.906 35.1428C44.906 35.1428 45.1713 32.2964 47.9495 31.8008C50.8806 31.28 52.1543 35.5703 50.641 38.4671C49.1257 41.36 45.8544 41.9573 44.7881 39.7646L44.906 35.1428Z" fill="#FCC7A5"/>
<path d="M48.5515 33.0231C46.6277 32.692 45.2069 36.9178 47.862 38.9596C46.6796 36.0735 47.6506 35.0211 49.0637 36.3606C49.0198 35.4033 48.5256 34.8207 47.3772 34.977C47.4294 33.7068 48.5515 33.0231 48.5515 33.0231Z" fill="#DE9168"/>
<path d="M35.7109 37.858C38.2735 37.8142 39.3452 34.6371 39.3474 34.7837C39.3809 36.9506 37.7561 38.7424 35.7251 38.7771C33.6944 38.8121 32.0151 37.0774 31.9814 34.9106C31.9793 34.7639 32.9685 37.9055 35.7109 37.858Z" fill="#6E3233"/>
<path d="M25.9005 45.1616C22.9888 45.2115 21.7613 48.1729 21.7592 48.0365C21.7281 46.0192 23.5798 44.3455 25.8875 44.3059C28.1949 44.2662 30.0976 45.8753 30.1288 47.8923C30.1308 48.0289 29.0167 45.1077 25.9005 45.1616Z" fill="#6E3233"/>
<path d="M16.0173 38.168C18.58 38.1236 19.6519 34.947 19.6542 35.0932C19.6874 37.2604 18.0622 39.0515 16.0315 39.087C14.0009 39.1216 12.3213 37.3868 12.2881 35.22C12.2857 35.0737 13.2749 38.215 16.0173 38.168Z" fill="#6E3233"/>
</svg>
